<svg id="Group_450905" data-name="Group 450905" xmlns="http://www.w3.org/2000/svg" width="18" height="18" viewBox="0 0 18 18">
  <rect id="Canvas" width="18" height="18" fill="#ff13dc" opacity="0"/>
  <path id="Path_757171" data-name="Path 757171" d="M16.038,1.354a.5.5,0,0,0-.707,0L12.09,4.6,10.6,3.1a.344.344,0,0,0-.248-.1.35.35,0,0,0-.35.35V7.77A.25.25,0,0,0,10.232,8H14.65a.35.35,0,0,0,.35-.35h0a.343.343,0,0,0-.1-.245L13.4,5.912,16.646,2.67a.5.5,0,0,0,0-.707Z" transform="translate(-0.205 18.001) rotate(-90)" fill="#fff"/>
  <path id="Path_757172" data-name="Path 757172" d="M9.6,7.068h6.624v9.069H3.634V10.126" transform="translate(0.104)" fill="none" stroke="#fff" stroke-linejoin="round" stroke-width="2"/>
</svg>
