<svg width="8" height="12" viewBox="0 0 8 12" fill="none" xmlns="http://www.w3.org/2000/svg">
<path d="M5.95314 6.87121L4.34308 8.60529V0.5C4.34308 0.367392 4.2904 0.240215 4.19663 0.146447C4.10287 0.0526784 3.97569 0 3.84308 0H3.34308C3.21047 0 3.08329 0.0526784 2.98953 0.146447C2.89576 0.240215 2.84308 0.367392 2.84308 0.5V8.60529L1.23302 6.87121C1.1428 6.77405 1.01769 6.71669 0.885192 6.71176C0.752695 6.70684 0.623665 6.75474 0.52648 6.84493L0.15988 7.18516C0.111751 7.22983 0.0728907 7.28353 0.0455181 7.34322C0.0181455 7.4029 0.0027965 7.46739 0.000347815 7.53301C-0.00210087 7.59862 0.00839883 7.66408 0.0312469 7.72564C0.0540949 7.7872 0.088844 7.84365 0.13351 7.89178L3.2267 11.2226C3.31694 11.3198 3.44208 11.3772 3.5746 11.3821C3.70711 11.387 3.83615 11.339 3.93332 11.2488L3.95946 11.2226L7.05254 7.89189C7.14278 7.79472 7.19071 7.66568 7.18581 7.53316C7.18091 7.40065 7.12356 7.27551 7.02639 7.18527L6.65968 6.84493C6.5625 6.75474 6.43347 6.70684 6.30097 6.71176C6.16847 6.71669 6.04336 6.77405 5.95314 6.87121Z" fill="#1473E6"/>
</svg>
