<svg id="Smock_Gears_18_N" xmlns="http://www.w3.org/2000/svg" width="13.009" height="13" viewBox="0 0 13.009 13">
    <rect id="Canvas" width="13" height="13" fill="#ff13dc" opacity="0"/>
    <path id="Path_103010" data-name="Path 103010" d="M6.258,11.849h-.77a2.226,2.226,0,0,0-.326-.79l.548-.548a.22.22,0,0,0,0-.311l-.333-.333a.22.22,0,0,0-.311,0l-.548.549a2.227,2.227,0,0,0-.789-.326V9.32a.22.22,0,0,0-.22-.22h-.44a.22.22,0,0,0-.22.22v.77a2.227,2.227,0,0,0-.789.326l-.548-.549a.22.22,0,0,0-.311,0L.867,10.2a.22.22,0,0,0,0,.311l.548.549a2.226,2.226,0,0,0-.326.79H.32a.22.22,0,0,0-.22.22h0v.44a.22.22,0,0,0,.22.22h.77a2.226,2.226,0,0,0,.326.79l-.549.548a.22.22,0,0,0,0,.311l.333.333a.22.22,0,0,0,.311,0l.549-.549a2.227,2.227,0,0,0,.789.326v.77a.22.22,0,0,0,.22.22h.44a.22.22,0,0,0,.22-.22v-.771a2.227,2.227,0,0,0,.789-.326l.548.548a.22.22,0,0,0,.311,0l.333-.333a.22.22,0,0,0,0-.311l-.548-.548a2.226,2.226,0,0,0,.326-.79h.77a.22.22,0,0,0,.22-.22v-.44a.22.22,0,0,0-.22-.22ZM3.289,13.435a1.147,1.147,0,1,1,1.147-1.147h0A1.147,1.147,0,0,1,3.289,13.435Z" transform="translate(-0.028 -2.505)" fill="#7a42bf"/>
    <path id="Path_103011" data-name="Path 103011" d="M14.452,5.415,13.437,5a3.173,3.173,0,0,0,0-1.216l1.018-.428a.313.313,0,0,0,.167-.41l-.262-.619a.313.313,0,0,0-.41-.168h0l-1.019.427a3.175,3.175,0,0,0-.866-.854L12.476.718A.313.313,0,0,0,12.3.31l-.58-.237a.313.313,0,0,0-.408.172L10.9,1.26a3.175,3.175,0,0,0-1.216,0L9.256.247A.313.313,0,0,0,8.846.08h0L8.227.34a.313.313,0,0,0-.167.41l.427,1.019a3.172,3.172,0,0,0-.854.867L6.618,2.221a.313.313,0,0,0-.408.172l-.237.58a.313.313,0,0,0,.172.408L7.16,3.8a3.173,3.173,0,0,0,0,1.216L6.146,5.44a.313.313,0,0,0-.167.41l.261.619a.313.313,0,0,0,.41.168h0l1.018-.428a3.175,3.175,0,0,0,.867.854L8.12,8.077a.313.313,0,0,0,.172.408l.58.237A.313.313,0,0,0,9.28,8.55l.414-1.015a3.173,3.173,0,0,0,1.216,0l.428,1.018a.313.313,0,0,0,.41.168h0l.619-.261a.313.313,0,0,0,.167-.41L12.11,7.028a3.171,3.171,0,0,0,.854-.866l1.015.414a.313.313,0,0,0,.408-.171h0l.237-.58a.313.313,0,0,0-.171-.409Zm-4.153.5A1.518,1.518,0,1,1,11.816,4.4,1.518,1.518,0,0,1,10.3,5.916Z" transform="translate(-1.638 -0.014)" fill="#7a42bf"/>
  </svg>
  