<svg id="Decorative_icon" data-name="Decorative icon" xmlns="http://www.w3.org/2000/svg" width="14" height="14" viewBox="0 0 14 14">
  <g id="Placement_Area" data-name="Placement Area" fill="#6e6e6e" stroke="rgba(0,0,0,0)" stroke-width="1" opacity="0">
    <rect width="14" height="14" stroke="none"/>
    <rect x="0.5" y="0.5" width="13" height="13" fill="none"/>
  </g>
  <g id="Icon">
    <g id="Canvas" fill="#6e6e6e" stroke="#6e6e6e" stroke-width="1" opacity="0">
      <rect width="14" height="14" stroke="none"/>
      <rect x="0.5" y="0.5" width="13" height="13" fill="none"/>
    </g>
    <g id="Rectangle_174707" data-name="Rectangle 174707" transform="translate(3.5 5.091)" fill="#6e6e6e" stroke="#6e6e6e" stroke-width="1">
      <rect width="1.273" height="1.273" rx="0.5" stroke="none"/>
      <rect x="0.5" y="0.5" width="0.273" height="0.273" fill="none"/>
    </g>
    <g id="Rectangle_174708" data-name="Rectangle 174708" transform="translate(5.409 5.091)" fill="#6e6e6e" stroke="#6e6e6e" stroke-width="1">
      <rect width="1.273" height="1.273" rx="0.5" stroke="none"/>
      <rect x="0.5" y="0.5" width="0.273" height="0.273" fill="none"/>
    </g>
    <g id="Rectangle_174709" data-name="Rectangle 174709" transform="translate(7.318 5.091)" fill="#6e6e6e" stroke="#6e6e6e" stroke-width="1">
      <rect width="1.273" height="1.273" rx="0.5" stroke="none"/>
      <rect x="0.5" y="0.5" width="0.273" height="0.273" fill="none"/>
    </g>
    <g id="Rectangle_174710" data-name="Rectangle 174710" transform="translate(9.227 5.091)" fill="#6e6e6e" stroke="#6e6e6e" stroke-width="1">
      <rect width="1.273" height="1.273" rx="0.5" stroke="none"/>
      <rect x="0.5" y="0.5" width="0.273" height="0.273" fill="none"/>
    </g>
    <g id="Rectangle_174711" data-name="Rectangle 174711" transform="translate(3.5 7)" fill="#6e6e6e" stroke="#6e6e6e" stroke-width="1">
      <rect width="1.273" height="1.273" rx="0.5" stroke="none"/>
      <rect x="0.5" y="0.5" width="0.273" height="0.273" fill="none"/>
    </g>
    <g id="Rectangle_174712" data-name="Rectangle 174712" transform="translate(5.409 7)" fill="#6e6e6e" stroke="#6e6e6e" stroke-width="1">
      <rect width="1.273" height="1.273" rx="0.5" stroke="none"/>
      <rect x="0.5" y="0.5" width="0.273" height="0.273" fill="none"/>
    </g>
    <g id="Rectangle_174713" data-name="Rectangle 174713" transform="translate(7.318 7)" fill="#6e6e6e" stroke="#6e6e6e" stroke-width="1">
      <rect width="1.273" height="1.273" rx="0.5" stroke="none"/>
      <rect x="0.5" y="0.5" width="0.273" height="0.273" fill="none"/>
    </g>
    <g id="Rectangle_174714" data-name="Rectangle 174714" transform="translate(9.227 7)" fill="#6e6e6e" stroke="#6e6e6e" stroke-width="1">
      <rect width="1.273" height="1.273" rx="0.5" stroke="none"/>
      <rect x="0.5" y="0.5" width="0.273" height="0.273" fill="none"/>
    </g>
    <g id="Rectangle_174715" data-name="Rectangle 174715" transform="translate(3.5 8.909)" fill="#6e6e6e" stroke="#6e6e6e" stroke-width="1">
      <rect width="1.273" height="1.273" rx="0.5" stroke="none"/>
      <rect x="0.5" y="0.5" width="0.273" height="0.273" fill="none"/>
    </g>
    <g id="Rectangle_174716" data-name="Rectangle 174716" transform="translate(5.409 8.909)" fill="#6e6e6e" stroke="#6e6e6e" stroke-width="1">
      <rect width="1.273" height="1.273" rx="0.5" stroke="none"/>
      <rect x="0.5" y="0.5" width="0.273" height="0.273" fill="none"/>
    </g>
    <g id="Rectangle_174717" data-name="Rectangle 174717" transform="translate(7.318 8.909)" fill="#6e6e6e" stroke="#6e6e6e" stroke-width="1">
      <rect width="1.273" height="1.273" rx="0.5" stroke="none"/>
      <rect x="0.5" y="0.5" width="0.273" height="0.273" fill="none"/>
    </g>
    <g id="Rectangle_174718" data-name="Rectangle 174718" transform="translate(9.227 8.909)" fill="#6e6e6e" stroke="#6e6e6e" stroke-width="1">
      <rect width="1.273" height="1.273" rx="0.5" stroke="none"/>
      <rect x="0.5" y="0.5" width="0.273" height="0.273" fill="none"/>
    </g>
    <path id="Path_103009" data-name="Path 103009" transform="translate(-0.727 -0.545)"
      d="M13.136,2.773H11.227V1.818a.318.318,0,0,0-.318-.318h-.636a.318.318,0,0,0-.318.318v.955H5.5V1.818A.318.318,0,0,0,5.182,1.5H4.545a.318.318,0,0,0-.318.318v.955H2.318A.318.318,0,0,0,2,3.091v9.545a.318.318,0,0,0,.318.318H13.136a.318.318,0,0,0,.318-.318V3.091A.318.318,0,0,0,13.136,2.773ZM12.5,12H2.955V3.727H4.227v.636a.318.318,0,0,0,.318.318h.636A.318.318,0,0,0,5.5,4.364V3.727H9.955v.636a.318.318,0,0,0,.318.318h.636a.318.318,0,0,0,.318-.318V3.727H12.5Z"
      fill="#6e6e6e"/>
  </g>
</svg>
