<svg xmlns="http://www.w3.org/2000/svg" width="16" height="16" viewBox="0 0 16 16">
  <g id="Icon" transform="translate(-4 -4)">
    <g id="Canvas" transform="translate(4 4)" fill="#6e6e6e" stroke="#6e6e6e" stroke-width="1" opacity="0">
      <rect width="16" height="16" stroke="none"/>
      <rect x="0.5" y="0.5" width="15" height="15" fill="none"/>
    </g>
    <path id="Path_102991" data-name="Path 102991" d="M13.375,5.448l-2.911,0a9.544,9.544,0,0,0,.356-2.7A1.69,1.69,0,0,0,9.409,1,1.479,1.479,0,0,0,7.951,2.406C7.742,4.431,5.616,6.079,4.5,6.572a.44.44,0,0,0-.388-.239H1.444A.444.444,0,0,0,1,6.778v7.111a.444.444,0,0,0,.444.444H4.111a.444.444,0,0,0,.444-.444v-.444h6.42a2.06,2.06,0,0,0,1.834-1.077L14.58,7.356a1.333,1.333,0,0,0-1.2-1.908Zm.4,1.522-1.785,5.047a.819.819,0,0,1-.774.548l-6.662-.009V7.489C5.83,6.976,8.622,5.033,8.84,2.422a.611.611,0,0,1,.569-.533c.271,0,.5.33.521.861a6.688,6.688,0,0,1-.776,3.583h4.222a.444.444,0,0,1,.4.636Z" transform="translate(3.889 3.889)" fill="#6e6e6e"/>
  </g>
</svg>