<svg xmlns="http://www.w3.org/2000/svg" width="12.812" height="9" viewBox="0 0 12.812 9">
  <g id="Group_170753" data-name="Group 170753" transform="translate(-468 -243.839)">
    <path id="Path_102994" data-name="Path 102994" d="M13.1,6.507a6.1,6.1,0,0,0-2.69-.668C6.882,5.839,4,9.347,4,10.486c0,1.219,3.034,4.353,6.381,4.353,3.374,0,6.432-3.132,6.432-4.353C16.812,9.524,15.1,7.5,13.1,6.507Zm-2.69,7.584a3.752,3.752,0,1,1,3.752-3.752A3.752,3.752,0,0,1,10.406,14.091Z" transform="translate(464 238)" fill="#6e6e6e"/>
    <path id="Path_102995" data-name="Path 102995" d="M10.2,9.648A1.085,1.085,0,0,1,9.113,8.563a1.068,1.068,0,0,1,.549-.925,2,2,0,0,0-.549-.085,2.059,2.059,0,1,0,2.059,2.061,1.922,1.922,0,0,0-.071-.486A1.068,1.068,0,0,1,10.2,9.648Z" transform="translate(465.293 238.726)" fill="#6e6e6e"/>
  </g>
</svg>