<svg xmlns="http://www.w3.org/2000/svg" width="13" height="13" viewBox="0 0 12 12">
  <g id="Group_170516" data-name="Group 170516" transform="translate(-0.189 -0.189)">
    <rect
      id="Canvas"
      width="13"
      height="13"
      transform="translate(0.189 0.189)"
      fill="#6e6e6e"
      opacity="0"
    />
    <path
      id="Path_33885"
      data-name="Path 33885"
      d="M7.208,11.125a.516.516,0,0,0,.461,0l3.9-1.948V10.6c0,1.14-1.847,2.579-4.126,2.579A6.605,6.605,0,0,1,4,11.806V9.576Z"
      transform="translate(-1.249 -2.866)"
      fill="#6e6e6e"
    />
    <path
      id="Path_33886"
      data-name="Path 33886"
      d="M12.063,4.667l-5.5-2.748a.516.516,0,0,0-.461,0L.609,4.667a.259.259,0,0,0,0,.462l.946.481-.028,4.556a5.515,5.515,0,0,1-.2,1.435l-.151.538c-.067.32.074.621.4.621h.566c.325,0,.473-.3.409-.616l-.146-.529a5.506,5.506,0,0,1-.2-1.463V6.084L5.76,4.71a.649.649,0,0,1,.575-.269c.341,0,.617.181.617.405s-.275.405-.617.405c-.018,0-.032-.006-.05-.007l-3.2,1.245L6.1,7.879a.516.516,0,0,0,.46,0l5.5-2.749a.258.258,0,0,0,0-.462Z"
      transform="translate(-0.146 -0.582)"
      fill="#6e6e6e"
    />
  </g>
</svg>
