<svg id="Group_170539" data-name="Group 170539" xmlns="http://www.w3.org/2000/svg" width="13" height="13" viewBox="0 0 12 12">
    <rect id="Canvas" width="13" height="13" fill="#ffde2c" opacity="0"/>
    <path id="Path_33889" data-name="Path 33889" d="M1,6A1,1,0,0,0,0,7v4a1,1,0,0,0,1,1h.333v1.6a.167.167,0,0,0,.285.118L3.333,12h3a1,1,0,0,0,1-1V7a1,1,0,0,0-1-1Z" transform="translate(0 -2)" fill="#ffde2c"/>
    <path id="Path_33890" data-name="Path 33890" d="M10,5.2A1.533,1.533,0,0,0,8.467,3.667H6V2A1,1,0,0,1,7,1h6a1,1,0,0,1,1,1V6a1,1,0,0,1-1,1H12V8.6a.167.167,0,0,1-.285.118L10,7Z" transform="translate(-2 -0.333)" fill="#ffde2c"/>
  </svg>
  