<svg width="15" height="12" viewBox="0 0 15 12" fill="none" xmlns="http://www.w3.org/2000/svg">
<path d="M14.5001 5.24999H2.90991L6.63617 1.79032C6.73333 1.70011 6.79068 1.57499 6.79561 1.44249C6.80054 1.31 6.75264 1.18097 6.66245 1.08378L6.32222 0.717173C6.27754 0.669036 6.22382 0.630171 6.16413 0.602798C6.10443 0.575426 6.03992 0.560081 5.9743 0.557642C5.90867 0.555202 5.8432 0.565715 5.78164 0.588581C5.72008 0.611446 5.66362 0.646215 5.61549 0.690903L0.292585 5.6336C0.242186 5.6804 0.201984 5.7371 0.174493 5.80014C0.147002 5.86318 0.132812 5.93122 0.132812 6C0.132812 6.06877 0.147002 6.13681 0.174493 6.19986C0.201984 6.2629 0.242186 6.31959 0.292585 6.36639L5.61549 11.3091C5.66362 11.3538 5.72008 11.3886 5.78164 11.4114C5.8432 11.4343 5.90867 11.4448 5.9743 11.4424C6.03992 11.4399 6.10443 11.4246 6.16413 11.3972C6.22382 11.3698 6.27754 11.331 6.32222 11.2828L6.66245 10.9162C6.75264 10.819 6.80054 10.69 6.79561 10.5575C6.79068 10.425 6.73333 10.2999 6.63617 10.2097L2.90991 6.74999H14.5001C14.6327 6.74999 14.7598 6.69731 14.8536 6.60355C14.9474 6.50978 15.0001 6.3826 15.0001 6.24999V5.74999C15.0001 5.61738 14.9474 5.49021 14.8536 5.39644C14.7598 5.30267 14.6327 5.24999 14.5001 5.24999Z" fill="#2C2C2C"/>
</svg>
