<svg xmlns="http://www.w3.org/2000/svg" width="16" height="16" viewBox="0 0 16 16" fill="none">
  <defs>
    <linearGradient id="sparkleGradient" x1="16" y1="16" x2="0" y2="0" gradientUnits="userSpaceOnUse">
      <stop offset="0%" stop-color="#FF0000"/>
      <stop offset="100%" stop-color="#6010B8"/>
    </linearGradient>
  </defs>
  <path d="M7.93452 10.5994C7.75952 10.5994 7.58296 10.5541 7.42358 10.4619C7.03842 10.2393 6.84389 9.79787 6.93842 9.3635L7.52045 6.66428L5.66576 4.61818C5.36732 4.2885 5.31576 3.80881 5.53842 3.42366C5.76108 3.03772 6.20639 2.84318 6.63686 2.9385L9.33608 3.52053L11.3822 1.66584C11.7126 1.36584 12.1923 1.31662 12.5767 1.5385C12.9619 1.76115 13.1564 2.20256 13.0619 2.63694L12.4798 5.33615L14.3345 7.38225C14.633 7.71115 14.6837 8.19084 14.4619 8.576C14.2392 8.96038 13.7994 9.15647 13.3642 9.06272L10.665 8.47913L8.61812 10.3346C8.42515 10.5096 8.1806 10.5994 7.93452 10.5994ZM8.71342 6.82679L8.22983 9.06663L9.92748 7.52756C10.1697 7.30803 10.504 7.2174 10.8251 7.28615L13.0665 7.77053L11.5275 6.07287C11.3072 5.82912 11.2173 5.4924 11.2876 5.17209L11.7705 2.93381L10.0728 4.47287C9.82905 4.69318 9.49312 4.78225 9.17202 4.71271L6.93374 4.2299L8.4728 5.92755C8.69312 6.17052 8.78296 6.50647 8.71342 6.82679Z" fill="url(#sparkleGradient)"/>
  <path d="M2.67658 14.6014C2.57345 14.6014 2.47033 14.5748 2.37658 14.5209C2.15079 14.3905 2.03517 14.1295 2.08986 13.8748L2.33517 12.7405L1.55548 11.8811C1.38048 11.6881 1.35001 11.4037 1.48048 11.178C1.61095 10.9522 1.87345 10.8397 2.12658 10.8912L3.26095 11.1366L4.12033 10.3569C4.31408 10.1811 4.59689 10.1514 4.82346 10.2819C5.04924 10.4123 5.16486 10.6733 5.11018 10.928L4.86486 12.0623L5.64455 12.9217C5.81955 13.1147 5.85002 13.3991 5.71955 13.6248C5.58908 13.8506 5.3258 13.9616 5.07346 13.9116L3.93908 13.6662L3.0797 14.4459C2.96642 14.5483 2.82189 14.6014 2.67658 14.6014Z" fill="url(#sparkleGradient)"/>
</svg>
