<svg width="18" height="18" viewBox="0 0 18 18" fill="none" xmlns="http://www.w3.org/2000/svg">
<g clip-path="url(#clip0_1_4926)">
<path d="M11.5 6.25H9.75V4.5C9.75 4.36739 9.69732 4.24021 9.60355 4.14645C9.50979 4.05268 9.38261 4 9.25 4H8.75C8.61739 4 8.49021 4.05268 8.39645 4.14645C8.30268 4.24021 8.25 4.36739 8.25 4.5V6.25H6.5C6.36739 6.25 6.24021 6.30268 6.14645 6.39645C6.05268 6.49021 6 6.61739 6 6.75V7.25C6 7.38261 6.05268 7.50979 6.14645 7.60355C6.24021 7.69732 6.36739 7.75 6.5 7.75H8.25V9.5C8.25 9.63261 8.30268 9.75979 8.39645 9.85355C8.49021 9.94732 8.61739 10 8.75 10H9.25C9.38261 10 9.50979 9.94732 9.60355 9.85355C9.69732 9.75979 9.75 9.63261 9.75 9.5V7.75H11.5C11.6326 7.75 11.7598 7.69732 11.8536 7.60355C11.9473 7.50979 12 7.38261 12 7.25V6.75C12 6.61739 11.9473 6.49021 11.8536 6.39645C11.7598 6.30268 11.6326 6.25 11.5 6.25Z" fill="white"/>
<path d="M13.5 17.7505C13.2131 17.7501 12.9353 17.6492 12.7149 17.4653L9.00105 14.416L5.28716 17.4663C5.10655 17.6166 4.8866 17.7119 4.65342 17.7409C4.42025 17.7699 4.18365 17.7314 3.97173 17.6299C3.7542 17.5275 3.57058 17.3649 3.44267 17.1614C3.31475 16.9578 3.24791 16.7218 3.25005 16.4814L3.25591 1.48633C3.25427 1.16064 3.38186 0.847591 3.61069 0.615829C3.83952 0.384067 4.15092 0.252508 4.47661 0.25H13.5323C13.8578 0.252424 14.1691 0.383919 14.3978 0.615619C14.6265 0.84732 14.7539 1.16029 14.752 1.48584V16.4819C14.7541 16.7225 14.6872 16.9586 14.5591 17.1623C14.431 17.3659 14.2471 17.5286 14.0294 17.6309C13.8639 17.7093 13.6832 17.7502 13.5 17.7505ZM4.75591 1.75L4.75005 15.9663L9.00105 12.4746L13.252 15.9658V1.75H4.75591Z" fill="white"/>
</g>
<defs>
<clipPath id="clip0_1_4926">
<rect width="18" height="18" fill="white"/>
</clipPath>
</defs>
</svg>
