<svg xmlns="http://www.w3.org/2000/svg" width="10.217" height="9.167" viewBox="0 0 10.217 9.167">
  <path id="Path_425538" data-name="Path 425538" d="M6.952,9.857H3.676a1.31,1.31,0,1,1,0-2.619H7.2a.337.337,0,0,0,.268-.131l3.716-4.845A.161.161,0,0,0,11.2,2.09a.168.168,0,0,0-.15-.09H5.695a.337.337,0,0,0-.268.131L1.509,7.018a2.565,2.565,0,0,0-.22,2.721,2.679,2.679,0,0,0,2.378,1.428H7.2a.337.337,0,0,0,.268-.131L11.182,6.19a.161.161,0,0,0,.016-.171.168.168,0,0,0-.15-.09H9.965Z" transform="translate(-0.999 -2)" fill="#747474"/>
</svg>
