<svg id="Group_450901" data-name="Group 450901" xmlns="http://www.w3.org/2000/svg" width="18" height="18" viewBox="0 0 18 18">
  <rect id="Canvas" width="18" height="18" fill="#ff13dc" opacity="0"/>
  <path id="Path_757168" data-name="Path 757168" d="M14.657,3.343a8,8,0,1,0,0,11.314h0a8,8,0,0,0,0-11.314Zm-1.344,9.265-.707.705a.6.6,0,0,1-.849,0h0L9,10.556,6.242,13.313a.6.6,0,0,1-.849,0h0l-.7-.707a.6.6,0,0,1,0-.849h0L7.444,9,4.688,6.242a.6.6,0,0,1,0-.849h0l.707-.707a.6.6,0,0,1,.849,0h0L9,7.444l2.758-2.758a.6.6,0,0,1,.849,0h0l.707.707a.6.6,0,0,1,0,.849h0L10.556,9l2.758,2.758a.6.6,0,0,1,0,.849Z" fill="#fff"/>
</svg>
