<svg width="32" height="32" viewBox="0 0 32 32" fill="none" xmlns="http://www.w3.org/2000/svg">
<path d="M0 4C0 1.79086 1.79086 0 4 0H28C30.2091 0 32 1.79086 32 4V28C32 30.2091 30.2091 32 28 32H4C1.79086 32 0 30.2091 0 28V4Z" fill="black"/>
<g clip-path="url(#clip0_1_6440)">
<path d="M16.5525 14.5598H10.0725C9.58156 14.5598 9.18359 14.9578 9.18359 15.4487V21.9287C9.18359 22.4196 9.58156 22.8176 10.0725 22.8176H16.5525C17.0434 22.8176 17.4414 22.4196 17.4414 21.9287V15.4487C17.4414 14.9578 17.0434 14.5598 16.5525 14.5598Z" stroke="white" stroke-width="1.33333" stroke-miterlimit="10"/>
<path d="M17.4401 20.089H19.2712C19.7601 20.089 20.1601 19.6979 20.1601 19.2001V12.729C20.1601 12.2312 19.7601 11.8401 19.2712 11.8401H12.7912C12.3023 11.8401 11.9023 12.2312 11.9023 12.729V14.5512" stroke="white" stroke-width="1.33333" stroke-miterlimit="10"/>
<path d="M14.5586 11.8402V10.0713C14.5586 9.57348 14.9586 9.18237 15.4475 9.18237H21.9275C22.4164 9.18237 22.8164 9.57348 22.8164 10.0713V16.5424C22.8164 17.0402 22.4164 17.4313 21.9275 17.4313H20.1586" stroke="white" stroke-width="1.33333" stroke-miterlimit="10"/>
</g>
<defs>
<clipPath id="clip0_1_6440">
<rect width="16" height="16" fill="white" transform="translate(8 8)"/>
</clipPath>
</defs>
</svg>
