<svg width="24" height="24" viewBox="0 0 24 24" fill="none" xmlns="http://www.w3.org/2000/svg">
<path d="M22.9015 1.56891L22.4301 1.09763C22.3051 0.972631 22.1356 0.902405 21.9588 0.902405C21.782 0.902405 21.6125 0.972631 21.4875 1.09763L14.7877 7.79669L14.9043 4.64321C14.9108 4.46656 14.8469 4.29455 14.7266 4.16502C14.6063 4.03549 14.4395 3.95903 14.2628 3.95246L13.5978 3.92771C13.5103 3.92445 13.423 3.93845 13.3409 3.96892C13.2589 3.9994 13.1836 4.04575 13.1194 4.10532C13.0552 4.16489 13.0034 4.23652 12.9669 4.31612C12.9304 4.39572 12.91 4.48173 12.9067 4.56923L12.6821 10.6256C12.6787 10.7172 12.6942 10.8085 12.7277 10.8939C12.7612 10.9793 12.812 11.0568 12.8768 11.1216C12.9416 11.1865 13.0192 11.2373 13.1045 11.2708C13.1899 11.3043 13.2812 11.3199 13.3728 11.3165L19.4297 11.0923C19.6063 11.0858 19.773 11.0093 19.8933 10.8799C20.0136 10.7504 20.0775 10.5784 20.0711 10.4018L20.047 9.73558C20.0438 9.64805 20.0234 9.56201 19.9869 9.48238C19.9504 9.40274 19.8986 9.33107 19.8344 9.27146C19.7703 9.21185 19.695 9.16547 19.6129 9.13496C19.5308 9.10445 19.4435 9.09041 19.3559 9.09365L16.2021 9.21051L22.9015 2.5117C23.0265 2.38666 23.0967 2.2171 23.0967 2.04031C23.0967 1.86351 23.0265 1.69396 22.9015 1.56891Z" fill="#2C2C2C"/>
<path d="M10.9875 12.3208L4.9307 12.545C4.75409 12.5516 4.5873 12.628 4.46701 12.7575C4.34672 12.887 4.28279 13.0589 4.28926 13.2355L4.31336 13.9018C4.31657 13.9893 4.33699 14.0754 4.37347 14.155C4.40994 14.2346 4.46174 14.3063 4.52592 14.3659C4.5901 14.4255 4.66539 14.4719 4.7475 14.5024C4.8296 14.5329 4.91691 14.5469 5.00444 14.5436L8.1584 14.4268L1.45886 21.1256C1.33388 21.2507 1.26367 21.4202 1.26367 21.597C1.26367 21.7738 1.33388 21.9434 1.45886 22.0685L1.93021 22.5397C1.9921 22.6016 2.06558 22.6507 2.14644 22.6842C2.22731 22.7177 2.31399 22.7349 2.40152 22.7349C2.48906 22.7349 2.57574 22.7177 2.65661 22.6842C2.73749 22.6507 2.81097 22.6016 2.87288 22.5397L9.57242 15.8407L9.45605 18.9941C9.44952 19.1707 9.51342 19.3428 9.63371 19.4723C9.754 19.6019 9.92083 19.6783 10.0975 19.6849L10.7625 19.7097C10.85 19.7129 10.9373 19.6989 11.0194 19.6685C11.1015 19.638 11.1768 19.5916 11.241 19.5321C11.3051 19.4725 11.3569 19.4009 11.3934 19.3213C11.4299 19.2417 11.4504 19.1556 11.4536 19.0681L11.6782 13.0117C11.6816 12.9201 11.6661 12.8288 11.6326 12.7434C11.5991 12.6581 11.5483 12.5805 11.4835 12.5157C11.4187 12.4509 11.3412 12.4001 11.2558 12.3666C11.1705 12.333 11.0791 12.3175 10.9875 12.3208Z" fill="#2C2C2C"/>
</svg>
