<svg width="20" height="20" viewBox="0 0 20 20" fill="none" xmlns="http://www.w3.org/2000/svg">
<path d="M11.2789 11.3329C11.1898 11.4849 11.0552 11.6051 10.8941 11.6764C10.733 11.7478 10.5536 11.7668 10.3811 11.7307L9.80226 11.6063L9.36338 12.0029C9.23266 12.1215 9.06766 12.1956 8.89216 12.2143C8.71666 12.2331 8.53972 12.1957 8.38686 12.1075C8.23399 12.0192 8.11309 11.8848 8.04158 11.7234C7.97006 11.562 7.95163 11.3821 7.98894 11.2096L8.11339 10.6307L7.71672 10.1918C7.5996 10.0616 7.52647 9.89784 7.50772 9.72372C7.48897 9.5496 7.52556 9.37399 7.61228 9.22184C7.7019 9.07034 7.83657 8.95059 7.99751 8.87928C8.15844 8.80797 8.33762 8.78867 8.51005 8.82407L9.08894 8.94851L9.52782 8.55185C9.65854 8.43325 9.82354 8.35922 9.99904 8.34043C10.1745 8.32164 10.3515 8.35906 10.5043 8.44729C10.6572 8.53553 10.7781 8.67002 10.8496 8.83139C10.9211 8.99275 10.9396 9.17266 10.9023 9.34517L10.7778 9.92406L11.1745 10.3629C11.2931 10.4937 11.3671 10.6587 11.3859 10.8342C11.4047 11.0098 11.3672 11.1867 11.2789 11.3396V11.3329Z" fill="url(#paint0_linear_68_341)"/>
<path d="M19.5015 5.44395L17.7949 3.55508L18.3326 1.07066C18.3726 0.885951 18.3527 0.693297 18.2758 0.520668C18.1989 0.34804 18.069 0.204422 17.9049 0.110667C17.7387 0.0230464 17.5503 -0.0131749 17.3635 0.00661071C17.1767 0.0263963 17.0001 0.101295 16.856 0.221777L14.9671 1.92954L12.4905 1.39288C12.3053 1.35339 12.1124 1.373 11.939 1.44894C11.7656 1.52489 11.6204 1.65335 11.5238 1.81621C11.4359 1.98284 11.3995 2.17185 11.4193 2.35921C11.4391 2.54657 11.5141 2.72382 11.6349 2.86842L13.3427 4.75729L12.8049 7.24505C12.7646 7.42992 12.7844 7.62282 12.8613 7.79568C12.9383 7.96854 13.0684 8.11234 13.2327 8.20615C13.3649 8.28052 13.5143 8.31884 13.666 8.31726C13.8914 8.32031 14.1101 8.24133 14.2816 8.09504L16.1704 6.38728L18.6515 6.92283C18.8367 6.96389 19.0302 6.94501 19.2039 6.86891C19.3777 6.79282 19.5228 6.66345 19.6182 6.4995C19.7061 6.33286 19.7425 6.14385 19.7227 5.95649C19.7029 5.76913 19.6278 5.59189 19.5071 5.44729L19.5015 5.44395ZM16.1349 4.66618C15.9949 4.63938 15.8507 4.64444 15.713 4.68099C15.5753 4.71753 15.4476 4.78463 15.3393 4.87729L14.9416 5.23729L15.0527 4.71396C15.0785 4.57452 15.073 4.43107 15.0365 4.29403C15 4.15699 14.9334 4.02981 14.8416 3.92174L14.4804 3.52397L15.0016 3.63508C15.1415 3.66084 15.2855 3.65527 15.423 3.61877C15.5606 3.58227 15.6883 3.51574 15.7971 3.42397L16.1949 3.06397L16.0838 3.58397C16.0571 3.72384 16.0621 3.86792 16.0984 4.0056C16.1347 4.14328 16.2015 4.27105 16.2938 4.37952L16.6549 4.77729L16.1338 4.66618H16.1349Z" fill="url(#paint1_linear_68_341)"/>
<path d="M16.6387 8.20276L15.5676 9.17386L15.5732 13.9349C15.5761 14.1463 15.4963 14.3504 15.351 14.5038C15.2855 14.5718 15.207 14.6259 15.1201 14.6628C15.0332 14.6996 14.9398 14.7185 14.8454 14.7183H9.15879L6.12882 17.4438V14.7194H2.19997C2.13542 14.7163 2.07229 14.6994 2.0148 14.6699C1.95731 14.6404 1.90679 14.5989 1.86664 14.5483C1.73312 14.3854 1.66254 14.1799 1.66775 13.9694L1.68442 4.95834C1.68395 4.74379 1.76681 4.53744 1.91552 4.38279C1.98219 4.31189 2.0628 4.25555 2.15228 4.21731C2.24177 4.17906 2.33821 4.15975 2.43552 4.16057H10.5377L10.3899 3.99946C10.0191 3.5816 9.79482 3.05417 9.75101 2.49725H2.42885C2.11073 2.49888 1.79611 2.56377 1.50331 2.68814C1.2105 2.81251 0.945361 2.99388 0.723312 3.22169C0.270893 3.68522 0.0176777 4.30729 0.0177628 4.95501L0.00109631 13.966C-0.00486926 14.5808 0.212247 15.1769 0.612202 15.6438C1.02853 16.0927 1.605 16.3593 2.21663 16.386H4.46217V18.8882C4.45709 19.1592 4.55937 19.4212 4.74671 19.6171C4.93404 19.8129 5.19122 19.9268 5.46216 19.9338C5.71718 19.9375 5.96327 19.84 6.1466 19.6627L9.79657 16.3838H14.8265C15.149 16.3921 15.4696 16.3318 15.7671 16.2069C16.0646 16.082 16.3321 15.8954 16.5521 15.6594C16.9976 15.1919 17.2439 14.5695 17.2387 13.9238L17.2332 8.33276L16.6387 8.20498V8.20276Z" fill="url(#paint2_linear_68_341)"/>
<defs>
<linearGradient id="paint0_linear_68_341" x1="12.9385" y1="13.372" x2="7.3072" y2="12.8558" gradientUnits="userSpaceOnUse">
<stop offset="0.432292" stop-color="#5D4ADA"/>
<stop offset="0.869792" stop-color="#FF1C17"/>
<stop offset="1" stop-color="#FF6A54"/>
</linearGradient>
<linearGradient id="paint1_linear_68_341" x1="23.0381" y1="10.7862" x2="10.9952" y2="9.68376" gradientUnits="userSpaceOnUse">
<stop offset="0.432292" stop-color="#5D4ADA"/>
<stop offset="0.869792" stop-color="#FF1C17"/>
<stop offset="1" stop-color="#FF6A54"/>
</linearGradient>
<linearGradient id="paint2_linear_68_341" x1="24.102" y1="25.1104" x2="-0.872033" y2="22.8497" gradientUnits="userSpaceOnUse">
<stop offset="0.432292" stop-color="#5D4ADA"/>
<stop offset="0.869792" stop-color="#FF1C17"/>
<stop offset="1" stop-color="#FF6A54"/>
</linearGradient>
</defs>
</svg>
