<svg id="Component_331_2" data-name="Component 331 – 2" xmlns="http://www.w3.org/2000/svg" width="24" height="24" viewBox="0 0 24 24">
  <rect id="Rectangle_189162" data-name="Rectangle 189162" width="24" height="24" rx="2" fill="#e6e6e6" opacity="0"/>
  <g id="Decorative_icon" data-name="Decorative icon" transform="translate(3 3)">
    <rect id="Placement_Area" data-name="Placement Area" width="18" height="18" fill="red" opacity="0"/>
    <g id="Icon">
      <rect id="Canvas" width="18" height="18" fill="#464646" opacity="0"/>
      <path id="Path_425467" data-name="Path 425467" d="M15.85,2.15a3.588,3.588,0,0,0-5.074,0C10.584,2.343,8.644,4.261,8.1,4.8a4.153,4.153,0,0,1,1.871.3c.259-.26,1.784-1.763,1.892-1.87a2.051,2.051,0,1,1,2.9,2.9L11.2,9.695a2.309,2.309,0,0,1-1.686.65,1.976,1.976,0,0,1-1.35-.554,2.077,2.077,0,0,1-.62-.813,1.033,1.033,0,0,0-.214.159l-.818.856a3.572,3.572,0,0,0,.613.837,3.924,3.924,0,0,0,5.339-.219L15.85,7.226a3.587,3.587,0,0,0,0-5.073Z" fill="#464646"/>
      <path id="Path_425468" data-name="Path 425468" d="M7.963,12.912c-.26.26-1.75,1.773-1.857,1.881a2.051,2.051,0,0,1-2.9-2.9L6.8,8.3a2.29,2.29,0,0,1,1.683-.646,2.1,2.1,0,0,1,1.892,1.391,1.033,1.033,0,0,0,.214-.159l.867-.861a3.583,3.583,0,0,0-.613-.837,3.655,3.655,0,0,0-5.13.024L2.119,10.806A3.588,3.588,0,0,0,7.193,15.88c.193-.193,2.1-2.122,2.641-2.665a4.15,4.15,0,0,1-1.871-.3Z" fill="#464646"/>
    </g>
  </g>
</svg>
