<svg width="20" height="20" viewBox="0 0 20 20" fill="none" xmlns="http://www.w3.org/2000/svg">
<g clip-path="url(#clip0_93_4489)">
<g clip-path="url(#clip1_93_4489)">
<path d="M8.49299 15.4085L8.09377 15.8078C7.75515 16.1464 7.35308 16.415 6.91056 16.5981C6.46804 16.7813 5.99375 16.8753 5.51484 16.875C5.03592 16.8746 4.56178 16.7798 4.11953 16.596C3.67729 16.4122 3.27562 16.143 2.93752 15.8039C2.25626 15.1202 1.87412 14.1942 1.875 13.2291C1.87588 12.2639 2.25971 11.3386 2.94221 10.6562L5.65627 7.94214C5.99449 7.60382 6.39605 7.33545 6.83801 7.15234C7.27997 6.96924 7.75367 6.875 8.23205 6.875C8.71044 6.875 9.18414 6.96924 9.6261 7.15234C10.0681 7.33545 10.4696 7.60382 10.8078 7.94214C11.2891 8.42125 11.6258 9.02605 11.7797 9.68745" stroke="white" stroke-width="1.875" stroke-linecap="round" stroke-linejoin="round"/>
<path d="M11.5055 4.59136L11.9047 4.19214C12.2429 3.85382 12.6445 3.58545 13.0864 3.40234C13.5284 3.21924 14.0021 3.125 14.4805 3.125C14.9589 3.125 15.4326 3.21924 15.8745 3.40234C16.3165 3.58545 16.718 3.85382 17.0562 4.19214C17.3946 4.53036 17.6629 4.93192 17.846 5.37388C18.0291 5.81583 18.1234 6.28953 18.1234 6.76792C18.1234 7.2463 18.0291 7.72001 17.846 8.16196C17.6629 8.60392 17.3946 9.00548 17.0562 9.3437L15.15 11.2499L14.3422 12.0578C14.0036 12.3964 13.6015 12.665 13.159 12.8481C12.7165 13.0313 12.2422 13.1253 11.7633 13.125C11.2843 13.1246 10.8102 13.0298 10.3679 12.846C9.92571 12.6622 9.52404 12.393 9.18594 12.0539C8.70745 11.5749 8.37244 10.9718 8.21875 10.3124" stroke="white" stroke-width="1.875" stroke-linecap="round" stroke-linejoin="round"/>
</g>
</g>
<defs>
<clipPath id="clip0_93_4489">
<rect width="20" height="20" fill="white"/>
</clipPath>
<clipPath id="clip1_93_4489">
<rect width="20" height="20" fill="white"/>
</clipPath>
</defs>
</svg>
