<?xml version="1.0" encoding="UTF-8"?>
<svg id="Layer_2" data-name="Layer 2" xmlns="http://www.w3.org/2000/svg" viewBox="0 0 451.02 450.98">
  <defs>
    <style>
      .cls-1 {
        fill: #2c2c2c;
      }
    </style>
  </defs>
  <g id="Layer_1-2" data-name="Layer 1">
    <path class="cls-1" d="M370.98,288.99v39.5c0,17.52-24.04,40.5-41.5,40.5h-40.5v41.5c0,17.57-23.46,40.55-41.52,40.48H40.49C19.07,447.9,2.37,431.09,0,409.48v-205.97c.62-18.79,22.73-41.52,41.48-41.52h40.5v-42.5c0-17.02,24.64-39.5,41.5-39.5h38.5v-39.5C161.98,22.15,186.04,0,204.5,0h204.98c21.72,2.73,39.67,20.34,41.54,42.45l-.14,205.93c-1.69,19.23-22.87,40.61-42.39,40.61h-37.5ZM370.98,248.99h34.5c1.21,0,6.28-4.32,5.55-6.45V47.45c.1-3.01-.98-6.04-3.99-7.01l-198.61-.49c-1.61-.81-6.45,4.14-6.45,4.55v35.5h127.5c17.4,0,41.5,23.04,41.5,40.5v128.5ZM288.98,328.99h36.5c1.21,0,6.28-4.32,5.55-6.45V127.43c.41-3.56-2.15-5.6-5-6.99l-200.04.07c-.7.69-4.02,3.7-4.02,3.98v37.5h125.5c18.04,0,41.5,23.37,41.5,41.5v125.5ZM246.7,409.69l2.02-3.45-.18-199.31-4.5-4.5H44.93c-2.85,1.39-5.41,3.43-5.01,6.99l.5,197.62,1.59,2.41,204.68.23Z"/>
  </g>
</svg>