<svg xmlns="http://www.w3.org/2000/svg" width="18" height="18" viewBox="0 0 18 18">
  <g id="Icon" transform="translate(-10 -7)">
    <rect id="Canvas" width="18" height="18" transform="translate(10 7)" fill="#747474" opacity="0"/>
    <circle id="Ellipse_20358" data-name="Ellipse 20358" cx="1" cy="1" r="1" transform="translate(16.428 12.75)" fill="#747474"/>
    <path id="Path_597183" data-name="Path 597183" d="M17.5,2H.5a.5.5,0,0,0-.5.5v13a.5.5,0,0,0,.5.5h17a.5.5,0,0,0,.5-.5V2.5A.5.5,0,0,0,17.5,2ZM2,4h8v6.347a4.267,4.267,0,0,0-1.739-.562c-.826,0-1.2,1.1-2.026,1.1S4.767,8.708,3.941,8.708C3.19,8.706,2,10.91,2,10.91ZM16,14H2V13H16Zm0-3H12V10h4Zm0-3H12V7h4Zm0-3H12V4h4Z" transform="translate(10 7)" fill="#747474"/>
  </g>
</svg>
