<svg xmlns="http://www.w3.org/2000/svg" width="18" height="18" viewBox="0 0 18 18">
  <g id="Icon" transform="translate(-10 -7)">
    <rect id="Canvas" width="18" height="18" transform="translate(10 7)" fill="#747474" opacity="0"/>
    <path id="Path_757169" data-name="Path 757169" d="M16.5,12h-1a.5.5,0,0,0-.5.5V15H3V12.5a.5.5,0,0,0-.5-.5h-1a.5.5,0,0,0-.5.5v4a.5.5,0,0,0,.5.5h15a.5.5,0,0,0,.5-.5v-4A.5.5,0,0,0,16.5,12Z" transform="translate(10 7)" fill="#2c2c2c"/>
    <path id="Path_757170" data-name="Path 757170" d="M8.825,13.428a.25.25,0,0,0,.35,0L12.9,9.665A.391.391,0,0,0,13,9.4a.4.4,0,0,0-.4-.4H10V1.5A.5.5,0,0,0,9.5,1h-1a.5.5,0,0,0-.5.5V9H5.4a.4.4,0,0,0-.4.4.391.391,0,0,0,.1.263Z" transform="translate(10 7)" fill="#2c2c2c"/>
  </g>
</svg>
