<svg id="Decorative_icon" data-name="Decorative icon" xmlns="http://www.w3.org/2000/svg" width="21" height="21" viewBox="0 0 21 21">
  <rect id="Placement_Area" data-name="Placement Area" width="21" height="21" fill="red" opacity="0"/>
  <g id="Icon">
    <rect id="Canvas" width="21" height="21" fill="#464646" opacity="0"/>
    <path id="Path_754140" data-name="Path 754140" d="M10.5,1A9.5,9.5,0,1,0,20,10.5,9.5,9.5,0,0,0,10.5,1ZM8.956,3.835a.422.422,0,0,1,.2-.4,3.709,3.709,0,0,1,1.321-.272,4.074,4.074,0,0,1,1.325.2.461.461,0,0,1,.238.408V5.229c0,1.713-.343,6.467-.406,7.094a.313.313,0,0,1-.315.311l-.034,0H9.669a.337.337,0,0,1-.343-.281c-.059-.81-.369-5.4-.369-7.06ZM10.5,16.942A1.528,1.528,0,0,1,8.837,15.38a1.579,1.579,0,0,1,1.553-1.605q.055,0,.109,0a1.563,1.563,0,0,1,1.66,1.459q0,.072,0,.144A1.528,1.528,0,0,1,10.5,16.942Z" fill="#464646"/>
  </g>
</svg>
