<svg id="Group_450904" data-name="Group 450904" xmlns="http://www.w3.org/2000/svg" width="18" height="18" viewBox="0 0 18 18">
  <rect id="Canvas" width="18" height="18" fill="#ff13dc" opacity="0"/>
  <path id="Path_757169" data-name="Path 757169" d="M7.038,10.354a.5.5,0,0,0-.707,0L3.089,13.6,1.6,12.1a.344.344,0,0,0-.248-.1.35.35,0,0,0-.35.35v4.42A.25.25,0,0,0,1.23,17H5.65A.35.35,0,0,0,6,16.65a.343.343,0,0,0-.1-.245L4.4,14.91l3.242-3.242a.5.5,0,0,0,0-.707Z" fill="#fff"/>
  <path id="Path_757170" data-name="Path 757170" d="M16.771,1H12.35a.35.35,0,0,0-.35.35v0a.343.343,0,0,0,.1.245L13.6,3.089,10.354,6.332a.5.5,0,0,0,0,.707l.608.608a.5.5,0,0,0,.707,0L14.91,4.4,16.4,5.9a.344.344,0,0,0,.247.1A.35.35,0,0,0,17,5.65h0V1.23A.25.25,0,0,0,16.771,1Z" fill="#fff"/>
</svg>
