<svg width="18" height="18" viewBox="0 0 18 18" fill="none" xmlns="http://www.w3.org/2000/svg">
<path d="M11.6949 1.22448L11.7131 1.72415C11.7155 1.78979 11.7308 1.85432 11.7582 1.91404C11.7855 1.97377 11.8244 2.02752 11.8725 2.07223C11.9206 2.11693 11.9771 2.15172 12.0386 2.1746C12.1002 2.19749 12.1657 2.20801 12.2313 2.20558L14.5959 2.11798L9.57222 7.14203C9.47846 7.2358 9.42578 7.36297 9.42578 7.49557C9.42578 7.62818 9.47846 7.75535 9.57222 7.84912L9.92567 8.20257C9.9721 8.249 10.0272 8.28583 10.0879 8.31096C10.1485 8.33608 10.2136 8.34902 10.2792 8.34902C10.3449 8.34902 10.4099 8.33608 10.4706 8.31096C10.5312 8.28583 10.5863 8.249 10.6328 8.20257L15.6576 3.17742L15.5702 5.54342C15.5653 5.67592 15.6132 5.80495 15.7034 5.90211C15.7936 5.99928 15.9188 6.05663 16.0513 6.06155L16.5501 6.08009C16.6157 6.08253 16.6811 6.07202 16.7427 6.04916C16.8042 6.0263 16.8607 5.99154 16.9088 5.94686C16.9569 5.90218 16.9958 5.84847 17.0231 5.78878C17.0505 5.72908 17.0658 5.66459 17.0683 5.59897L17.2368 1.05669C17.2394 0.987957 17.2277 0.919437 17.2026 0.855414C17.1774 0.791392 17.1394 0.733244 17.0907 0.684607C17.0421 0.63597 16.9839 0.59789 16.9199 0.572749C16.8559 0.547607 16.7874 0.535944 16.7186 0.53849L12.176 0.70659C12.0436 0.711504 11.9185 0.768818 11.8283 0.865932C11.7381 0.963046 11.6901 1.09201 11.6949 1.22448Z" fill="#222222"/>
<path d="M2.64029 15.902L7.66491 10.8775C7.71134 10.831 7.74817 10.7759 7.7733 10.7153C7.79843 10.6546 7.81136 10.5896 7.81136 10.5239C7.81136 10.4582 7.79843 10.3932 7.7733 10.3326C7.74817 10.2719 7.71134 10.2168 7.66491 10.1704L7.31146 9.81691C7.2177 9.72315 7.09052 9.67047 6.95791 9.67047C6.82531 9.67047 6.69813 9.72315 6.60436 9.81691L1.5795 14.8417L1.66698 12.4767C1.67188 12.3442 1.62395 12.2152 1.53373 12.118C1.44351 12.0208 1.31839 11.9635 1.18588 11.9586L0.687094 11.94C0.621476 11.9376 0.55602 11.9481 0.494464 11.971C0.432908 11.9938 0.376458 12.0286 0.328336 12.0733C0.280215 12.1179 0.241364 12.1716 0.214004 12.2313C0.186643 12.291 0.171308 12.3555 0.168874 12.4211L0.000343593 16.9634C-0.00220571 17.0321 0.00945287 17.1006 0.0345903 17.1646C0.0597278 17.2287 0.0978034 17.2868 0.146436 17.3355C0.195069 17.3841 0.253214 17.4222 0.317233 17.4473C0.381253 17.4724 0.449771 17.4841 0.518504 17.4816L5.06009 17.3134C5.19257 17.3085 5.31767 17.2512 5.4079 17.1541C5.49813 17.057 5.5461 16.928 5.54126 16.7955L5.52299 16.2959C5.5206 16.2302 5.50529 16.1657 5.47795 16.106C5.45061 16.0463 5.41177 15.9925 5.36365 15.9478C5.31553 15.9031 5.25907 15.8683 5.1975 15.8454C5.13593 15.8225 5.07045 15.812 5.00481 15.8144L2.64029 15.902Z" fill="#222222"/>
</svg>
