<svg xmlns="http://www.w3.org/2000/svg" xmlns:xlink="http://www.w3.org/1999/xlink" width="16" height="16" viewBox="0 0 16 16">
  <defs>
    <clipPath id="clip-path">
      <rect id="Rectangle_378454" data-name="Rectangle 378454" width="16" height="16" fill="none"/>
    </clipPath>
  </defs>
  <g id="Group_446190" data-name="Group 446190" clip-path="url(#clip-path)">
    <path id="Path_749659" data-name="Path 749659" d="M15.854,7.927a7.927,7.927,0,1,0-9.842,7.694V10.349H4.377V7.927H6.012V6.883c0-2.7,1.221-3.949,3.87-3.949a8.74,8.74,0,0,1,1.723.2v2.2c-.187-.02-.512-.03-.916-.03-1.3,0-1.8.492-1.8,1.772v.857h2.589l-.445,2.422H8.887V15.8a7.928,7.928,0,0,0,6.967-7.869" transform="translate(0 0.145)" fill="#0866ff"/>
    <path id="Path_749660" data-name="Path 749660" d="M144.708,99.963l.445-2.422h-2.589v-.857c0-1.28.5-1.772,1.8-1.772.4,0,.729.01.916.03v-2.2a8.74,8.74,0,0,0-1.723-.2c-2.649,0-3.87,1.251-3.87,3.949v1.044h-1.635v2.422h1.635v5.271a7.972,7.972,0,0,0,2.875.175V99.963Z" transform="translate(-133.677 -89.468)" fill="#fff"/>
  </g>
</svg>
