<svg width="21" height="21" viewBox="0 0 21 21" fill="none" xmlns="http://www.w3.org/2000/svg">
<path d="M19.2212 9.90837C19.3514 10.2229 19.3514 10.5776 19.2212 10.8921C19.156 11.0492 19.0618 11.1912 18.9433 11.3098L12.9238 17.3292C12.4224 17.832 11.6073 17.832 11.1058 17.3292C10.6037 16.8278 10.6037 16.0127 11.1058 15.5113L14.9309 11.6862L2.43115 11.6862C1.72085 11.6862 1.14575 11.1098 1.14575 10.4001C1.14575 9.69047 1.72085 9.1141 2.43115 9.1141L14.931 9.1141L11.1059 5.28901C10.6038 4.78755 10.6038 3.9725 11.1059 3.47104C11.3566 3.21967 11.686 3.09399 12.0148 3.09399C12.3437 3.09399 12.6731 3.21967 12.9238 3.47104L18.9433 9.49052C19.0619 9.60907 19.1559 9.7511 19.2212 9.90837Z" fill="#242424"/>
</svg>
