<svg xmlns="http://www.w3.org/2000/svg" height="24" id="S_GlobeGrid_24_N" viewBox="0 0 24 24" width="24">
  <defs>
    <style>
      .fill {
        fill: #6E6E6E;
      }


    </style>
  </defs>
  <rect id="Canvas" fill="#ff13dc" opacity="0" width="24" height="24" /><path class="fill" d="M12,1.5A10.5,10.5,0,1,0,22.5,12,10.5,10.5,0,0,0,12,1.5ZM19.483,16h-2.9a12.5,12.5,0,0,0,.658-3.5h3.231A8.435,8.435,0,0,1,19.483,16ZM19.5,8a8.458,8.458,0,0,1,.976,3.5H17.244A12.412,12.412,0,0,0,16.6,8Zm-.636-1H16.206a12.6,12.6,0,0,0-1.931-3.1l-.1-.111A8.491,8.491,0,0,1,18.863,7ZM12.5,3.525c.049,0,.1,0,.147.008l.866,1.019A11.542,11.542,0,0,1,15.106,7H12.5ZM12.5,8h3.038a11.4,11.4,0,0,1,.7,3.5H12.5Zm3.742,4.5a11.5,11.5,0,0,1-.711,3.5H12.5V12.5Zm-8.484,0H11.5V16H8.469A11.5,11.5,0,0,1,7.758,12.5Zm0-1a11.43,11.43,0,0,1,.7-3.5H11.5v3.5Zm3.6-7.967c.049,0,.1,0,.147-.008V7H8.894a11.542,11.542,0,0,1,1.593-2.448Zm-1.533.26-.1.111A12.6,12.6,0,0,0,7.794,7H5.137A8.491,8.491,0,0,1,9.82,3.793ZM4.5,8h2.9a12.412,12.412,0,0,0-.649,3.5H3.525A8.458,8.458,0,0,1,4.5,8Zm2.255,4.5A12.5,12.5,0,0,0,7.414,16h-2.9a8.435,8.435,0,0,1-.992-3.5ZM5.143,17H7.8a12.481,12.481,0,0,0,1.924,3.1l.1.111A8.493,8.493,0,0,1,5.143,17Zm6.21,3.467-.866-1.019A11.493,11.493,0,0,1,8.891,17H11.5v3.475C11.451,20.472,11.4,20.471,11.353,20.467Zm1.294,0c-.049,0-.1.005-.147.008V17h2.609a11.493,11.493,0,0,1-1.6,2.448Zm1.533-.26.1-.111A12.481,12.481,0,0,0,16.2,17h2.658A8.493,8.493,0,0,1,14.18,20.207Z" />
  </svg>
