<svg width="22" height="21" viewBox="0 0 22 21" fill="none" xmlns="http://www.w3.org/2000/svg">
<path d="M3.74042 17.5798H6.89882V8.09381H3.74042V17.5798ZM7.10342 5.16581C7.1052 4.9467 7.06252 4.72952 6.97795 4.52738C6.89339 4.32525 6.76869 4.14237 6.61142 3.98981C6.4412 3.83145 6.24103 3.70874 6.02269 3.62888C5.80435 3.54902 5.57224 3.51364 5.34002 3.52481C4.86516 3.50481 4.40139 3.67176 4.04822 3.98981C3.88565 4.13865 3.75695 4.32067 3.67083 4.52356C3.5847 4.72645 3.54316 4.94547 3.54902 5.16581C3.54378 5.38373 3.58426 5.60033 3.66787 5.80164C3.75147 6.00296 3.87634 6.18451 4.03442 6.33461C4.20315 6.49408 4.40208 6.61818 4.61951 6.69958C4.83693 6.78099 5.06845 6.81806 5.30042 6.80861H5.31422C5.55113 6.81945 5.78786 6.78337 6.01078 6.70244C6.23371 6.62151 6.43844 6.49732 6.61322 6.33701C6.77265 6.18756 6.89877 6.00616 6.98334 5.80466C7.06791 5.60315 7.10903 5.38608 7.10402 5.16761L7.10342 5.16581ZM15.102 17.5798H18.2604V12.1402C18.3446 10.9902 17.9878 9.8513 17.2626 8.95481C16.9262 8.5954 16.5162 8.31284 16.0606 8.12645C15.605 7.94005 15.1145 7.85422 14.6226 7.87481C14.0461 7.85724 13.4756 7.99681 12.9723 8.27859C12.469 8.56036 12.0518 8.97372 11.7654 9.47441H11.793V8.09441H8.63522C8.66242 8.69441 8.66242 11.8572 8.63522 17.5828H11.7936V12.277C11.7813 12.0182 11.8138 11.7592 11.8896 11.5114C12.025 11.194 12.2362 10.9146 12.5046 10.6978C12.7917 10.4702 13.1501 10.3516 13.5162 10.363C14.573 10.363 15.1016 11.0784 15.102 12.5092V17.5798ZM21.5004 3.93761V17.0626C21.4985 18.1062 21.0831 19.1066 20.3451 19.8445C19.6072 20.5825 18.6068 20.9979 17.5632 20.9998H4.43822C3.92019 21.0074 3.40608 20.9089 2.92759 20.7102C2.44909 20.5116 2.01635 20.2171 1.65602 19.8448C1.28365 19.4845 0.98901 19.0518 0.790264 18.5733C0.591518 18.0948 0.492877 17.5807 0.500419 17.0626V3.93761C0.492717 3.41948 0.591224 2.90526 0.789868 2.42665C0.988512 1.94805 1.28308 1.51521 1.65542 1.15481C2.01582 0.782473 2.44866 0.487902 2.92726 0.289258C3.40587 0.0906138 3.92009 -0.00789362 4.43822 -0.000191113H17.5632C18.0812 -0.00781135 18.5954 0.0907361 19.0738 0.289378C19.5523 0.488019 19.9851 0.782547 20.3454 1.15481C20.7178 1.51521 21.0123 1.94805 21.211 2.42665C21.4096 2.90526 21.5081 3.41948 21.5004 3.93761Z" fill="white"/>
</svg>
