<svg data-name="Action button" xmlns="http://www.w3.org/2000/svg" width="17.262" height="17.262" viewBox="0 0 17.262 17.262">
  <rect width="17.262" height="17.262" rx="4" fill="rgba(255,0,0,0)" />
  <g fill="inherit">
    <path fill="inherit" data-name="Path 425614" d="M13.106 8.471v4H4.155V4.155H8.79a.16.16 0 0 0 .16-.16v-.319a.16.16 0 0 0-.16-.16H3.836a.32.32 0 0 0-.32.32v8.95a.32.32 0 0 0 .32.32h9.59a.32.32 0 0 0 .32-.32V8.471a.16.16 0 0 0-.16-.16h-.32a.16.16 0 0 0-.16.16Z" />
    <path fill="inherit" data-name="Path 425615" d="m10.402 3.789 1.083 1.084-3.051 3.051a.16.16 0 0 0 0 .226l.677.678a.16.16 0 0 0 .226 0l3.051-3.052 1.081 1.084a.16.16 0 0 0 .274-.113V3.516h-3.228a.16.16 0 0 0-.113.273Z" />
  </g>
</svg>