<svg width="20" height="20" viewBox="0 0 20 20" fill="none" xmlns="http://www.w3.org/2000/svg">
<path d="M15.75 3H13.75V2C13.75 1.58594 13.4141 1.25 13 1.25C12.5859 1.25 12.25 1.58594 12.25 2V3H7.75V2C7.75 1.58594 7.41406 1.25 7 1.25C6.58594 1.25 6.25 1.58594 6.25 2V3H4.25C3.00928 3 2 4.00977 2 5.25V15.75C2 16.9902 3.00928 18 4.25 18H15.75C16.9907 18 18 16.9902 18 15.75V5.25C18 4.00977 16.9907 3 15.75 3ZM4.25 4.5H6.25V5C6.25 5.41406 6.58594 5.75 7 5.75C7.41406 5.75 7.75 5.41406 7.75 5V4.5H12.25V5C12.25 5.41406 12.5859 5.75 13 5.75C13.4141 5.75 13.75 5.41406 13.75 5V4.5H15.75C16.1636 4.5 16.5 4.83691 16.5 5.25V7H3.5V5.25C3.5 4.83691 3.83643 4.5 4.25 4.5ZM15.75 16.5H4.25C3.83643 16.5 3.5 16.1631 3.5 15.75V8.5H16.5V15.75C16.5 16.1631 16.1636 16.5 15.75 16.5Z" fill="white"/>
<path d="M7 11C7 10.4477 6.55228 10 6 10C5.44772 10 5 10.4477 5 11C5 11.5523 5.44772 12 6 12C6.55228 12 7 11.5523 7 11Z" fill="white"/>
<path d="M11 11C11 10.4477 10.5523 10 10 10C9.44772 10 9 10.4477 9 11C9 11.5523 9.44772 12 10 12C10.5523 12 11 11.5523 11 11Z" fill="white"/>
<path d="M15 11C15 10.4477 14.5523 10 14 10C13.4477 10 13 10.4477 13 11C13 11.5523 13.4477 12 14 12C14.5523 12 15 11.5523 15 11Z" fill="white"/>
<path d="M7 14C7 13.4477 6.55228 13 6 13C5.44772 13 5 13.4477 5 14C5 14.5523 5.44772 15 6 15C6.55228 15 7 14.5523 7 14Z" fill="white"/>
<path d="M11 14C11 13.4477 10.5523 13 10 13C9.44772 13 9 13.4477 9 14C9 14.5523 9.44772 15 10 15C10.5523 15 11 14.5523 11 14Z" fill="white"/>
<path d="M15 14C15 13.4477 14.5523 13 14 13C13.4477 13 13 13.4477 13 14C13 14.5523 13.4477 15 14 15C14.5523 15 15 14.5523 15 14Z" fill="white"/>
</svg>
