<svg xmlns="http://www.w3.org/2000/svg" width="18" height="18">
    <path class="a" d="M16.75 3h-8.8a2.5 2.5 0 0 0-4.9 0h-1.8a.25.25 0 0 0-.25.25v.5a.25.25 0 0 0 .25.25h1.8a2.5 2.5 0 0 0 4.9 0h8.8a.25.25 0 0 0 .25-.25v-.5a.25.25 0 0 0-.25-.25ZM5.5 5A1.5 1.5 0 1 1 7 3.5 1.5 1.5 0 0 1 5.5 5ZM16.75 13h-6.8a2.5 2.5 0 0 0-4.9 0h-3.8a.25.25 0 0 0-.25.25v.5a.25.25 0 0 0 .25.25h3.8a2.5 2.5 0 0 0 4.9 0h6.8a.25.25 0 0 0 .25-.25v-.5a.25.25 0 0 0-.25-.25ZM7.5 15A1.5 1.5 0 1 1 9 13.5 1.5 1.5 0 0 1 7.5 15ZM1 8.25v.5a.25.25 0 0 0 .25.25h8.8a2.5 2.5 0 0 0 4.9 0h1.8a.25.25 0 0 0 .25-.25v-.5a.25.25 0 0 0-.25-.25h-1.8a2.5 2.5 0 0 0-4.9 0h-8.8a.25.25 0 0 0-.25.25Zm10 .25a1.5 1.5 0 1 1 1.5 1.5A1.5 1.5 0 0 1 11 8.5Z"/>
</svg>