<svg width="20" height="20" viewBox="0 0 20 20" fill="none" xmlns="http://www.w3.org/2000/svg">
<path d="M19.2833 18.1167L13.6917 12.5251C14.758 11.2036 15.4 9.52603 15.4 7.7C15.4 3.45468 11.9453 0 7.7 0C3.45468 0 0 3.45467 0 7.69999C0 11.9453 3.45468 15.4 7.7 15.4C9.52603 15.4 11.2036 14.758 12.5251 13.6917L18.1167 19.2833C18.2778 19.4444 18.4884 19.525 18.7 19.525C18.9116 19.525 19.1222 19.4444 19.2833 19.2833C19.6056 18.961 19.6056 18.439 19.2833 18.1167ZM7.7 13.75C4.36455 13.75 1.65 11.0354 1.65 7.69999C1.65 4.36454 4.36455 1.64999 7.7 1.64999C11.0355 1.64999 13.75 4.36454 13.75 7.69999C13.75 11.0354 11.0355 13.75 7.7 13.75Z" fill="#717171"/>
</svg>
