<svg xmlns="http://www.w3.org/2000/svg" width="10.794" height="10.833" viewBox="0 0 10.794 10.833">
  <path id="Path_425534" data-name="Path 425534" d="M11.478,11.833a.336.336,0,0,0,.339-.333q0-.012,0-.023C11.592,9.045,9.1,8.216,8.339,8.15c-.557-.048-.565-.5-.565-1.056A5.09,5.09,0,0,0,8.968,4.061C8.968,2.224,7.924,1,6.42,1S3.872,2.224,3.872,4.061A5.09,5.09,0,0,0,5.067,7.094c0,.559-.009,1.008-.566,1.056-.762.068-3.253.895-3.477,3.327a.336.336,0,0,0,.315.356H11.478Z" transform="translate(-1.023 -1)" fill="#505050"/>
</svg>
