<svg id="Decorative_icon" data-name="Decorative icon" xmlns="http://www.w3.org/2000/svg" width="16" height="16" viewBox="0 0 16 16">
  <g id="Placement_Area" data-name="Placement Area" fill="red" stroke="rgba(0,0,0,0)" stroke-width="1" opacity="0">
    <rect width="16" height="16" stroke="none"/>
    <rect x="0.5" y="0.5" width="15" height="15" fill="none"/>
  </g>
  <g id="Icon">
    <g id="Canvas" fill="#464646" stroke="#464646" stroke-width="1" opacity="0">
      <rect width="16" height="16" stroke="none"/>
      <rect x="0.5" y="0.5" width="15" height="15" fill="none"/>
    </g>
    <path id="Path_185180" data-name="Path 185180" d="M10.887,4.141A6.882,6.882,0,0,0,8,3.468C4.218,3.468,1.125,7,1.125,8.147c0,1.229,3.255,4.383,6.847,4.383,3.623,0,6.9-3.156,6.9-4.383C14.875,7.181,13.036,5.14,10.887,4.141ZM8,11.778A3.909,3.909,0,0,1,3.973,8,3.909,3.909,0,0,1,8,4.221,3.909,3.909,0,0,1,12.027,8,3.909,3.909,0,0,1,8,11.778Z" fill="#464646"/>
    <path id="Path_185181" data-name="Path 185181" d="M10.333,9.042A1.334,1.334,0,0,1,9,7.708a1.316,1.316,0,0,1,.675-1.135A2.47,2.47,0,0,0,9,6.469,2.531,2.531,0,1,0,11.531,9h0a2.357,2.357,0,0,0-.087-.6A1.312,1.312,0,0,1,10.333,9.042Z" transform="translate(-1 -1)" fill="#464646"/>
  </g>
</svg>
