<svg width="40" height="40" viewBox="0 0 40 40" fill="none" xmlns="http://www.w3.org/2000/svg">
<rect width="40" height="40" rx="20" fill="#EB1000"/>
<path d="M29.0362 8.60672L20.0009 17.642L10.9657 8.60672C10.8625 8.50355 10.74 8.4217 10.6052 8.36586C10.4704 8.31002 10.3259 8.28128 10.18 8.28128C10.0341 8.28128 9.88959 8.31002 9.75478 8.36586C9.61998 8.4217 9.49749 8.50355 9.39431 8.60672L8.60864 9.39232C8.50547 9.4955 8.42362 9.61799 8.36778 9.7528C8.31194 9.8876 8.2832 10.0321 8.2832 10.178C8.2832 10.3239 8.31194 10.4684 8.36778 10.6032C8.42362 10.738 8.50547 10.8605 8.60864 10.9637L17.6439 19.999L8.60864 29.0342C8.50547 29.1374 8.42362 29.2599 8.36778 29.3947C8.31194 29.5295 8.2832 29.674 8.2832 29.8199C8.2832 29.9658 8.31194 30.1103 8.36778 30.2451C8.42362 30.3799 8.50547 30.5024 8.60864 30.6056L9.39431 31.3913C9.49749 31.4944 9.61998 31.5763 9.75478 31.6321C9.88959 31.688 10.0341 31.7167 10.18 31.7167C10.3259 31.7167 10.4704 31.688 10.6052 31.6321C10.74 31.5763 10.8625 31.4944 10.9657 31.3913L20.0009 22.356L29.0362 31.3913C29.1393 31.4944 29.2618 31.5763 29.3966 31.6321C29.5314 31.688 29.6759 31.7167 29.8218 31.7167C29.9677 31.7167 30.1122 31.688 30.247 31.6321C30.3818 31.5763 30.5043 31.4944 30.6075 31.3913L31.3932 30.6056C31.4964 30.5024 31.5782 30.3799 31.634 30.2451C31.6899 30.1103 31.7186 29.9658 31.7186 29.8199C31.7186 29.674 31.6899 29.5295 31.634 29.3947C31.5782 29.2599 31.4964 29.1374 31.3932 29.0342L22.3579 19.999L31.3932 10.9637C31.4964 10.8606 31.5782 10.7381 31.634 10.6033C31.6899 10.4685 31.7186 10.324 31.7186 10.1781C31.7186 10.0322 31.6899 9.88767 31.634 9.75286C31.5782 9.61806 31.4964 9.49557 31.3932 9.39239L30.6076 8.60672C30.5044 8.50354 30.3819 8.42168 30.2471 8.36584C30.1123 8.30999 29.9678 8.28125 29.8219 8.28125C29.6759 8.28125 29.5315 8.30999 29.3966 8.36584C29.2618 8.42168 29.1393 8.50354 29.0362 8.60672Z" fill="white"/>
<path d="M29.0362 8.60672L20.0009 17.642L10.9657 8.60672C10.8625 8.50355 10.74 8.4217 10.6052 8.36586C10.4704 8.31002 10.3259 8.28128 10.18 8.28128C10.0341 8.28128 9.88959 8.31002 9.75478 8.36586C9.61998 8.4217 9.49749 8.50355 9.39431 8.60672L8.60864 9.39232C8.50547 9.4955 8.42362 9.61799 8.36778 9.7528C8.31194 9.8876 8.2832 10.0321 8.2832 10.178C8.2832 10.3239 8.31194 10.4684 8.36778 10.6032C8.42362 10.738 8.50547 10.8605 8.60864 10.9637L17.6439 19.999L8.60864 29.0342C8.50547 29.1374 8.42362 29.2599 8.36778 29.3947C8.31194 29.5295 8.2832 29.674 8.2832 29.8199C8.2832 29.9658 8.31194 30.1103 8.36778 30.2451C8.42362 30.3799 8.50547 30.5024 8.60864 30.6056L9.39431 31.3913C9.49749 31.4944 9.61998 31.5763 9.75478 31.6321C9.88959 31.688 10.0341 31.7167 10.18 31.7167C10.3259 31.7167 10.4704 31.688 10.6052 31.6321C10.74 31.5763 10.8625 31.4944 10.9657 31.3913L20.0009 22.356L29.0362 31.3913C29.1393 31.4944 29.2618 31.5763 29.3966 31.6321C29.5314 31.688 29.6759 31.7167 29.8218 31.7167C29.9677 31.7167 30.1122 31.688 30.247 31.6321C30.3818 31.5763 30.5043 31.4944 30.6075 31.3913L31.3932 30.6056C31.4964 30.5024 31.5782 30.3799 31.634 30.2451C31.6899 30.1103 31.7186 29.9658 31.7186 29.8199C31.7186 29.674 31.6899 29.5295 31.634 29.3947C31.5782 29.2599 31.4964 29.1374 31.3932 29.0342L22.3579 19.999L31.3932 10.9637C31.4964 10.8606 31.5782 10.7381 31.634 10.6033C31.6899 10.4685 31.7186 10.324 31.7186 10.1781C31.7186 10.0322 31.6899 9.88767 31.634 9.75286C31.5782 9.61806 31.4964 9.49557 31.3932 9.39239L30.6076 8.60672C30.5044 8.50354 30.3819 8.42168 30.2471 8.36584C30.1123 8.30999 29.9678 8.28125 29.8219 8.28125C29.6759 8.28125 29.5315 8.30999 29.3966 8.36584C29.2618 8.42168 29.1393 8.50354 29.0362 8.60672Z" fill="white"/>
</svg>
