<svg xmlns="http://www.w3.org/2000/svg" width="42" height="42" viewBox="0 0 42 42">
  <path d="M7.465 0.525h27.087c4.052 0 7.465 3.265 7.465 7.465v26.037c0 4.052 -3.265 7.465 -7.465 7.465H7.465c-4.069 -0.016 -7.465 -3.281 -7.465 -7.465V7.973C0 3.79 3.265 0.525 7.465 0.525" style="fill:#b30b00"/>
  <path d="M33.502 24.199c-1.969 -2.1 -7.334 -1.181 -8.63 -1.05 -1.837 -1.837 -3.134 -3.921 -3.659 -4.709 0.656 -1.969 1.181 -4.184 1.181 -6.284 0 -1.969 -0.787 -3.921 -2.871 -3.921 -0.787 0 -1.444 0.394 -1.837 1.05 -0.919 1.575 -0.525 4.709 0.919 7.973 -0.787 2.363 -2.1 5.89 -3.659 8.63 -2.1 0.787 -6.677 2.871 -7.071 5.234 -0.131 0.656 0.131 1.444 0.656 1.837 0.525 0.525 1.181 0.656 1.837 0.656 2.74 0 5.496 -3.79 7.465 -7.202 1.575 -0.525 4.052 -1.313 6.546 -1.706 2.871 2.625 5.496 3.002 6.809 3.002 1.837 0 2.494 -0.787 2.74 -1.444 0.345 -0.623 0.098 -1.542 -0.427 -2.067m-1.837 1.313c-0.131 0.525 -0.787 1.05 -1.969 0.787 -1.444 -0.394 -2.74 -1.05 -3.79 -1.969 0.919 -0.131 3.134 -0.394 4.709 -0.131 0.525 0.131 1.181 0.525 1.05 1.313m-12.698 -15.701c0.131 -0.263 0.394 -0.394 0.656 -0.394 0.656 0 0.787 0.787 0.787 1.444 -0.131 1.575 -0.394 3.265 -0.919 4.709 -1.05 -2.871 -0.919 -4.971 -0.525 -5.759m-0.131 14.782c0.656 -1.181 1.444 -3.396 1.706 -4.184 0.656 1.181 1.837 2.494 2.363 3.134 0.131 -0.115 -2.231 0.394 -4.069 1.05m-4.446 3.019C12.567 30.483 10.861 32.32 9.811 32.32c-0.131 0 -0.394 0 -0.525 -0.131 -0.131 -0.263 -0.263 -0.525 -0.131 -0.787 0.131 -1.05 2.231 -2.494 5.234 -3.79" style="fill:#fff"/>
</svg>
