<svg xmlns="http://www.w3.org/2000/svg" width="256" height="256" style="enable-background:new 0 0 256 256" xml:space="preserve"><path d="M45.5 3.2h165.1c24.7 0 45.5 19.9 45.5 45.5v158.7c0 24.7-19.9 45.5-45.5 45.5H45.5c-24.8-.1-45.5-20-45.5-45.5V48.6C0 23.1 19.9 3.2 45.5 3.2z" style="fill:#b30b00"/><path d="M204.2 147.5c-12-12.8-44.7-7.2-52.6-6.4-11.2-11.2-19.1-23.9-22.3-28.7 4-12 7.2-25.5 7.2-38.3 0-12-4.8-23.9-17.5-23.9-4.8 0-8.8 2.4-11.2 6.4-5.6 9.6-3.2 28.7 5.6 48.6-4.8 14.4-12.8 35.9-22.3 52.6-12.8 4.8-40.7 17.5-43.1 31.9-.8 4 .8 8.8 4 11.2 3.2 3.2 7.2 4 11.2 4 16.7 0 33.5-23.1 45.5-43.9 9.6-3.2 24.7-8 39.9-10.4 17.5 16 33.5 18.3 41.5 18.3 11.2 0 15.2-4.8 16.7-8.8 2.1-3.8.6-9.4-2.6-12.6zm-11.2 8c-.8 3.2-4.8 6.4-12 4.8-8.8-2.4-16.7-6.4-23.1-12 5.6-.8 19.1-2.4 28.7-.8 3.2.8 7.2 3.2 6.4 8zm-77.4-95.7c.8-1.6 2.4-2.4 4-2.4 4 0 4.8 4.8 4.8 8.8-.8 9.6-2.4 19.9-5.6 28.7-6.4-17.5-5.6-30.3-3.2-35.1zm-.8 90.1c4-7.2 8.8-20.7 10.4-25.5 4 7.2 11.2 15.2 14.4 19.1.8-.7-13.6 2.4-24.8 6.4zm-27.1 18.4C76.6 185.8 66.2 197 59.8 197c-.8 0-2.4 0-3.2-.8-.8-1.6-1.6-3.2-.8-4.8.8-6.4 13.6-15.2 31.9-23.1z" style="fill:#fff"/></svg>