<svg xmlns="http://www.w3.org/2000/svg" width="42" height="40.949" data-name="3_Logo_Sign" viewBox="0 0 42 40.949"><defs><clipPath id="a"><path fill="none" d="M0 0h42v40.949H0z" data-name="Rectangle 216774"/></clipPath></defs><g clip-path="url(#a)" data-name="Group 295384"><path fill="#584ccc" d="M7.438 0h27.124A7.437 7.437 0 0 1 42 7.438v26.074a7.437 7.437 0 0 1 -7.438 7.437H7.438A7.437 7.437 0 0 1 0 33.512V7.438A7.437 7.437 0 0 1 7.438 0" data-name="Path 596526"/><path fill="#fff" d="M33.632 23.709c-1.966 -2.09 -7.404 -1.24 -8.68 -1.028a22.176 22.176 0 0 1 -3.632 -4.783 21.28 21.28 0 0 0 1.24 -6.272c0 -1.914 -0.762 -3.968 -2.887 -3.968a2.156 2.156 0 0 0 -1.789 1.046c-0.903 1.558 -0.549 4.782 0.903 8.041 -0.85 2.391 -2.072 5.845 -3.684 8.644 -2.178 0.867 -6.802 2.993 -7.245 5.349a1.988 1.988 0 0 0 0.638 1.878 2.688 2.688 0 0 0 1.878 0.672c2.781 0 5.561 -3.864 7.439 -7.174a47.04 47.04 0 0 1 6.625 -1.736c2.941 2.569 5.562 2.958 6.888 2.958 1.807 0 2.48 -0.78 2.728 -1.435a2.212 2.212 0 0 0 -0.424 -2.196m-1.914 1.344c-0.088 0.514 -0.744 1.028 -1.966 0.762a9.856 9.856 0 0 1 -3.861 -1.948 16.072 16.072 0 0 1 4.764 -0.071c0.567 0.107 1.222 0.426 1.064 1.258M19.037 9.379a0.711 0.711 0 0 1 0.62 -0.392c0.672 0 0.814 0.815 0.814 1.488a20.72 20.72 0 0 1 -0.886 4.73c-1.133 -3.011 -0.974 -5.101 -0.549 -5.828m-0.159 14.719a44.24 44.24 0 0 0 1.753 -4.216 22.4 22.4 0 0 0 2.408 3.153 39.76 39.76 0 0 0 -4.162 1.064m-4.445 3.05c-1.789 2.869 -3.543 4.676 -4.57 4.676a0.728 0.728 0 0 1 -0.461 -0.159 0.661 0.661 0 0 1 -0.23 -0.655c0.195 -1.028 2.232 -2.516 5.261 -3.864" data-name="Path 596527"/></g></svg>