<svg xmlns="http://www.w3.org/2000/svg" viewBox="0 0 240 234"><rect width="240" height="234" rx="42.5" style="fill:#584ccc"/><path d="M192.977 135.474c-4.767-5.119-13.888-7.718-27.106-7.718a143.084 143.084 0 0 0-21.892 1.9 108.3 108.3 0 0 1-12.613-14.718 134.194 134.194 0 0 1-7.892-12.261c4.656-14.653 7.015-26.548 7.015-35.366 0-10.826-4.289-22.4-16.327-22.4a12.111 12.111 0 0 0-10.077 5.947c-5.135 8.818-3.078 26.963 5.118 45.427-2.854 8.483-5.963 16.742-9.774 25.894a231.774 231.774 0 0 1-11.05 22.945C76.1 150.063 50 162.054 47.513 175.3a11.239 11.239 0 0 0 3.571 10.556 15.559 15.559 0 0 0 10.635 3.794c15.722 0 31.4-21.765 41.951-40.5 6-2.042 12.118-3.891 18.209-5.5 6.681-1.769 13.139-3.22 19.23-4.3 16.646 14.526 31.443 16.727 38.857 16.727 10.189 0 14-4.418 15.387-8.132a12.459 12.459 0 0 0-2.376-12.471zm-10.842 7.637c-.558 2.886-3.54 4.752-7.622 4.752a14.45 14.45 0 0 1-3.444-.431c-7.494-1.786-14.669-5.405-21.828-11.05a108.479 108.479 0 0 1 16.152-1.243 57.988 57.988 0 0 1 10.763.829c3.236.669 6.888 2.455 5.979 7.143zm-71.593-88.493a4.145 4.145 0 0 1 3.476-2.249c3.811 0 4.64 4.592 4.64 8.435.032 6.123-1.817 15.881-4.99 26.676-6.394-16.934-5.501-28.797-3.126-32.862zm22.339 77.093a269.577 269.577 0 0 0-13.314 3.157c-3.252.861-6.553 1.8-9.854 2.806a189.852 189.852 0 0 0 4.768-10.523c1.85-4.466 3.587-8.93 5.182-13.3q2.1 3.3 4.337 6.395a127.446 127.446 0 0 0 9.235 11.381zM84.52 154.879c-10.061 16.2-19.962 26.436-25.75 26.436a3.628 3.628 0 0 1-2.583-.925 3.775 3.775 0 0 1-1.324-3.7c1.1-5.803 12.565-14.174 29.657-21.811z" style="fill:#fff"/></svg>