<svg xmlns="http://www.w3.org/2000/svg" width="42" height="42"><defs><style>.cls-1{fill:#fff}</style></defs><g id="_42px_Circle" data-name="42px@Circle"><circle id="Ellipse_10213-20" data-name="Ellipse 10213-20" cx="21" cy="21" r="21" fill="#505050"/></g><g id="_24px_Icons" data-name="24px@Icons"><path class="cls-1" transform="rotate(-180 21 15.5)" d="M20 15h2v1h-2z"/><path class="cls-1" d="M29.857 11h-6.714A1.143 1.143 0 0022 12.143V15h3.092a1.5 1.5 0 110 1H22v2.857A1.143 1.143 0 0023.143 20h6.714A1.143 1.143 0 0031 18.857v-6.714A1.143 1.143 0 0029.857 11zM16 16.908V20h2.857A1.143 1.143 0 0020 18.857V16h-3.092a1.5 1.5 0 01-.908.908z"/><path class="cls-1" d="M18.857 11h-6.714A1.143 1.143 0 0011 12.143v6.714A1.143 1.143 0 0012.143 20H15v-3.092A1.5 1.5 0 1116.908 15H20v-2.857A1.143 1.143 0 0018.857 11zM16 26v-6h-1v6a1 1 0 001 1h6v-1zM29.857 22h-6.714A1.143 1.143 0 0022 23.143V26h3.092a1.5 1.5 0 110 1H22v2.857A1.143 1.143 0 0023.143 31h6.714A1.143 1.143 0 0031 29.857v-6.714A1.143 1.143 0 0029.857 22z"/></g></svg>