<svg xmlns="http://www.w3.org/2000/svg" width="42" height="42"><defs><style>.cls-1{fill:#fff}</style></defs><g id="_42px_Circle" data-name="42px@Circle"><circle id="Ellipse_10213-6" data-name="Ellipse 10213-6" cx="21" cy="21" r="21" fill="#7cc33f"/></g><g id="_24px_Icons" data-name="24px@Icons"><circle class="cls-1" cx="23.25" cy="15.75" r="1.25"/><path class="cls-1" d="M20 20v11a1 1 0 001 1h10a1 1 0 001-1V20a1 1 0 00-1-1H21a1 1 0 00-1 1zm3 1.75a.25.25 0 01-.25.25h-1.5a.25.25 0 01-.25-.25v-1.5a.25.25 0 01.25-.25h1.5a.25.25 0 01.25.25zm0 3a.25.25 0 01-.25.25h-1.5a.25.25 0 01-.25-.25v-1.5a.25.25 0 01.25-.25h1.5a.25.25 0 01.25.25zm0 3a.25.25 0 01-.25.25h-1.5a.25.25 0 01-.25-.25v-1.5a.25.25 0 01.25-.25h1.5a.25.25 0 01.25.25zm0 3a.25.25 0 01-.25.25h-1.5a.25.25 0 01-.25-.25v-1.5a.25.25 0 01.25-.25h1.5a.25.25 0 01.25.25zm8-9a.25.25 0 01-.25.25h-1.5a.25.25 0 01-.25-.25v-1.5a.25.25 0 01.25-.25h1.5a.25.25 0 01.25.25zm0 3a.25.25 0 01-.25.25h-1.5a.25.25 0 01-.25-.25v-1.5a.25.25 0 01.25-.25h1.5a.25.25 0 01.25.25zm0 3a.25.25 0 01-.25.25h-1.5a.25.25 0 01-.25-.25v-1.5a.25.25 0 01.25-.25h1.5a.25.25 0 01.25.25zm0 3a.25.25 0 01-.25.25h-1.5a.25.25 0 01-.25-.25v-1.5a.25.25 0 01.25-.25h1.5a.25.25 0 01.25.25zM28.75 26h-5.5a.25.25 0 01-.25-.25v-.5a.25.25 0 01.25-.25h5.5a.25.25 0 01.25.25v.5a.25.25 0 01-.25.25z"/><path class="cls-1" d="M27 11H11a1 1 0 00-1 1v12a1 1 0 001 1h7v-5a2.982 2.982 0 01.513-1.676L16.8 16.615a1 1 0 00-1.414 0L12 20.005V13h14v4h2v-5a1 1 0 00-1-1z"/><path class="cls-1" d="M20 20v11a1 1 0 001 1h10a1 1 0 001-1V20a1 1 0 00-1-1H21a1 1 0 00-1 1zm3 1.75a.25.25 0 01-.25.25h-1.5a.25.25 0 01-.25-.25v-1.5a.25.25 0 01.25-.25h1.5a.25.25 0 01.25.25zm0 3a.25.25 0 01-.25.25h-1.5a.25.25 0 01-.25-.25v-1.5a.25.25 0 01.25-.25h1.5a.25.25 0 01.25.25zm0 3a.25.25 0 01-.25.25h-1.5a.25.25 0 01-.25-.25v-1.5a.25.25 0 01.25-.25h1.5a.25.25 0 01.25.25zm0 3a.25.25 0 01-.25.25h-1.5a.25.25 0 01-.25-.25v-1.5a.25.25 0 01.25-.25h1.5a.25.25 0 01.25.25zm8-9a.25.25 0 01-.25.25h-1.5a.25.25 0 01-.25-.25v-1.5a.25.25 0 01.25-.25h1.5a.25.25 0 01.25.25zm0 3a.25.25 0 01-.25.25h-1.5a.25.25 0 01-.25-.25v-1.5a.25.25 0 01.25-.25h1.5a.25.25 0 01.25.25zm0 3a.25.25 0 01-.25.25h-1.5a.25.25 0 01-.25-.25v-1.5a.25.25 0 01.25-.25h1.5a.25.25 0 01.25.25zm0 3a.25.25 0 01-.25.25h-1.5a.25.25 0 01-.25-.25v-1.5a.25.25 0 01.25-.25h1.5a.25.25 0 01.25.25zM28.75 26h-5.5a.25.25 0 01-.25-.25v-.5a.25.25 0 01.25-.25h5.5a.25.25 0 01.25.25v.5a.25.25 0 01-.25.25z"/></g></svg>