<svg xmlns="http://www.w3.org/2000/svg" width="42" height="42"><defs><style>.cls-1{fill:#fff}</style></defs><g id="_42px_Circle" data-name="42px@Circle"><circle id="Ellipse_10213-21" data-name="Ellipse 10213-21" cx="21" cy="21" r="21" fill="#5c5ce0"/></g><g id="_24px_Icons" data-name="24px@Icons"><path class="cls-1" d="M25.148 12.077l-3.672-1.988a1 1 0 00-.952 0l-9.154 4.958a.515.515 0 000 .906l3.456 1.872zM32.657 30.963l-3.392-3.392a5.048 5.048 0 10-1.7 1.7l3.395 3.389a1.529 1.529 0 001.7 0 1.222 1.222 0 00-.003-1.697zM21.9 25a3.1 3.1 0 113.1 3.1 3.1 3.1 0 01-3.1-3.1zM25 18a6.98 6.98 0 011.533.174l4.1-2.221a.515.515 0 000-.906l-3.4-1.841-10.324 5.748 2.774 1.5A6.983 6.983 0 0125 18zM31 21.418V18l-2.122 1.179A7.05 7.05 0 0131 21.418zM18 25a6.963 6.963 0 01.583-2.789L11 18v8.412a1 1 0 00.514.874L20 32v-2.107A6.975 6.975 0 0118 25z"/></g></svg>