<svg xmlns="http://www.w3.org/2000/svg" xmlns:xlink="http://www.w3.org/1999/xlink" width="360" height="60" viewBox="0 0 360 60">
  <defs>
    <clipPath id="clip-path">
      <rect id="Rectangle_189223" data-name="Rectangle 189223" width="360" height="60" transform="translate(1080 64)" fill="#fafafa"/>
    </clipPath>
    <clipPath id="clip-path-2">
      <rect id="Rectangle_189222" data-name="Rectangle 189222" width="480" height="109" transform="translate(67.416)" fill="#fff" stroke="#909090" stroke-width="1"/>
    </clipPath>
  </defs>
  <g id="Hero" transform="translate(-1080 -64)" clip-path="url(#clip-path)">
    <g id="Courses-MarqueeLeft" transform="translate(1228.584 64)" clip-path="url(#clip-path-2)">
      <ellipse id="Ellipse_20380" data-name="Ellipse 20380" cx="14" cy="13.5" rx="14" ry="13.5" transform="translate(143.416 32)" fill="#46a8f7"/>
      <circle id="Ellipse_20381" data-name="Ellipse 20381" cx="6" cy="6" r="6" transform="translate(176.416 45)" fill="#f68d2e"/>
      <path id="Path_425671" data-name="Path 425671" d="M0,19.619C2.577,79.273,18.815,124.093,51.6,150.387c27.629,22.156,53.886,15.427,79.643,41.292,38.62,38.781,11.71,92.041,92.734,119.646s192.354,31.1,275.788-41.918,100.083-200.96,15-244.64c-23.316-11.97-44.1-5.763-73.784-2.288C374.158,30.3,291.166-2.67,267.682.175Q140.979,15.515,3.432,16.188" transform="translate(-1.917 -108.601) rotate(-20)" fill="#eb1000" fill-rule="evenodd"/>
    </g>
  </g>
</svg>
