<svg xmlns="http://www.w3.org/2000/svg" width="1440" height="195"><defs><clipPath id="a"><path data-name="Rectangle 182967" transform="translate(0 66)" fill="#fafafa" d="M0 0h1440v195H0z"/></clipPath><clipPath id="b"><path data-name="Rectangle 175437" transform="translate(67)" fill="#fff" stroke="#909090" d="M0 0h840v190H0z"/></clipPath></defs><g clip-path="url(#a)" transform="translate(0 -66)"><g transform="translate(1086 64)" clip-path="url(#b)"><circle data-name="Ellipse 10393" cx="24" cy="24" r="24" transform="translate(201 56)" fill="#46a8f7"/><circle data-name="Ellipse 10394" cx="10.5" cy="10.5" r="10.5" transform="translate(259 78)" fill="#f68d2e"/><path data-name="Path 163326" d="M-41.767-157.652C-1.86-61.183 51.625 2.749 121.223 26.343c58.644 19.882 97.762-6.877 155.55 20.218 86.645 40.624 74.282 144.225 223.916 141.127S835.335 123.762 928.751-46.11 973.014-436.147 807.1-457.035c-45.468-5.724-75.908 16.905-122.598 40.366C579.38-363.85 423.3-368.396 386.415-349.68Q187.412-248.703-38.18-165.342" fill="#eb1000" fill-rule="evenodd"/></g></g></svg>