<svg xmlns="http://www.w3.org/2000/svg" xmlns:xlink="http://www.w3.org/1999/xlink" width="1440" height="195" viewBox="0 0 1440 195">
  <defs>
    <clipPath id="clip-path">
      <rect id="Rectangle_182967" data-name="Rectangle 182967" width="1440" height="195" transform="translate(0 66)" fill="#fafafa"/>
    </clipPath>
    <clipPath id="clip-path-2">
      <rect id="Rectangle_175437" data-name="Rectangle 175437" width="840" height="190" transform="translate(67)" fill="#fff" stroke="#909090" stroke-width="1"/>
    </clipPath>
  </defs>
  <g id="Marquee" transform="translate(0 -66)">
    <g id="Hero" clip-path="url(#clip-path)">
      <g id="Courses-MarqueeLeft" transform="translate(1086 64)" clip-path="url(#clip-path-2)">
        <circle id="Ellipse_10393" data-name="Ellipse 10393" cx="24" cy="24" r="24" transform="translate(201 56)" fill="#46a8f7"/>
        <circle id="Ellipse_10394" data-name="Ellipse 10394" cx="10.5" cy="10.5" r="10.5" transform="translate(259 78)" fill="#f68d2e"/>
        <path id="Path_163326" data-name="Path 163326" d="M17.689,36.432c4.506,104.3,32.9,182.67,90.23,228.645,48.308,38.74,94.219,26.974,139.255,72.2,67.526,67.808,20.474,160.933,162.144,209.2s336.328,54.384,482.21-73.293,174.994-351.376,26.23-427.75c-40.768-20.93-77.112-10.077-129.01-4C671.9,55.114,526.788-2.54,485.726,2.433q-221.538,26.823-462.036,28" transform="translate(-70.85 -185.837) rotate(-20)" fill="#eb1000" fill-rule="evenodd"/>
      </g>
    </g>
  </g>
</svg>
