<svg xmlns="http://www.w3.org/2000/svg" width="42" height="42"><g data-name="42px@Circle"><circle data-name="Ellipse 10213-11" cx="21" cy="21" r="21" fill="#000b1d"/></g><g data-name="24px@Icons"><path data-name="256" d="M31.024 30h-4.3a.94.94 0 0 1-.881-.569l-4.67-10.915a.206.206 0 0 0-.394 0l-2.909 6.93a.247.247 0 0 0 .227.343h3.2a.493.493 0 0 1 .454.3l1.4 3.116a.575.575 0 0 1-.529.8H10.978a.531.531 0 0 1-.485-.74l7.407-17.64a1 1 0 0 1 .94-.625h4.27a1 1 0 0 1 .94.625l7.457 17.635a.531.531 0 0 1-.483.74z" fill="#fa0f00"/></g></svg>