<?xml version="1.0" encoding="UTF-8"?>
<svg xmlns="http://www.w3.org/2000/svg" width="42" height="42" viewBox="0 0 42 42">
  <g id="c" data-name="42px@Circle">
    <circle id="d" data-name="Ellipse 10213-5" cx="21" cy="21" r="21" fill="#3da64e"/>
  </g>
  <g id="f" data-name="24px@Icons">
    <path d="m32.85436,17.49011l-1.75067-6.1275c-.06134-.21465-.25754-.36262-.48078-.36261H11.37719c-.22324-.00001-.41944.14796-.48078.36261l-1.75067,6.1275c-.06069.21241.06231.43381.27472.4945.03573.01021.0727.01539.10986.01539h22.93946c.22091-.00002.39999-.17912.39997-.40003,0-.03716-.00518-.07413-.01539-.10986Zm-20.35431-.49011h-2l1.5-5h2l-1.5,5Zm4.75,0h-2l.75-5h2l-.75,5Zm4.75,0h-2v-5h2v5Zm2.75,0l-.75-5h2l.75,5h-2Zm4.75,0l-1.5-5h2l1.5,5h-2Zm1.5,2v11c0,.55228-.44772,1-1,1h-12v-12h2v6h9v-6h2Zm-18,12h-1c-.55228,0-1-.44772-1-1v-11h2v12Z" fill="#fff"/>
  </g>
</svg>