<svg xmlns="http://www.w3.org/2000/svg" width="42" height="42"><defs><style>.cls-1{fill:#fff}</style></defs><g id="_42px_Circle" data-name="42px@Circle"><circle id="Ellipse_10213-2" data-name="Ellipse 10213-2" cx="21" cy="21" r="21" fill="#d83790"/></g><g id="_24px_Icons" data-name="24px@Icons"><rect class="cls-1" x="14" y="15" width="10" height="2" rx=".25"/><path class="cls-1" d="M26 19a7 7 0 107 7 7 7 0 00-7-7zm3.8 10.217a4.1 4.1 0 00-2.036-.711.481.481 0 01-.417-.483v-.7a.484.484 0 01.123-.311 3.686 3.686 0 00.838-2.3c0-1.74-.923-2.712-2.317-2.712s-2.343 1.01-2.343 2.712a3.727 3.727 0 00.878 2.3.479.479 0 01.123.311v.7a.478.478 0 01-.418.483 4.022 4.022 0 00-2.05.688 5 5 0 117.619.028z"/><path class="cls-1" d="M12 27V13h14v4.1a8.906 8.906 0 012 .234V12a1 1 0 00-1-1H11a1 1 0 00-1 1v16a1 1 0 001 1h6.632a8.759 8.759 0 01-.472-2z"/><path class="cls-1" d="M14.5 19a.5.5 0 00-.5.5v5a.5.5 0 00.5.5h2.66a8.877 8.877 0 012.831-5.546A.5.5 0 0019.5 19z"/></g></svg>