<?xml version="1.0" encoding="utf-8"?>
<!-- Generator: Adobe Illustrator 24.0.1, SVG Export Plug-In . SVG Version: 6.00 Build 0)  -->
<svg version="1.1" id="Layer_1" xmlns="http://www.w3.org/2000/svg" xmlns:xlink="http://www.w3.org/1999/xlink" x="0px" y="0px"
	 viewBox="0 0 240 234" style="enable-background:new 0 0 240 234;" xml:space="preserve">
<style type="text/css">
	.st0{fill:#FA0F00;}
	.st1{fill:#FFFFFF;}
</style>
<title>Asset 89</title>
<g id="Layer_2_1_">
	<g id="DC_EC_Logo_Surface">
		<g id="Outline_no_shadow">
			<path class="st0" d="M42.5,0h155C221,0,240,19,240,42.5v149c0,23.5-19,42.5-42.5,42.5h-155C19,234,0,215,0,191.5v-149
				C0,19,19,0,42.5,0z"/>
		</g>
	</g>
</g>
<g id="Layer_3">
	<g id="Layer_86_2_">
		<path id="_64_1_" class="st1" d="M193,135.5c-11.1-11.8-41.8-7-49-5.8c-10.6-10.3-18-22.5-20.5-27c4-11.4,6.6-23.5,7-35.4
			c0-10.8-4.3-22.4-16.3-22.4c-4.2,0.1-8,2.4-10.1,5.9c-5.1,8.8-3.1,27,5.1,45.4c-4.8,13.5-11.7,33-20.8,48.8
			c-12.3,4.9-38.4,16.9-40.9,30.2c-0.8,3.9,0.6,7.9,3.6,10.6c2.9,2.6,6.7,3.9,10.6,3.8c15.7,0,31.4-21.8,42-40.5
			c8.9-3.1,23.1-7.2,37.4-9.8c16.6,14.5,31.4,16.7,38.9,16.7c10.2,0,14-4.4,15.4-8.1C196.9,143.7,196,138.9,193,135.5z M182.2,143.1
			c-0.5,2.9-4.2,5.8-11.1,4.3c-8-2-15.5-5.8-21.8-11c5.4-0.9,18-2.1,26.9-0.4C179.4,136.6,183.1,138.4,182.2,143.1z M110.6,54.6
			c0.7-1.3,2-2.2,3.5-2.2c3.8,0,4.6,4.6,4.6,8.4c-0.5,9.1-2.5,18.4-5,26.7C107.3,70.5,108.2,58.7,110.6,54.6z M109.7,137.7
			c3.4-6.7,8.2-18.9,9.9-23.8c3.8,6.3,10.2,14.2,13.6,17.8C133.3,131.6,120.2,134.3,109.7,137.7z M84.6,154.9
			c-10.1,16.2-20,26.4-25.8,26.4c-0.9,0-1.9-0.3-2.6-0.9c-1.1-0.9-1.6-2.3-1.3-3.7C56,170.9,67.5,162.5,84.6,154.9z"/>
	</g>
</g>
</svg>
