<svg xmlns="http://www.w3.org/2000/svg" width="42" height="42"><circle data-name="Ellipse 10213-4" cx="21" cy="21" r="21" style="fill:#d83790"/><path d="M31 11H20a2 2 0 0 0-2 2v4h-7a2 2 0 0 0-2 2v7a2 2 0 0 0 2 2h1v4.396a.25.25 0 0 0 .25.25.243.243 0 0 0 .175-.074L17 28h5a2 2 0 0 0 2-2v-4h1l4.575 4.573a.243.243 0 0 0 .175.074.25.25 0 0 0 .25-.25V22h1a2 2 0 0 0 2-2v-7a2 2 0 0 0-2-2zM12.5 23.75a1.25 1.25 0 1 1 1.25-1.25 1.25 1.25 0 0 1-1.25 1.25zm4 0a1.25 1.25 0 1 1 1.25-1.25 1.25 1.25 0 0 1-1.25 1.25zm4 0a1.25 1.25 0 1 1 1.25-1.25 1.25 1.25 0 0 1-1.25 1.25zm10.5-4a.25.25 0 0 1-.25.25H28.7a.5.5 0 0 0-.5.5v2.3l-2.333-2.504a1 1 0 0 0-.711-.296H24v-1a2 2 0 0 0-2-2h-2v-3.75a.25.25 0 0 1 .25-.25h10.5a.25.25 0 0 1 .25.25z" style="fill:#fff"/></svg>