<svg xmlns="http://www.w3.org/2000/svg" width="42" height="42" viewBox="0 0 42 42">
  <defs>
    <style>
      .magenta400 {
        fill: #d83790;
      }
      .cls-1 {
        fill: #fff;
      }
    </style>
  </defs>
    <circle id="Ellipse_10213-4" data-name="Ellipse 10213-4" class="magenta400" cx="21" cy="21" r="21"/>
    <path class="cls-1" d="M31,11H20a2,2,0,0,0-2,2v4H11a2,2,0,0,0-2,2v7a2.00006,2.00006,0,0,0,2,2h1v4.39648a.25.25,0,0,0,.25.25.2429.2429,0,0,0,.175-.074L17,28h5a2,2,0,0,0,2-2V22h1l4.575,4.57251a.24311.24311,0,0,0,.175.074.25.25,0,0,0,.25-.25V22h1a2,2,0,0,0,2-2V13A2,2,0,0,0,31,11ZM12.5,23.75a1.25,1.25,0,1,1,1.25-1.25A1.25006,1.25006,0,0,1,12.5,23.75Zm4,0a1.25,1.25,0,1,1,1.25-1.25A1.25006,1.25006,0,0,1,16.5,23.75Zm4,0a1.25,1.25,0,1,1,1.25-1.25A1.25006,1.25006,0,0,1,20.5,23.75Zm10.5-4a.25.25,0,0,1-.25.25H28.7a.5.5,0,0,0-.5.5v2.3l-2.33349-2.50354A.99979.99979,0,0,0,25.15552,20H24V19a2,2,0,0,0-2-2H20V13.25a.25.25,0,0,1,.25-.25h10.5a.25.25,0,0,1,.25.25Z"/>
</svg>
