<svg xmlns="http://www.w3.org/2000/svg" height="18" width="18"><defs><style>.a{fill:#6e6e6e}</style></defs><path class="a" d="M4.587 6.782a.75.75 0 0 1-.275-1.45A39.582 39.582 0 0 1 9.055 3.8a30.324 30.324 0 0 1 4.295-.665.75.75 0 0 1 .096 1.497 29.54 29.54 0 0 0-4.06.631 38.742 38.742 0 0 0-4.521 1.466.75.75 0 0 1-.278.053zM4.746 3.703a.75.75 0 0 1-.276-1.45A38.819 38.819 0 0 1 9.056.8c.4-.09.783-.168 1.146-.236a.75.75 0 0 1 .277 1.474c-.346.066-.714.14-1.095.226A37.927 37.927 0 0 0 5.022 3.65a.75.75 0 0 1-.276.053zM6.75 16.5v.44a.75.75 0 0 0 .22.53l.31.31a.75.75 0 0 0 .53.22h2.38a.75.75 0 0 0 .53-.22l.31-.31a.75.75 0 0 0 .22-.53v-.44a.75.75 0 0 0 .75-.75v-.972a.75.75 0 0 0-.75-.75h-4.5a.75.75 0 0 0-.75.75v.972a.762.762 0 0 0 .75.75zM4.85 9.677a.75.75 0 0 1-.276-1.45A36.304 36.304 0 0 1 9.055 6.8a30.324 30.324 0 0 1 4.295-.665.75.75 0 0 1 .096 1.497 29.538 29.538 0 0 0-4.06.631 35.52 35.52 0 0 0-4.257 1.36.743.743 0 0 1-.279.054zM6.75 10.875V13h1.5v-2.125a1.85 1.85 0 0 0-.207-.84c-.536.17-1.06.35-1.5.509a.373.373 0 0 1 .207.331zM13.227 9h-1.6a1.877 1.877 0 0 0-1.875 1.875V13h1.5v-2.125a.376.376 0 0 1 .375-.375h1.6a.75.75 0 0 0 0-1.5z"/></svg>