<svg xmlns="http://www.w3.org/2000/svg" width="42" height="42"><g id="_42px_Circle" data-name="42px@Circle"><circle id="Ellipse_10213-15" data-name="Ellipse 10213-15" cx="21" cy="21" r="21" fill="#d83790"/></g><g id="_24px_Icons" data-name="24px@Icons"><path fill="#fff" d="M20 29.335a2 2 0 0 1 .033-.252L17.863 28H11v-.606l7.213-5.246 1.2.876 6.242-1.862-.259-.189L31 16.9v2.666l.311-.092a2 2 0 0 1 .617-.1h.111A1.95 1.95 0 0 1 33 19.7V13a1 1 0 0 0-1-1H10a1 1 0 0 0-1 1v16a1 1 0 0 0 1 1h10zM11 14h20v.553L21.03 21.8a.05.05 0 0 1-.059 0L11 14.553zm0 2.9 5.6 4.071-5.6 4.074z"/><path fill="#fff" d="m31.927 21.379-13.77 4.108a.22.22 0 0 0-.035.407l3.478 1.734zm-8.818 6.983L28.345 31a.44.44 0 0 0 .59-.2L33 21.928zM22 29.336v3.351a.313.313 0 0 0 .515.238l2.351-1.981z"/></g></svg>