<svg xmlns="http://www.w3.org/2000/svg" width="42" height="42"><defs><style>.cls-1{fill:#fff}</style></defs><g id="_42px_Circle" data-name="42px@Circle"><circle id="Ellipse_10213-14" data-name="Ellipse 10213-14" cx="21" cy="21" r="21" fill="#5c5ce0"/></g><g id="_24px_Icons" data-name="24px@Icons"><path class="cls-1" d="M32.4 26.012h-.9a.148.148 0 01-.142-.113 4.444 4.444 0 00-.5-1.2.147.147 0 01.022-.18l.637-.635a.6.6 0 000-.848l-.551-.552a.6.6 0 00-.848 0l-.636.636a.145.145 0 01-.18.021 4.441 4.441 0 00-1.2-.5.146.146 0 01-.112-.142v-.9a.6.6 0 00-.6-.6h-.78a.6.6 0 00-.6.6v.9a.147.147 0 01-.113.141 4.476 4.476 0 00-1.2.5.145.145 0 01-.18-.021l-.638-.634a.6.6 0 00-.848 0l-.55.554a.6.6 0 000 .849l.635.633a.147.147 0 01.022.18 4.444 4.444 0 00-.5 1.2.148.148 0 01-.142.113h-.9a.6.6 0 00-.6.6v.779a.6.6 0 00.6.6h.9a.149.149 0 01.142.112 4.428 4.428 0 00.5 1.2.145.145 0 01-.021.18l-.637.634a.6.6 0 000 .849l.551.551a.6.6 0 00.849 0l.636-.636a.145.145 0 01.18-.021 4.462 4.462 0 001.2.5.147.147 0 01.112.141v.9a.6.6 0 00.6.6h.78a.6.6 0 00.6-.6v-.9a.145.145 0 01.112-.141 4.462 4.462 0 001.2-.5.145.145 0 01.18.021l.636.636a.6.6 0 00.848 0l.551-.551a.6.6 0 000-.849l-.636-.636a.147.147 0 01-.021-.18 4.465 4.465 0 00.5-1.2.144.144 0 01.141-.111h.9a.6.6 0 00.6-.6v-.78a.6.6 0 00-.599-.6zM27 29.251A2.25 2.25 0 1129.25 27 2.25 2.25 0 0127 29.251zM32.878 29.435l.005.012c0-.007.008-.011.011-.018z"/><path class="cls-1" d="M21.12 29.436A2.1 2.1 0 0119.6 28H11v-.606l7.213-5.246 1.64 1.193a1.942 1.942 0 00.993.35 2.067 2.067 0 01.576-1.714l.544-.549a2.1 2.1 0 012.6-.3A2.1 2.1 0 0126.61 19.5H27.423L31 16.9v3.983a2.049 2.049 0 011.027.538l.552.553a2.076 2.076 0 01.421.613V13a1 1 0 00-1-1H10a1 1 0 00-1 1v16a1 1 0 001 1h10.882a2.062 2.062 0 01.238-.564zM11 14h20v.553L21.03 21.8a.051.051 0 01-.059 0L11 14.553zm0 2.9l5.6 4.071-5.6 4.074z"/></g></svg>