<?xml version="1.0" encoding="UTF-8"?>
<svg xmlns="http://www.w3.org/2000/svg" width="42" height="42" viewBox="0 0 42 42">
  <g id="f" data-name="42px@Circle">
    <circle id="g" data-name="Ellipse 10213" cx="21" cy="21" r="21" fill="#16868b"/>
  </g>
  <g id="k" data-name="24px@Canvas">
    <rect id="l" data-name="S_EmailSendOutline_24_N" x="9" y="8" width="24" height="24" fill="#fff" opacity="0"/>
  </g>
  <g id="m" data-name="24px@Icons">
    <path d="M25.3418,8.87744h-.00049c-1.19531-1.19531-3.14014-1.19531-4.33643,0-1.01056,1.01135-1.15613,2.55566-.45624,3.73254l-3.50195,3.50177-.3371,.80017,1.07336,.46075c.02814,.01208,.05096,.03235,.07849,.04541l3.7478-3.74762c.48132,.28625,1.02057,.43939,1.56409,.43939,.78516,0,1.5708-.29883,2.16846-.89648,1.19434-1.19531,1.19434-3.14062,0-4.33594Zm-1.41455,2.92188c-.41602,.41504-1.09229,.41504-1.50732,0-.41553-.41553-.41553-1.09229-.00049-1.50732,.20801-.20801,.48096-.31201,.75391-.31201s.5459,.104,.75391,.31152c.41504,.41553,.41504,1.09229,0,1.50781Z" fill="#fff"/>
    <path d="M28.7373,16.9082c-1.4303,0-2.62524,.98889-2.96216,2.31592h-6.57288c.07928,.51642-.00018,1.04272-.2428,1.5h6.81567c.33691,1.32703,1.53186,2.31592,2.96216,2.31592,1.69043,0,3.06592-1.37549,3.06592-3.06592s-1.37549-3.06592-3.06592-3.06592Zm0,4.13184c-.58789,0-1.06592-.47803-1.06592-1.06592s.47803-1.06592,1.06592-1.06592,1.06592,.47803,1.06592,1.06592-.47803,1.06592-1.06592,1.06592Z" fill="#fff"/>
    <path d="M17.72045,19.74683c.00711-.05496,.00353-.10954,.00076-.16475-.00183-.12975-.0282-.24955-.08127-.36791,0-.00006-.00006-.00013-.00006-.00019h0c-.09204-.20511-.2357-.38937-.4653-.4879l-.47846-.20542h0l-.71013-.30483-1.33074-.57125,1.78155-4.22892c.24124-.57169-.50634-1.03875-.9141-.57169l-5.2795,6.03565c-.42167,.4816-.24974,1.2346,.33775,1.48705l2.51932,1.0815-1.78074,4.22879c-.24137,.57175,.50553,1.03888,.91398,.57175l3.26326-3.73076h0l.46511-.53178,1.07155-1.22503h0l.47959-.54834c.08958-.10262,.14007-.21789,.17413-.33611,.01404-.04394,.02594-.08493,.0333-.12988Z" fill="#fff"/>
    <path d="M25.3418,26.76758c-.59766-.59766-1.3833-.89648-2.16846-.89648-.54352,0-1.08276,.15314-1.56409,.43939l-3.99188-3.99164-.98962,1.13147,3.9209,3.92065c-.69989,1.17688-.55432,2.72119,.45624,3.73254,1.19629,1.19531,3.14111,1.19531,4.33643,0h.00049c1.19434-1.19531,1.19434-3.14062,0-4.33594Zm-1.41455,2.92188c-.20801,.20752-.48096,.31152-.75391,.31152s-.5459-.104-.75391-.31201c-.41504-.41504-.41504-1.0918,.00049-1.50732,.41504-.41504,1.09131-.41504,1.50732,0,.41504,.41553,.41504,1.09229,0,1.50781Z" fill="#fff"/>
  </g>
</svg>