<svg xmlns="http://www.w3.org/2000/svg" width="42" height="42"><defs><style>.cls-1{fill:#fff}</style></defs><g id="_42px_Circle" data-name="42px@Circle"><circle id="Ellipse_10213-17" data-name="Ellipse 10213-17" cx="21" cy="21" r="21" fill="#5c5ce0"/></g><g id="_24px_Icons" data-name="24px@Icons"><path class="cls-1" d="M28.846 20.525l1.411-1.71c.053-.064.089-.135.136-.2a9.874 9.874 0 01-.312 7.568.5.5 0 01-.8.128l-.765-.765a.494.494 0 01-.1-.539 7.846 7.846 0 00.43-4.482zm-3.73-5.333A7.733 7.733 0 0022.1 14.1a8.01 8.01 0 00-9.1 7.922 7.926 7.926 0 00.588 2.983.492.492 0 01-.1.539l-.764.765a.5.5 0 01-.8-.128 9.9 9.9 0 01-.787-5.783 10 10 0 0115.555-6.6zM28.811 15.442a.841.841 0 01.088 1.141l-6.564 8.662a1.851 1.851 0 01-2.6.3 1.2 1.2 0 01-.108-.093 1.851 1.851 0 01-.1-2.617c.032-.035.066-.068.1-.1l8.042-7.295a.843.843 0 011.142.002z"/></g></svg>