<svg xmlns="http://www.w3.org/2000/svg" width="42" height="42" viewBox="0 0 42 42" x="1320" y="928"><g data-name="42px@Circle"><circle data-name="Ellipse 10213-5" cx="21" cy="21" r="21" fill="#d7378f"/></g><g data-name="I C O N S" fill="#fff"><path d="M15 25c0-1.592.794-2.996 2-3.858V19h4v1.418c.373.101.73.244 1.063.43.358-2.123 2.229-3.761 4.504-3.845A4.7 4.7 0 0 1 28 15.82V9.9a.9.9 0 0 0-.9-.9H10.9a.9.9 0 0 0-.9.9v16.2a.9.9 0 0 0 .9.9h4.557A4.7 4.7 0 0 1 15 25Zm8-14h3v2h-3v-2Zm0 4h3v2h-3v-2Zm-6-4h4v2h-4v-2Zm0 4h4v2h-4v-2Zm-5-4h3v2h-3v-2Zm0 4h3v2h-3v-2Zm0 4h3v2h-3v-2Z"/><path d="M30.25 27.25A2.749 2.749 0 0 0 27.695 29h-.945c-.406 0-.75-.27-.75-.59v-6.82c0-.32.344-.59.75-.59h.945a2.749 2.749 0 0 0 2.555 1.75c1.517 0 2.75-1.233 2.75-2.75s-1.233-2.75-2.75-2.75A2.749 2.749 0 0 0 27.695 19h-.945C25.233 19 24 20.162 24 21.59V24h-1.695a2.749 2.749 0 0 0-2.555-1.75C18.233 22.25 17 23.483 17 25s1.233 2.75 2.75 2.75A2.749 2.749 0 0 0 22.305 26H24v2.41c0 1.428 1.233 2.59 2.75 2.59h.945a2.749 2.749 0 0 0 2.555 1.75c1.517 0 2.75-1.233 2.75-2.75s-1.233-2.75-2.75-2.75Zm0-8c.413 0 .75.337.75.75s-.337.75-.75.75-.75-.337-.75-.75.337-.75.75-.75Zm-10.5 6.5c-.413 0-.75-.337-.75-.75s.337-.75.75-.75.75.337.75.75-.337.75-.75.75Zm10.5 5c-.413 0-.75-.337-.75-.75s.337-.75.75-.75.75.337.75.75-.337.75-.75.75Z"/></g></svg>