<svg xmlns="http://www.w3.org/2000/svg" width="42" height="42"><defs><style>.cls-1{fill:#fff}</style></defs><g id="_42px_Circle" data-name="42px@Circle"><circle id="Ellipse_10213-18" data-name="Ellipse 10213-18" cx="21" cy="21" r="21" fill="#16878c"/></g><g id="_24px_Icons" data-name="24px@Icons"><path id="Fill" class="cls-1" d="M31.376 10.231a21.22 21.22 0 00-15.518 13.208.319.319 0 00.076.332l2.293 2.293a.319.319 0 00.331.077 21.039 21.039 0 0013.209-15.519.332.332 0 00-.391-.391z"/><path id="Fill2" class="cls-1" d="M14.765 21.7h-4.216a.321.321 0 01-.281-.479c.967-1.684 4.572-7.239 10.028-7.239-1.266 1.268-5.43 6.755-5.531 7.718z"/><path id="Fill3" class="cls-1" d="M20.3 27.232v4.221a.321.321 0 00.476.283c1.682-.95 7.241-4.508 7.241-10.034-1.27 1.266-6.757 5.43-7.717 5.53z"/></g></svg>