<svg xmlns="http://www.w3.org/2000/svg" width="42" height="42"><defs><style>.cls-2{fill:#fff}</style></defs><g id="_42px_Circle" data-name="42px@Circle"><circle id="Ellipse_10213-3" data-name="Ellipse 10213-3" cx="21" cy="21" r="21" fill="#16878c"/></g><g id="_24px_Icons" data-name="24px@Icons"><path class="cls-2" d="M19 27a8.009 8.009 0 015.089-7.444 6.583 6.583 0 00.411-2.017 7.5 7.5 0 00-15 0c0 4.142 7.5 13.594 7.5 13.594s.922-1.167 2.114-2.845A7.918 7.918 0 0119 27zm-4.906-9.461A2.906 2.906 0 1117 20.445a2.906 2.906 0 01-2.906-2.906z"/><path class="cls-2" d="M27 21a6 6 0 106 6 6 6 0 00-6-6zm2.56 6.469l-3.718 4.25a.384.384 0 01-.643-.4l1.254-2.977-1.774-.762a.664.664 0 01-.238-1.047l3.717-4.249a.384.384 0 01.644.4l-1.255 2.978 1.774.761a.665.665 0 01.239 1.046z"/></g></svg>