<svg xmlns="http://www.w3.org/2000/svg" width="42" height="42" viewBox="0 0 42 42">
  <defs>
    <style>
      .magenta400 {
        fill: #d83790;
      }

      .cls-1 {
        fill: #fff;
      }
    </style>
  </defs>
    <circle id="Ellipse_10213-4" data-name="Ellipse 10213-4" class="magenta400" cx="21" cy="21" r="21"/>
    <polygon class="cls-1" points="27 27.526 33 24 21 24 27 27.526"/>
    <path class="cls-1" d="M26.329,28.916,21,25.76807V31.444a.55609.55609,0,0,0,.556.556H32.444A.556.556,0,0,0,33,31.444v-5.6759L27.671,28.916A1.1413,1.1413,0,0,1,26.329,28.916Z"/>
    <path class="cls-1" d="M26.11914,21.97758a.4738.4738,0,0,0,.21332-.1333.49983.49983,0,0,0,.11865-.46655l-2.74-10.61206a.47582.47582,0,0,0-.328-.34009.45444.45444,0,0,0-.45062.12,21.66024,21.66024,0,0,1-9.90271,5.8534.29716.29716,0,0,0-.1933.356l1.35064,5.22937a.28134.28134,0,0,0,.33869.208,21.118,21.118,0,0,1,11.35864-.21472A.466.466,0,0,0,26.11914,21.97758Z"/>
    <path class="cls-1" d="M11.332,17.00317a3.01893,3.01893,0,0,0-2.33185,2.99512,3.12579,3.12579,0,0,0,.0669.61084c.01074.05127.02282.10242.03619.15308a2.85361,2.85361,0,0,0,3.45447,2.153q.12909-.03242.25482-.077a.31138.31138,0,0,0,.17706-.36657l-1.33136-5.2428A.29317.29317,0,0,0,11.332,17.00317Z"/>
    <path class="cls-1" d="M18.98169,26.02222c-.02667-.06958-1.85364-2.76795-1.85364-2.76795a.5992.5992,0,0,0-.61255-.24157l-1.0556.21752a.57951.57951,0,0,0-.41638.33228.53409.53409,0,0,0,.05066.51392l1.7536,2.66894a.5961.5961,0,0,0,.64056.23486l1.081-.27612a.55513.55513,0,0,0,.41638-.66565Z"/>
    <path class="cls-1" d="M27.39137,9.884a7.335,7.335,0,0,1,4.03711,8.52344,7.41184,7.41184,0,0,1-.81964,1.91675.6659.6659,0,0,0,.22852.91406.65831.65831,0,0,0,.34246.095.66649.66649,0,0,0,.57227-.32422,8.71675,8.71675,0,0,0,.96545-2.26294,8.66386,8.66386,0,0,0-4.77148-10.073A.666.666,0,1,0,27.39137,9.884Z"/>
    <path class="cls-1" d="M26.27734,12.35669a4.66145,4.66145,0,0,1,2.31122,2.32947,4.60983,4.60983,0,0,1,.25849,3.09509A4.68527,4.68527,0,0,1,28.308,18.9895a.66741.66741,0,0,0,.22852.91541A.65841.65841,0,0,0,28.87891,20a.66827.66827,0,0,0,.57226-.323,5.96311,5.96311,0,0,0-2.6178-8.53125.66625.66625,0,1,0-.556,1.21094Z"/>
</svg>
