<svg xmlns="http://www.w3.org/2000/svg" width="42" height="42"><defs><style>.cls-1{fill:#fff}</style></defs><g id="_42px_Circle" data-name="42px@Circle"><circle id="Ellipse_10213-4" data-name="Ellipse 10213-4" cx="21" cy="21" r="21" fill="#b130bd"/></g><g id="_24px_Icons" data-name="24px@Icons"><path class="cls-1" d="M20.73 18H19.5a.5.5 0 00-.5.5v13a.5.5 0 00.5.5h1.23a1 1 0 00.5-.136l11.033-6.433a.5.5 0 000-.862l-11.03-6.433A1 1 0 0020.73 18z"/><path class="cls-1" d="M12 13h18v8.248l2 1.166V12a1 1 0 00-1-1H11a1 1 0 00-1 1v14a1 1 0 001 1h6v-2h-5z"/></g></svg>