<svg xmlns="http://www.w3.org/2000/svg" width="42" height="42"><g data-name="42px@Circle"><circle data-name="Ellipse 10213-12" cx="21" cy="21" r="21" fill="#5c5ce0"/></g><path d="M31.848 19.844a1.469 1.469 0 00-1.091-.471 2.324 2.324 0 00-1.531.7c-.262.238-.595.731-1 1.208-1 1.178-1.375 1.529-1.588 1.622a.345.345 0 01-.3-.014 1.408 1.408 0 01-.7-.963 7.658 7.658 0 01-.151-1.617c0-.355-.122-8.09-.124-8.169a1.316 1.316 0 10-2.632 0v6.716a.364.364 0 01-.728 0v-7.8a1.317 1.317 0 10-2.633 0v7.922a.365.365 0 01-.729 0v-6.56a1.317 1.317 0 10-2.633 0V20.2a.364.364 0 01-.728 0v-3.983a1.093 1.093 0 00-2.185.007l-.007 2.063c-.008 2.2.012 2.86.012 4.134a19.139 19.139 0 00.177 2.642 17.043 17.043 0 00.867 3.74c.79 1.807 3.287 3.072 6.071 3.072 1.86 0 4.121-1.42 6.572-4.119a17.556 17.556 0 001.186-1.481l3.371-4.755c.513-.52.875-1.249.504-1.676z" fill="#fff" data-name="24px@Icons"/></svg>