<?xml version="1.0" encoding="utf-8"?>
<!-- Generator: Adobe Illustrator 27.9.0, SVG Export Plug-In . SVG Version: 6.00 Build 0)  -->
<svg version="1.1" id="Layer_1" xmlns="http://www.w3.org/2000/svg" xmlns:xlink="http://www.w3.org/1999/xlink" x="0px" y="0px"
	 viewBox="0 0 42 42" style="enable-background:new 0 0 42 42;" xml:space="preserve">
<g id="ak_42px_Circle">
	<circle id="akEllipse_10213-2" fill="#D83790" cx="21" cy="21" r="21"/>
</g>
<g id="ak_24px_Icons">
	<path fill="#fff" d="M14.2,15h9.5c0.1,0,0.2,0.1,0.2,0.2v1.5c0,0.1-0.1,0.2-0.2,0.2h-9.5c-0.1,0-0.2-0.1-0.2-0.2v-1.5
		C14,15.1,14.1,15,14.2,15z"/>
	<path fill="#fff" d="M26,19c-3.9,0-7,3.1-7,7s3.1,7,7,7s7-3.1,7-7S29.9,19,26,19z M29.8,29.2c-0.6-0.4-1.3-0.7-2-0.7
		c-0.2,0-0.4-0.2-0.4-0.5v-0.7c0-0.1,0-0.2,0.1-0.3c0.5-0.6,0.8-1.5,0.8-2.3c0-1.7-0.9-2.7-2.3-2.7s-2.3,1-2.3,2.7
		c0,0.8,0.3,1.7,0.9,2.3c0.1,0.1,0.1,0.2,0.1,0.3V28c0,0.2-0.2,0.5-0.4,0.5c-0.7,0-1.4,0.3-2,0.7c-1.8-2.1-1.5-5.3,0.6-7
		c2.1-1.8,5.3-1.5,7,0.6C31.4,24.6,31.4,27.4,29.8,29.2L29.8,29.2z"/>
	<path fill="#fff" d="M12,27V13h14v4.1c0.7,0,1.3,0.1,2,0.2V12c0-0.6-0.4-1-1-1H11c-0.6,0-1,0.4-1,1v16c0,0.6,0.4,1,1,1h6.6
		c-0.2-0.6-0.4-1.3-0.5-2H12z"/>
	<path fill="#fff" d="M14.5,19c-0.3,0-0.5,0.2-0.5,0.5v5c0,0.3,0.2,0.5,0.5,0.5h2.7c0.2-2.1,1.2-4.1,2.8-5.5c0-0.3-0.2-0.5-0.5-0.5
		H14.5z"/>
</g>
</svg>
