<svg xmlns="http://www.w3.org/2000/svg" width="42" height="42"><defs><style>.cls-1{fill:#fff}</style></defs><g id="_42px_Circle" data-name="42px@Circle"><circle id="Ellipse_10213-8" data-name="Ellipse 10213-8" cx="21" cy="21" r="21" fill="#3da74e"/></g><g id="_24px_Icons" data-name="24px@Icons"><path class="cls-1" d="M29.128 18.8a.576.576 0 01-.5-.581v-.834a.576.576 0 01.148-.373 4.418 4.418 0 001.007-2.76c0-2.089-1.109-3.256-2.786-3.256s-2.818 1.213-2.818 3.256a4.466 4.466 0 001.056 2.76.576.576 0 01.148.373v.751A9 9 0 0129.769 24H33v-1.7c0-.9-.5-3.2-3.872-3.5zM16.625 18.138v-.749a.576.576 0 01.148-.373 4.418 4.418 0 001.007-2.76c0-2.089-1.109-3.256-2.786-3.256s-2.818 1.213-2.818 3.256a4.466 4.466 0 001.056 2.76.576.576 0 01.148.373v.834a.575.575 0 01-.5.581C9.507 19.1 9 21.4 9 22.3V24h3.228a9.006 9.006 0 014.397-5.862zM21 19a7 7 0 107 7 7 7 0 00-7-7zm3.8 10.217a4.1 4.1 0 00-2.036-.711.481.481 0 01-.417-.483v-.7a.484.484 0 01.123-.311 3.686 3.686 0 00.838-2.3c0-1.74-.923-2.712-2.317-2.712s-2.343 1.01-2.343 2.712a3.727 3.727 0 00.878 2.3.479.479 0 01.123.311v.7a.478.478 0 01-.418.483 4.022 4.022 0 00-2.05.688 5 5 0 117.619.028z"/></g></svg>