<svg xmlns="http://www.w3.org/2000/svg" width="42" height="42"><defs><style>.cls-1{fill:#fff}</style></defs><circle id="Ellipse_10213-13" data-name="Ellipse 10213-13" cx="21" cy="21" r="21" fill="#864ccc"/><rect class="cls-1" x="12" y="22.5" width="2" height="6.5" rx=".5"/><rect class="cls-1" x="16" y="18.5" width="2" height="10.5" rx=".5"/><path class="cls-1" d="M13 20.25h-2a.75.75 0 010-1.5h1.663l3.776-4.25a.749.749 0 01.9-.173l3.408 1.7 3.633-5.449a.75.75 0 011.042-.2l.028.02 3.629 2.722 1.586-.793a.75.75 0 01.67 1.342l-2 1a.748.748 0 01-.785-.071l-3.365-2.524-3.561 5.34a.752.752 0 01-.959.255l-3.486-1.743L13.561 20a.755.755 0 01-.561.25zM27.872 26.559v-1.142a.666.666 0 01.171-.433 5.13 5.13 0 001.166-3.2c0-2.423-1.285-3.776-3.226-3.776s-3.262 1.406-3.262 3.776a5.181 5.181 0 001.222 3.2.674.674 0 01.171.434v1.137a.667.667 0 01-.582.674c-3.9.339-4.509 3.007-4.509 4.059 0 .117.013.577.022.692h13.913s.012-.575.012-.692c0-1.008-.689-3.667-4.518-4.055a.67.67 0 01-.58-.674zM30 18.087V16.5a.5.5 0 00-.5-.5h-1a.5.5 0 00-.5.5v.058a4.69 4.69 0 012 1.529z"/><path class="cls-1" d="M25.983 16.177H26V15.5a.5.5 0 00-.5-.5h-1a.5.5 0 00-.5.5v1.056a5.345 5.345 0 011.983-.379zM21.749 25.51a7.084 7.084 0 01-1.028-3.557 6.805 6.805 0 01.441-2.453H20.5a.5.5 0 00-.5.5v6.221a7.173 7.173 0 011.749-.711z"/></svg>