<svg xmlns="http://www.w3.org/2000/svg" width="42" height="42"><defs><style>.cls-1{fill:#fff}</style></defs><circle id="Ellipse_10213-5" data-name="Ellipse 10213-5" cx="21" cy="21" r="21" style="fill:#5c5ce0"/><path class="cls-1" d="M19.455 26.985a9.818 9.818 0 0 1 1.385-.5 7.489 7.489 0 0 1-.666-1.383h-.692a4.532 4.532 0 0 0-.663-1.61l.919-.918a7.2 7.2 0 0 1 .077-.955l-.558-.558a.448.448 0 0 0-.634 0l-1.117 1.118a4.532 4.532 0 0 0-1.61-.663v-1.57a.448.448 0 0 0-.448-.448h-.9a.448.448 0 0 0-.448.448v1.57a4.532 4.532 0 0 0-1.61.663l-1.117-1.118a.448.448 0 0 0-.634 0l-.68.68a.448.448 0 0 0 0 .634l1.118 1.117a4.532 4.532 0 0 0-.663 1.61H8.948a.448.448 0 0 0-.448.448v.9a.448.448 0 0 0 .448.448h1.57a4.532 4.532 0 0 0 .663 1.61l-1.118 1.117a.448.448 0 0 0 0 .634l.68.68a.448.448 0 0 0 .634 0l1.117-1.118a4.532 4.532 0 0 0 1.61.663v1.57a.448.448 0 0 0 .448.448h.9a.448.448 0 0 0 .448-.448v-1.57a4.284 4.284 0 0 0 .484-.147 5.892 5.892 0 0 1 3.071-3.352zM15 27.75A1.75 1.75 0 1 1 16.75 26 1.75 1.75 0 0 1 15 27.75zM17.384 14.758l1.741.709a5.437 5.437 0 0 0 .007 2.085l-1.744.733a.536.536 0 0 0-.287.7l.446 1.061a.537.537 0 0 0 .7.287L20 19.6c.1.14.217.259.325.389a5.031 5.031 0 0 1 1.926-2.217A2.6 2.6 0 1 1 27.1 16.5a2.586 2.586 0 0 1-.16.869A4.78 4.78 0 0 1 29.5 19.7l1.3.532a.536.536 0 0 0 .7-.293l.405-.994a.536.536 0 0 0-.294-.7l-1.741-.71a5.432 5.432 0 0 0-.007-2.084l1.745-.734a.537.537 0 0 0 .286-.7l-.446-1.06a.537.537 0 0 0-.7-.287l-1.745.734a5.438 5.438 0 0 0-1.484-1.463l.71-1.74a.537.537 0 0 0-.3-.7l-.994-.4a.537.537 0 0 0-.7.294l-.709 1.741a5.432 5.432 0 0 0-2.084.007l-.734-1.745a.537.537 0 0 0-.7-.286l-1.061.446a.538.538 0 0 0-.287.7l.734 1.744a5.452 5.452 0 0 0-1.462 1.485l-1.741-.71a.537.537 0 0 0-.7.294l-.405.994a.537.537 0 0 0 .298.693z"/><path class="cls-1" d="M26.872 27.559v-1.142a.668.668 0 0 1 .171-.433 5.13 5.13 0 0 0 1.166-3.2c0-2.422-1.285-3.776-3.226-3.776s-3.262 1.407-3.262 3.776a5.186 5.186 0 0 0 1.222 3.2.673.673 0 0 1 .171.433v1.138a.667.667 0 0 1-.582.673c-3.9.339-4.509 3.007-4.509 4.059 0 .117.013.577.022.692h13.913s.012-.575.012-.692c0-1.008-.689-3.666-4.518-4.055a.67.67 0 0 1-.58-.673z"/></svg>