<svg xmlns="http://www.w3.org/2000/svg" width="42" height="42"><g data-name="42px@Circle"><circle data-name="Ellipse 10213-21" cx="21" cy="21" r="21" fill="#5c5ce0"/></g><path d="m25.148 12.077-3.672-1.988a1 1 0 0 0-.952 0l-9.154 4.958a.515.515 0 0 0 0 .906l3.456 1.872zm7.509 18.886-3.392-3.392a5.048 5.048 0 1 0-1.7 1.7l3.395 3.389a1.529 1.529 0 0 0 1.7 0 1.222 1.222 0 0 0-.003-1.697zM21.9 25a3.1 3.1 0 1 1 3.1 3.1 3.1 3.1 0 0 1-3.1-3.1zm3.1-7a6.98 6.98 0 0 1 1.533.174l4.1-2.221a.515.515 0 0 0 0-.906l-3.4-1.841-10.324 5.748 2.774 1.5A6.983 6.983 0 0 1 25 18zm6 3.418V18l-2.122 1.179A7.05 7.05 0 0 1 31 21.418zM18 25a6.963 6.963 0 0 1 .583-2.789L11 18v8.412a1 1 0 0 0 .514.874L20 32v-2.107A6.975 6.975 0 0 1 18 25z" style="fill:#fff" data-name="24px@Icons"/></svg>