<svg xmlns="http://www.w3.org/2000/svg" width="42" height="42"><g data-name="42px@Circle"><circle data-name="Ellipse 10213-10" cx="21" cy="21" r="21" fill="#d83790"/></g><path d="M29.983 21.342c0-.115.017-.227.017-.342a9.01 9.01 0 00-5.611-8.333 3.487 3.487 0 00-6.778 0A9.008 9.008 0 0012 21c0 .115.013.227.017.342A3.492 3.492 0 0013.5 28a3.459 3.459 0 001.472-.336 8.946 8.946 0 0012.056 0A3.459 3.459 0 0028.5 28a3.492 3.492 0 001.483-6.658zM21 12a1.5 1.5 0 11-1.5 1.5A1.5 1.5 0 0121 12zm-7.5 14a1.5 1.5 0 111.5-1.5 1.5 1.5 0 01-1.5 1.5zm12.029.328a6.97 6.97 0 01-9.058 0A3.468 3.468 0 0014 21.051V21a7.005 7.005 0 013.757-6.2 3.491 3.491 0 006.486 0A7.005 7.005 0 0128 21v.051a3.468 3.468 0 00-2.468 5.277zM28.5 26a1.5 1.5 0 111.5-1.5 1.5 1.5 0 01-1.5 1.5z" fill="#fff" data-name="24px@Icons"/></svg>