<?xml version="1.0" encoding="UTF-8"?>
<svg id="Layer_1" xmlns="http://www.w3.org/2000/svg" version="1.1" viewBox="0 0 42 42">
  <!-- Generator: Adobe Illustrator 29.2.1, SVG Export Plug-In . SVG Version: 2.1.0 Build 116)  -->
  <defs>
    <style>
      .st0 {
        fill: #854ccb;
      }

      .st1 {
        fill: #fff;
      }
    </style>
  </defs>
  <g id="ba_42px_Circle">
    <circle id="baEllipse_10213-6" class="st0" cx="21" cy="21" r="21"/>
  </g>
  <g id="ba_18px_Icons">
    <path class="st1" d="M19.8,23h-5.8v-11h16v9.1c.8.4,1.4,1,2,1.6v-11.5c0-.7-.6-1.2-1.2-1.2H13.2c-.7,0-1.2.6-1.2,1.2v12.5c0,.7.6,1.2,1.2,1.2h5.3c.3-.7.7-1.4,1.2-2Z"/>
    <path class="st1" d="M26,22c-3.3,0-6,2.7-6,6s2.7,6,6,6,6-2.7,6-6-2.7-6-6-6ZM28.6,28.5l-3.7,4.2c-.3.3-.8,0-.6-.4l1.3-3-1.8-.8c-.3-.1-.5-.5-.3-.9,0,0,0-.1.1-.2l3.7-4.2c.3-.3.8,0,.6.4l-1.3,3,1.8.8c.3.1.5.5.3.9,0,0,0,.1-.1.2h0ZM18,28c0-.3,0-.7,0-1h-8.1v-14h-.8c-.7,0-1.2.6-1.2,1.2v13.5c0,.7.6,1.2,1.2,1.2h8.8c0-.3,0-.7,0-1ZM27.5,13c-.8,0-1.5.7-1.5,1.5s.1.7.4,1l-1,1.6c-.1,0-.2,0-.4,0-.3,0-.6,0-.8.2l-2.8-2.3c0-.2,0-.3,0-.5,0-.8-.7-1.5-1.5-1.5s-1.5.7-1.5,1.5.1.7.3.9l-2.1,3.6c0,0-.1,0-.2,0-.8,0-1.5.7-1.5,1.5s.7,1.5,1.5,1.5,1.5-.7,1.5-1.5c0-.4-.1-.7-.4-1l2.1-3.5c.4,0,.8,0,1.1-.2l2.8,2.3c0,.1,0,.3,0,.5,0,.8.7,1.5,1.5,1.5s1.5-.7,1.5-1.5c0-.3-.1-.6-.3-.9l1-1.6c.8.2,1.6-.4,1.8-1.2,0,0,0-.2,0-.3,0-.8-.7-1.5-1.5-1.5Z"/>
  </g>
</svg>