<svg xmlns="http://www.w3.org/2000/svg" xmlns:xlink="http://www.w3.org/1999/xlink" width="237" height="102" viewBox="0 0 237 102">
  <defs>
    <clipPath id="clip-path">
      <path id="Rectangle_182967" data-name="Rectangle 182967" d="M16,0H237a0,0,0,0,1,0,0V102a0,0,0,0,1,0,0H0a0,0,0,0,1,0,0V16A16,16,0,0,1,16,0Z" fill="#fafafa"/>
    </clipPath>
    <clipPath id="clip-path-2">
      <rect id="Rectangle_175437" data-name="Rectangle 175437" width="693" height="157" transform="translate(0.375)" fill="#fff" stroke="#707070" stroke-width="1"/>
    </clipPath>
    <filter id="Path_163326" x="-630.603" y="-468.52" width="996.901" height="788.632" filterUnits="userSpaceOnUse">
      <feOffset input="SourceAlpha"/>
      <feGaussianBlur stdDeviation="10" result="blur"/>
      <feFlood flood-color="#202020" flood-opacity="0.161"/>
      <feComposite operator="in" in2="blur"/>
      <feComposite in="SourceGraphic"/>
    </filter>
    <filter id="Ellipse_10394" x="76" y="13" width="77" height="77" filterUnits="userSpaceOnUse">
      <feOffset input="SourceAlpha"/>
      <feGaussianBlur stdDeviation="10" result="blur-2"/>
      <feFlood flood-color="#202020" flood-opacity="0.161"/>
      <feComposite operator="in" in2="blur-2"/>
      <feComposite in="SourceGraphic"/>
    </filter>
    <filter id="Ellipse_10393" x="8.5" y="-9.5" width="100" height="100" filterUnits="userSpaceOnUse">
      <feOffset input="SourceAlpha"/>
      <feGaussianBlur stdDeviation="10" result="blur-3"/>
      <feFlood flood-color="#202020" flood-opacity="0.161"/>
      <feComposite operator="in" in2="blur-3"/>
      <feComposite in="SourceGraphic"/>
    </filter>
  </defs>
  <g id="Hero" clip-path="url(#clip-path)">
    <g id="Courses-MarqueeLeft" transform="translate(-456.374)" clip-path="url(#clip-path-2)">
      <g transform="matrix(1, 0, 0, 1, 456.37, 0)" filter="url(#Path_163326)">
        <path id="Path_163326-2" data-name="Path 163326" d="M0,447.186c3.719-86.079,27.15-150.752,74.464-188.694,39.867-31.971,77.756-22.261,114.923-59.583C245.114,142.949,206.284,66.1,323.2,26.263S600.761-18.618,721.154,86.749,865.572,376.729,742.8,439.758c-33.645,17.273-63.638,8.316-106.468,3.3-96.433-11.292-216.189,36.288-250.076,32.184q-182.829-22.136-381.3-23.107" transform="translate(173.67 290.11) rotate(-160)" fill="#eb1000" fill-rule="evenodd"/>
      </g>
      <g transform="matrix(1, 0, 0, 1, 456.37, 0)" filter="url(#Ellipse_10394)">
        <circle id="Ellipse_10394-2" data-name="Ellipse 10394" cx="8.5" cy="8.5" r="8.5" transform="translate(106 43)" fill="#f68d2e"/>
      </g>
      <g transform="matrix(1, 0, 0, 1, 456.37, 0)" filter="url(#Ellipse_10393)">
        <circle id="Ellipse_10393-2" data-name="Ellipse 10393" cx="19.5" cy="19.5" r="19.5" transform="translate(39 21)" fill="#ffcd2e" stroke="rgba(0,0,0,0)" stroke-miterlimit="10" stroke-width="1"/>
      </g>
    </g>
  </g>
</svg>
