<svg xmlns="http://www.w3.org/2000/svg" width="42" height="42"><defs><style>.cls-1{fill:#fff}</style></defs><g id="_42px_Circle" data-name="42px@Circle"><circle id="Ellipse_10213-7" data-name="Ellipse 10213-7" cx="21" cy="21" r="21" fill="#5c5ce0"/></g><g id="_24px_Icons" data-name="24px@Icons"><path class="cls-1" d="M13 24h6v1h-6zM13 22h6v1h-6z"/><path class="cls-1" d="M26.107 21.75a3 3 0 100-1.5H22v-1.99l4.915-3.11A3 3 0 1026 13a2.944 2.944 0 00.142.864l-4.49 2.836-2.2-2.363a1.044 1.044 0 00-.76-.337H11.3a1.359 1.359 0 00-1.3 1.406v12.187A1.36 1.36 0 0011.3 29h9.409A1.359 1.359 0 0022 27.593v-2.065l4.141 2.61A2.964 2.964 0 0026 29a3.014 3.014 0 10.914-2.148L22 23.754v-2zM29 20a1 1 0 11-1 1 1 1 0 011-1zm0-8a1 1 0 11-1 1 1 1 0 011-1zM12 27V16h6.266L20 17.866V27zm17 1a1 1 0 11-1 1 1 1 0 011-1z"/></g></svg>