<svg xmlns="http://www.w3.org/2000/svg" width="42" height="42"><defs><style>.cls-1{fill:#fff}</style></defs><g id="_42px_Circle" data-name="42px@Circle"><circle id="Ellipse_10213-19" data-name="Ellipse 10213-19" cx="21" cy="21" r="21" fill="#5c5ce0"/></g><g id="_24px_Icons" data-name="24px@Icons"><path class="cls-1" d="M19 27a8.013 8.013 0 015.156-7.477 7.813 7.813 0 00.6-2.911c0-3.4-1.944-5.612-4.744-5.612s-4.744 2.212-4.744 5.612a9.4 9.4 0 002.225 5.614c0 1.035-.017 1.865-1.054 1.955-1.368.119-5.745 1.549-6.427 5.69A1 1 0 0011.024 31h9.05A7.949 7.949 0 0119 27z"/><path class="cls-1" d="M32.586 26.172h-1.449a4.181 4.181 0 00-.612-1.485l1.032-1.032a.415.415 0 000-.585l-.627-.627a.414.414 0 00-.586 0l-1.031 1.031a4.222 4.222 0 00-1.486-.612v-1.448a.413.413 0 00-.413-.414h-.828a.414.414 0 00-.414.414v1.449a4.181 4.181 0 00-1.485.612l-1.032-1.032a.413.413 0 00-.585 0l-.627.627a.413.413 0 000 .585l1.032 1.032a4.181 4.181 0 00-.612 1.485h-1.449a.414.414 0 00-.414.414v.828a.413.413 0 00.414.413h1.449a4.186 4.186 0 00.612 1.486l-1.032 1.032a.414.414 0 000 .585l.627.627a.415.415 0 00.585 0l1.031-1.032a4.188 4.188 0 001.485.612v1.449a.414.414 0 00.414.414h.828a.414.414 0 00.414-.414v-1.449a4.188 4.188 0 001.485-.612l1.031 1.032a.416.416 0 00.586 0l.627-.627a.414.414 0 000-.585l-1.032-1.032a4.186 4.186 0 00.612-1.486h1.449a.413.413 0 00.415-.413v-.828a.414.414 0 00-.414-.414zM27 28.615A1.616 1.616 0 1128.615 27 1.615 1.615 0 0127 28.615z"/></g></svg>