<svg xmlns="http://www.w3.org/2000/svg" xmlns:xlink="http://www.w3.org/1999/xlink" width="264" height="191" viewBox="0 0 264 191">
  <defs>
    <clipPath id="clip-path">
      <rect width="264" height="189" fill="none"/>
    </clipPath>
  </defs>
  <g id="Group_8" data-name="Group 8" transform="translate(-80 -832)">
    <rect id="Rectangle_8" data-name="Rectangle 8" width="252" height="191" transform="translate(80 832)" fill="rgba(255,168,168,0)"/>
    <g id="Repeat_Grid_3" data-name="Repeat Grid 3" transform="translate(80 832)" clip-path="url(#clip-path)">
      <g id="Group_2" data-name="Group 2" transform="translate(-1013.883 -502.176)">
        <path id="Icon_material-adobe" data-name="Icon material-adobe" d="M54.783,27.977a.533.533,0,0,1-.15.03h-3.39a.735.735,0,0,1-.69-.45l-3.69-8.61a.152.152,0,0,0-.195-.1.18.18,0,0,0-.1.1l-2.295,5.475a.187.187,0,0,0,.1.255.135.135,0,0,0,.075.015h2.52a.39.39,0,0,1,.36.24l1.11,2.46a.462.462,0,0,1-.24.6c-.09,0-.15.015-.21.015h-9.18a.429.429,0,0,1-.42-.42.638.638,0,0,1,.03-.165l5.85-13.92A.8.8,0,0,1,45,13.007h3.375a.784.784,0,0,1,.735.495l5.88,13.92a.4.4,0,0,1-.21.555Z" transform="translate(1012.552 566.388) rotate(-90)" fill="#fff"/>
        <path id="Icon_material-adobe-2" data-name="Icon material-adobe" d="M54.783,27.977a.533.533,0,0,1-.15.03h-3.39a.735.735,0,0,1-.69-.45l-3.69-8.61a.152.152,0,0,0-.195-.1.18.18,0,0,0-.1.1l-2.295,5.475a.187.187,0,0,0,.1.255.135.135,0,0,0,.075.015h2.52a.39.39,0,0,1,.36.24l1.11,2.46a.462.462,0,0,1-.24.6c-.09,0-.15.015-.21.015h-9.18a.429.429,0,0,1-.42-.42.638.638,0,0,1,.03-.165l5.85-13.92A.8.8,0,0,1,45,13.007h3.375a.784.784,0,0,1,.735.495l5.88,13.92a.4.4,0,0,1-.21.555Z" transform="translate(1021.172 499.168)" fill="#fff"/>
        <path id="Icon_material-adobe-3" data-name="Icon material-adobe" d="M54.783,27.977a.533.533,0,0,1-.15.03h-3.39a.735.735,0,0,1-.69-.45l-3.69-8.61a.152.152,0,0,0-.195-.1.18.18,0,0,0-.1.1l-2.295,5.475a.187.187,0,0,0,.1.255.135.135,0,0,0,.075.015h2.52a.39.39,0,0,1,.36.24l1.11,2.46a.462.462,0,0,1-.24.6c-.09,0-.15.015-.21.015h-9.18a.429.429,0,0,1-.42-.42.638.638,0,0,1,.03-.165l5.85-13.92A.8.8,0,0,1,45,13.007h3.375a.784.784,0,0,1,.735.495l5.88,13.92a.4.4,0,0,1-.21.555Z" transform="translate(1089.215 508.288) rotate(90)" fill="#fff"/>
        <path id="Icon_material-adobe-4" data-name="Icon material-adobe" d="M54.783,27.977a.533.533,0,0,1-.15.03h-3.39a.735.735,0,0,1-.69-.45l-3.69-8.61a.152.152,0,0,0-.195-.1.18.18,0,0,0-.1.1l-2.295,5.475a.187.187,0,0,0,.1.255.135.135,0,0,0,.075.015h2.52a.39.39,0,0,1,.36.24l1.11,2.46a.462.462,0,0,1-.24.6c-.09,0-.15.015-.21.015h-9.18a.429.429,0,0,1-.42-.42.638.638,0,0,1,.03-.165l5.85-13.92A.8.8,0,0,1,45,13.007h3.375a.784.784,0,0,1,.735.495l5.88,13.92a.4.4,0,0,1-.21.555Z" transform="translate(987.171 533.668)" fill="#fff"/>
      </g>
      <g id="Group_2-2" data-name="Group 2" transform="translate(-940.883 -502.176)">
        <path id="Icon_material-adobe-5" data-name="Icon material-adobe" d="M54.783,27.977a.533.533,0,0,1-.15.03h-3.39a.735.735,0,0,1-.69-.45l-3.69-8.61a.152.152,0,0,0-.195-.1.18.18,0,0,0-.1.1l-2.295,5.475a.187.187,0,0,0,.1.255.135.135,0,0,0,.075.015h2.52a.39.39,0,0,1,.36.24l1.11,2.46a.462.462,0,0,1-.24.6c-.09,0-.15.015-.21.015h-9.18a.429.429,0,0,1-.42-.42.638.638,0,0,1,.03-.165l5.85-13.92A.8.8,0,0,1,45,13.007h3.375a.784.784,0,0,1,.735.495l5.88,13.92a.4.4,0,0,1-.21.555Z" transform="translate(1012.552 566.388) rotate(-90)" fill="#fff"/>
        <path id="Icon_material-adobe-6" data-name="Icon material-adobe" d="M54.783,27.977a.533.533,0,0,1-.15.03h-3.39a.735.735,0,0,1-.69-.45l-3.69-8.61a.152.152,0,0,0-.195-.1.18.18,0,0,0-.1.1l-2.295,5.475a.187.187,0,0,0,.1.255.135.135,0,0,0,.075.015h2.52a.39.39,0,0,1,.36.24l1.11,2.46a.462.462,0,0,1-.24.6c-.09,0-.15.015-.21.015h-9.18a.429.429,0,0,1-.42-.42.638.638,0,0,1,.03-.165l5.85-13.92A.8.8,0,0,1,45,13.007h3.375a.784.784,0,0,1,.735.495l5.88,13.92a.4.4,0,0,1-.21.555Z" transform="translate(1021.172 499.168)" fill="#fff"/>
        <path id="Icon_material-adobe-7" data-name="Icon material-adobe" d="M54.783,27.977a.533.533,0,0,1-.15.03h-3.39a.735.735,0,0,1-.69-.45l-3.69-8.61a.152.152,0,0,0-.195-.1.18.18,0,0,0-.1.1l-2.295,5.475a.187.187,0,0,0,.1.255.135.135,0,0,0,.075.015h2.52a.39.39,0,0,1,.36.24l1.11,2.46a.462.462,0,0,1-.24.6c-.09,0-.15.015-.21.015h-9.18a.429.429,0,0,1-.42-.42.638.638,0,0,1,.03-.165l5.85-13.92A.8.8,0,0,1,45,13.007h3.375a.784.784,0,0,1,.735.495l5.88,13.92a.4.4,0,0,1-.21.555Z" transform="translate(1089.215 508.288) rotate(90)" fill="#fff"/>
        <path id="Icon_material-adobe-8" data-name="Icon material-adobe" d="M54.783,27.977a.533.533,0,0,1-.15.03h-3.39a.735.735,0,0,1-.69-.45l-3.69-8.61a.152.152,0,0,0-.195-.1.18.18,0,0,0-.1.1l-2.295,5.475a.187.187,0,0,0,.1.255.135.135,0,0,0,.075.015h2.52a.39.39,0,0,1,.36.24l1.11,2.46a.462.462,0,0,1-.24.6c-.09,0-.15.015-.21.015h-9.18a.429.429,0,0,1-.42-.42.638.638,0,0,1,.03-.165l5.85-13.92A.8.8,0,0,1,45,13.007h3.375a.784.784,0,0,1,.735.495l5.88,13.92a.4.4,0,0,1-.21.555Z" transform="translate(987.171 533.668)" fill="#fff"/>
      </g>
      <g id="Group_2-3" data-name="Group 2" transform="translate(-867.883 -502.176)">
        <path id="Icon_material-adobe-9" data-name="Icon material-adobe" d="M54.783,27.977a.533.533,0,0,1-.15.03h-3.39a.735.735,0,0,1-.69-.45l-3.69-8.61a.152.152,0,0,0-.195-.1.18.18,0,0,0-.1.1l-2.295,5.475a.187.187,0,0,0,.1.255.135.135,0,0,0,.075.015h2.52a.39.39,0,0,1,.36.24l1.11,2.46a.462.462,0,0,1-.24.6c-.09,0-.15.015-.21.015h-9.18a.429.429,0,0,1-.42-.42.638.638,0,0,1,.03-.165l5.85-13.92A.8.8,0,0,1,45,13.007h3.375a.784.784,0,0,1,.735.495l5.88,13.92a.4.4,0,0,1-.21.555Z" transform="translate(1012.552 566.388) rotate(-90)" fill="#fff"/>
        <path id="Icon_material-adobe-10" data-name="Icon material-adobe" d="M54.783,27.977a.533.533,0,0,1-.15.03h-3.39a.735.735,0,0,1-.69-.45l-3.69-8.61a.152.152,0,0,0-.195-.1.18.18,0,0,0-.1.1l-2.295,5.475a.187.187,0,0,0,.1.255.135.135,0,0,0,.075.015h2.52a.39.39,0,0,1,.36.24l1.11,2.46a.462.462,0,0,1-.24.6c-.09,0-.15.015-.21.015h-9.18a.429.429,0,0,1-.42-.42.638.638,0,0,1,.03-.165l5.85-13.92A.8.8,0,0,1,45,13.007h3.375a.784.784,0,0,1,.735.495l5.88,13.92a.4.4,0,0,1-.21.555Z" transform="translate(1021.172 499.168)" fill="#fff"/>
        <path id="Icon_material-adobe-11" data-name="Icon material-adobe" d="M54.783,27.977a.533.533,0,0,1-.15.03h-3.39a.735.735,0,0,1-.69-.45l-3.69-8.61a.152.152,0,0,0-.195-.1.18.18,0,0,0-.1.1l-2.295,5.475a.187.187,0,0,0,.1.255.135.135,0,0,0,.075.015h2.52a.39.39,0,0,1,.36.24l1.11,2.46a.462.462,0,0,1-.24.6c-.09,0-.15.015-.21.015h-9.18a.429.429,0,0,1-.42-.42.638.638,0,0,1,.03-.165l5.85-13.92A.8.8,0,0,1,45,13.007h3.375a.784.784,0,0,1,.735.495l5.88,13.92a.4.4,0,0,1-.21.555Z" transform="translate(1089.215 508.288) rotate(90)" fill="#fff"/>
        <path id="Icon_material-adobe-12" data-name="Icon material-adobe" d="M54.783,27.977a.533.533,0,0,1-.15.03h-3.39a.735.735,0,0,1-.69-.45l-3.69-8.61a.152.152,0,0,0-.195-.1.18.18,0,0,0-.1.1l-2.295,5.475a.187.187,0,0,0,.1.255.135.135,0,0,0,.075.015h2.52a.39.39,0,0,1,.36.24l1.11,2.46a.462.462,0,0,1-.24.6c-.09,0-.15.015-.21.015h-9.18a.429.429,0,0,1-.42-.42.638.638,0,0,1,.03-.165l5.85-13.92A.8.8,0,0,1,45,13.007h3.375a.784.784,0,0,1,.735.495l5.88,13.92a.4.4,0,0,1-.21.555Z" transform="translate(987.171 533.668)" fill="#fff"/>
      </g>
      <g id="Group_2-4" data-name="Group 2" transform="translate(-794.883 -502.176)">
        <path id="Icon_material-adobe-13" data-name="Icon material-adobe" d="M54.783,27.977a.533.533,0,0,1-.15.03h-3.39a.735.735,0,0,1-.69-.45l-3.69-8.61a.152.152,0,0,0-.195-.1.18.18,0,0,0-.1.1l-2.295,5.475a.187.187,0,0,0,.1.255.135.135,0,0,0,.075.015h2.52a.39.39,0,0,1,.36.24l1.11,2.46a.462.462,0,0,1-.24.6c-.09,0-.15.015-.21.015h-9.18a.429.429,0,0,1-.42-.42.638.638,0,0,1,.03-.165l5.85-13.92A.8.8,0,0,1,45,13.007h3.375a.784.784,0,0,1,.735.495l5.88,13.92a.4.4,0,0,1-.21.555Z" transform="translate(1012.552 566.388) rotate(-90)" fill="#fff"/>
        <path id="Icon_material-adobe-14" data-name="Icon material-adobe" d="M54.783,27.977a.533.533,0,0,1-.15.03h-3.39a.735.735,0,0,1-.69-.45l-3.69-8.61a.152.152,0,0,0-.195-.1.18.18,0,0,0-.1.1l-2.295,5.475a.187.187,0,0,0,.1.255.135.135,0,0,0,.075.015h2.52a.39.39,0,0,1,.36.24l1.11,2.46a.462.462,0,0,1-.24.6c-.09,0-.15.015-.21.015h-9.18a.429.429,0,0,1-.42-.42.638.638,0,0,1,.03-.165l5.85-13.92A.8.8,0,0,1,45,13.007h3.375a.784.784,0,0,1,.735.495l5.88,13.92a.4.4,0,0,1-.21.555Z" transform="translate(1021.172 499.168)" fill="#fff"/>
        <path id="Icon_material-adobe-15" data-name="Icon material-adobe" d="M54.783,27.977a.533.533,0,0,1-.15.03h-3.39a.735.735,0,0,1-.69-.45l-3.69-8.61a.152.152,0,0,0-.195-.1.18.18,0,0,0-.1.1l-2.295,5.475a.187.187,0,0,0,.1.255.135.135,0,0,0,.075.015h2.52a.39.39,0,0,1,.36.24l1.11,2.46a.462.462,0,0,1-.24.6c-.09,0-.15.015-.21.015h-9.18a.429.429,0,0,1-.42-.42.638.638,0,0,1,.03-.165l5.85-13.92A.8.8,0,0,1,45,13.007h3.375a.784.784,0,0,1,.735.495l5.88,13.92a.4.4,0,0,1-.21.555Z" transform="translate(1089.215 508.288) rotate(90)" fill="#fff"/>
        <path id="Icon_material-adobe-16" data-name="Icon material-adobe" d="M54.783,27.977a.533.533,0,0,1-.15.03h-3.39a.735.735,0,0,1-.69-.45l-3.69-8.61a.152.152,0,0,0-.195-.1.18.18,0,0,0-.1.1l-2.295,5.475a.187.187,0,0,0,.1.255.135.135,0,0,0,.075.015h2.52a.39.39,0,0,1,.36.24l1.11,2.46a.462.462,0,0,1-.24.6c-.09,0-.15.015-.21.015h-9.18a.429.429,0,0,1-.42-.42.638.638,0,0,1,.03-.165l5.85-13.92A.8.8,0,0,1,45,13.007h3.375a.784.784,0,0,1,.735.495l5.88,13.92a.4.4,0,0,1-.21.555Z" transform="translate(987.171 533.668)" fill="#fff"/>
      </g>
      <g id="Group_2-5" data-name="Group 2" transform="translate(-1013.883 -425.176)">
        <path id="Icon_material-adobe-17" data-name="Icon material-adobe" d="M54.783,27.977a.533.533,0,0,1-.15.03h-3.39a.735.735,0,0,1-.69-.45l-3.69-8.61a.152.152,0,0,0-.195-.1.18.18,0,0,0-.1.1l-2.295,5.475a.187.187,0,0,0,.1.255.135.135,0,0,0,.075.015h2.52a.39.39,0,0,1,.36.24l1.11,2.46a.462.462,0,0,1-.24.6c-.09,0-.15.015-.21.015h-9.18a.429.429,0,0,1-.42-.42.638.638,0,0,1,.03-.165l5.85-13.92A.8.8,0,0,1,45,13.007h3.375a.784.784,0,0,1,.735.495l5.88,13.92a.4.4,0,0,1-.21.555Z" transform="translate(1012.552 566.388) rotate(-90)" fill="#fff"/>
        <path id="Icon_material-adobe-18" data-name="Icon material-adobe" d="M54.783,27.977a.533.533,0,0,1-.15.03h-3.39a.735.735,0,0,1-.69-.45l-3.69-8.61a.152.152,0,0,0-.195-.1.18.18,0,0,0-.1.1l-2.295,5.475a.187.187,0,0,0,.1.255.135.135,0,0,0,.075.015h2.52a.39.39,0,0,1,.36.24l1.11,2.46a.462.462,0,0,1-.24.6c-.09,0-.15.015-.21.015h-9.18a.429.429,0,0,1-.42-.42.638.638,0,0,1,.03-.165l5.85-13.92A.8.8,0,0,1,45,13.007h3.375a.784.784,0,0,1,.735.495l5.88,13.92a.4.4,0,0,1-.21.555Z" transform="translate(1021.172 499.168)" fill="#fff"/>
        <path id="Icon_material-adobe-19" data-name="Icon material-adobe" d="M54.783,27.977a.533.533,0,0,1-.15.03h-3.39a.735.735,0,0,1-.69-.45l-3.69-8.61a.152.152,0,0,0-.195-.1.18.18,0,0,0-.1.1l-2.295,5.475a.187.187,0,0,0,.1.255.135.135,0,0,0,.075.015h2.52a.39.39,0,0,1,.36.24l1.11,2.46a.462.462,0,0,1-.24.6c-.09,0-.15.015-.21.015h-9.18a.429.429,0,0,1-.42-.42.638.638,0,0,1,.03-.165l5.85-13.92A.8.8,0,0,1,45,13.007h3.375a.784.784,0,0,1,.735.495l5.88,13.92a.4.4,0,0,1-.21.555Z" transform="translate(1089.215 508.288) rotate(90)" fill="#fff"/>
        <path id="Icon_material-adobe-20" data-name="Icon material-adobe" d="M54.783,27.977a.533.533,0,0,1-.15.03h-3.39a.735.735,0,0,1-.69-.45l-3.69-8.61a.152.152,0,0,0-.195-.1.18.18,0,0,0-.1.1l-2.295,5.475a.187.187,0,0,0,.1.255.135.135,0,0,0,.075.015h2.52a.39.39,0,0,1,.36.24l1.11,2.46a.462.462,0,0,1-.24.6c-.09,0-.15.015-.21.015h-9.18a.429.429,0,0,1-.42-.42.638.638,0,0,1,.03-.165l5.85-13.92A.8.8,0,0,1,45,13.007h3.375a.784.784,0,0,1,.735.495l5.88,13.92a.4.4,0,0,1-.21.555Z" transform="translate(987.171 533.668)" fill="#fff"/>
      </g>
      <g id="Group_2-6" data-name="Group 2" transform="translate(-940.883 -425.176)">
        <path id="Icon_material-adobe-21" data-name="Icon material-adobe" d="M54.783,27.977a.533.533,0,0,1-.15.03h-3.39a.735.735,0,0,1-.69-.45l-3.69-8.61a.152.152,0,0,0-.195-.1.18.18,0,0,0-.1.1l-2.295,5.475a.187.187,0,0,0,.1.255.135.135,0,0,0,.075.015h2.52a.39.39,0,0,1,.36.24l1.11,2.46a.462.462,0,0,1-.24.6c-.09,0-.15.015-.21.015h-9.18a.429.429,0,0,1-.42-.42.638.638,0,0,1,.03-.165l5.85-13.92A.8.8,0,0,1,45,13.007h3.375a.784.784,0,0,1,.735.495l5.88,13.92a.4.4,0,0,1-.21.555Z" transform="translate(1012.552 566.388) rotate(-90)" fill="#fff"/>
        <path id="Icon_material-adobe-22" data-name="Icon material-adobe" d="M54.783,27.977a.533.533,0,0,1-.15.03h-3.39a.735.735,0,0,1-.69-.45l-3.69-8.61a.152.152,0,0,0-.195-.1.18.18,0,0,0-.1.1l-2.295,5.475a.187.187,0,0,0,.1.255.135.135,0,0,0,.075.015h2.52a.39.39,0,0,1,.36.24l1.11,2.46a.462.462,0,0,1-.24.6c-.09,0-.15.015-.21.015h-9.18a.429.429,0,0,1-.42-.42.638.638,0,0,1,.03-.165l5.85-13.92A.8.8,0,0,1,45,13.007h3.375a.784.784,0,0,1,.735.495l5.88,13.92a.4.4,0,0,1-.21.555Z" transform="translate(1021.172 499.168)" fill="#fff"/>
        <path id="Icon_material-adobe-23" data-name="Icon material-adobe" d="M54.783,27.977a.533.533,0,0,1-.15.03h-3.39a.735.735,0,0,1-.69-.45l-3.69-8.61a.152.152,0,0,0-.195-.1.18.18,0,0,0-.1.1l-2.295,5.475a.187.187,0,0,0,.1.255.135.135,0,0,0,.075.015h2.52a.39.39,0,0,1,.36.24l1.11,2.46a.462.462,0,0,1-.24.6c-.09,0-.15.015-.21.015h-9.18a.429.429,0,0,1-.42-.42.638.638,0,0,1,.03-.165l5.85-13.92A.8.8,0,0,1,45,13.007h3.375a.784.784,0,0,1,.735.495l5.88,13.92a.4.4,0,0,1-.21.555Z" transform="translate(1089.215 508.288) rotate(90)" fill="#fff"/>
        <path id="Icon_material-adobe-24" data-name="Icon material-adobe" d="M54.783,27.977a.533.533,0,0,1-.15.03h-3.39a.735.735,0,0,1-.69-.45l-3.69-8.61a.152.152,0,0,0-.195-.1.18.18,0,0,0-.1.1l-2.295,5.475a.187.187,0,0,0,.1.255.135.135,0,0,0,.075.015h2.52a.39.39,0,0,1,.36.24l1.11,2.46a.462.462,0,0,1-.24.6c-.09,0-.15.015-.21.015h-9.18a.429.429,0,0,1-.42-.42.638.638,0,0,1,.03-.165l5.85-13.92A.8.8,0,0,1,45,13.007h3.375a.784.784,0,0,1,.735.495l5.88,13.92a.4.4,0,0,1-.21.555Z" transform="translate(987.171 533.668)" fill="#fff"/>
      </g>
      <g id="Group_2-7" data-name="Group 2" transform="translate(-867.883 -425.176)">
        <path id="Icon_material-adobe-25" data-name="Icon material-adobe" d="M54.783,27.977a.533.533,0,0,1-.15.03h-3.39a.735.735,0,0,1-.69-.45l-3.69-8.61a.152.152,0,0,0-.195-.1.18.18,0,0,0-.1.1l-2.295,5.475a.187.187,0,0,0,.1.255.135.135,0,0,0,.075.015h2.52a.39.39,0,0,1,.36.24l1.11,2.46a.462.462,0,0,1-.24.6c-.09,0-.15.015-.21.015h-9.18a.429.429,0,0,1-.42-.42.638.638,0,0,1,.03-.165l5.85-13.92A.8.8,0,0,1,45,13.007h3.375a.784.784,0,0,1,.735.495l5.88,13.92a.4.4,0,0,1-.21.555Z" transform="translate(1012.552 566.388) rotate(-90)" fill="#fff"/>
        <path id="Icon_material-adobe-26" data-name="Icon material-adobe" d="M54.783,27.977a.533.533,0,0,1-.15.03h-3.39a.735.735,0,0,1-.69-.45l-3.69-8.61a.152.152,0,0,0-.195-.1.18.18,0,0,0-.1.1l-2.295,5.475a.187.187,0,0,0,.1.255.135.135,0,0,0,.075.015h2.52a.39.39,0,0,1,.36.24l1.11,2.46a.462.462,0,0,1-.24.6c-.09,0-.15.015-.21.015h-9.18a.429.429,0,0,1-.42-.42.638.638,0,0,1,.03-.165l5.85-13.92A.8.8,0,0,1,45,13.007h3.375a.784.784,0,0,1,.735.495l5.88,13.92a.4.4,0,0,1-.21.555Z" transform="translate(1021.172 499.168)" fill="#fff"/>
        <path id="Icon_material-adobe-27" data-name="Icon material-adobe" d="M54.783,27.977a.533.533,0,0,1-.15.03h-3.39a.735.735,0,0,1-.69-.45l-3.69-8.61a.152.152,0,0,0-.195-.1.18.18,0,0,0-.1.1l-2.295,5.475a.187.187,0,0,0,.1.255.135.135,0,0,0,.075.015h2.52a.39.39,0,0,1,.36.24l1.11,2.46a.462.462,0,0,1-.24.6c-.09,0-.15.015-.21.015h-9.18a.429.429,0,0,1-.42-.42.638.638,0,0,1,.03-.165l5.85-13.92A.8.8,0,0,1,45,13.007h3.375a.784.784,0,0,1,.735.495l5.88,13.92a.4.4,0,0,1-.21.555Z" transform="translate(1089.215 508.288) rotate(90)" fill="#fff"/>
        <path id="Icon_material-adobe-28" data-name="Icon material-adobe" d="M54.783,27.977a.533.533,0,0,1-.15.03h-3.39a.735.735,0,0,1-.69-.45l-3.69-8.61a.152.152,0,0,0-.195-.1.18.18,0,0,0-.1.1l-2.295,5.475a.187.187,0,0,0,.1.255.135.135,0,0,0,.075.015h2.52a.39.39,0,0,1,.36.24l1.11,2.46a.462.462,0,0,1-.24.6c-.09,0-.15.015-.21.015h-9.18a.429.429,0,0,1-.42-.42.638.638,0,0,1,.03-.165l5.85-13.92A.8.8,0,0,1,45,13.007h3.375a.784.784,0,0,1,.735.495l5.88,13.92a.4.4,0,0,1-.21.555Z" transform="translate(987.171 533.668)" fill="#fff"/>
      </g>
      <g id="Group_2-8" data-name="Group 2" transform="translate(-794.883 -425.176)">
        <path id="Icon_material-adobe-29" data-name="Icon material-adobe" d="M54.783,27.977a.533.533,0,0,1-.15.03h-3.39a.735.735,0,0,1-.69-.45l-3.69-8.61a.152.152,0,0,0-.195-.1.18.18,0,0,0-.1.1l-2.295,5.475a.187.187,0,0,0,.1.255.135.135,0,0,0,.075.015h2.52a.39.39,0,0,1,.36.24l1.11,2.46a.462.462,0,0,1-.24.6c-.09,0-.15.015-.21.015h-9.18a.429.429,0,0,1-.42-.42.638.638,0,0,1,.03-.165l5.85-13.92A.8.8,0,0,1,45,13.007h3.375a.784.784,0,0,1,.735.495l5.88,13.92a.4.4,0,0,1-.21.555Z" transform="translate(1012.552 566.388) rotate(-90)" fill="#fff"/>
        <path id="Icon_material-adobe-30" data-name="Icon material-adobe" d="M54.783,27.977a.533.533,0,0,1-.15.03h-3.39a.735.735,0,0,1-.69-.45l-3.69-8.61a.152.152,0,0,0-.195-.1.18.18,0,0,0-.1.1l-2.295,5.475a.187.187,0,0,0,.1.255.135.135,0,0,0,.075.015h2.52a.39.39,0,0,1,.36.24l1.11,2.46a.462.462,0,0,1-.24.6c-.09,0-.15.015-.21.015h-9.18a.429.429,0,0,1-.42-.42.638.638,0,0,1,.03-.165l5.85-13.92A.8.8,0,0,1,45,13.007h3.375a.784.784,0,0,1,.735.495l5.88,13.92a.4.4,0,0,1-.21.555Z" transform="translate(1021.172 499.168)" fill="#fff"/>
        <path id="Icon_material-adobe-31" data-name="Icon material-adobe" d="M54.783,27.977a.533.533,0,0,1-.15.03h-3.39a.735.735,0,0,1-.69-.45l-3.69-8.61a.152.152,0,0,0-.195-.1.18.18,0,0,0-.1.1l-2.295,5.475a.187.187,0,0,0,.1.255.135.135,0,0,0,.075.015h2.52a.39.39,0,0,1,.36.24l1.11,2.46a.462.462,0,0,1-.24.6c-.09,0-.15.015-.21.015h-9.18a.429.429,0,0,1-.42-.42.638.638,0,0,1,.03-.165l5.85-13.92A.8.8,0,0,1,45,13.007h3.375a.784.784,0,0,1,.735.495l5.88,13.92a.4.4,0,0,1-.21.555Z" transform="translate(1089.215 508.288) rotate(90)" fill="#fff"/>
        <path id="Icon_material-adobe-32" data-name="Icon material-adobe" d="M54.783,27.977a.533.533,0,0,1-.15.03h-3.39a.735.735,0,0,1-.69-.45l-3.69-8.61a.152.152,0,0,0-.195-.1.18.18,0,0,0-.1.1l-2.295,5.475a.187.187,0,0,0,.1.255.135.135,0,0,0,.075.015h2.52a.39.39,0,0,1,.36.24l1.11,2.46a.462.462,0,0,1-.24.6c-.09,0-.15.015-.21.015h-9.18a.429.429,0,0,1-.42-.42.638.638,0,0,1,.03-.165l5.85-13.92A.8.8,0,0,1,45,13.007h3.375a.784.784,0,0,1,.735.495l5.88,13.92a.4.4,0,0,1-.21.555Z" transform="translate(987.171 533.668)" fill="#fff"/>
      </g>
      <g id="Group_2-9" data-name="Group 2" transform="translate(-1013.883 -348.176)">
        <path id="Icon_material-adobe-33" data-name="Icon material-adobe" d="M54.783,27.977a.533.533,0,0,1-.15.03h-3.39a.735.735,0,0,1-.69-.45l-3.69-8.61a.152.152,0,0,0-.195-.1.18.18,0,0,0-.1.1l-2.295,5.475a.187.187,0,0,0,.1.255.135.135,0,0,0,.075.015h2.52a.39.39,0,0,1,.36.24l1.11,2.46a.462.462,0,0,1-.24.6c-.09,0-.15.015-.21.015h-9.18a.429.429,0,0,1-.42-.42.638.638,0,0,1,.03-.165l5.85-13.92A.8.8,0,0,1,45,13.007h3.375a.784.784,0,0,1,.735.495l5.88,13.92a.4.4,0,0,1-.21.555Z" transform="translate(1012.552 566.388) rotate(-90)" fill="#fff"/>
        <path id="Icon_material-adobe-34" data-name="Icon material-adobe" d="M54.783,27.977a.533.533,0,0,1-.15.03h-3.39a.735.735,0,0,1-.69-.45l-3.69-8.61a.152.152,0,0,0-.195-.1.18.18,0,0,0-.1.1l-2.295,5.475a.187.187,0,0,0,.1.255.135.135,0,0,0,.075.015h2.52a.39.39,0,0,1,.36.24l1.11,2.46a.462.462,0,0,1-.24.6c-.09,0-.15.015-.21.015h-9.18a.429.429,0,0,1-.42-.42.638.638,0,0,1,.03-.165l5.85-13.92A.8.8,0,0,1,45,13.007h3.375a.784.784,0,0,1,.735.495l5.88,13.92a.4.4,0,0,1-.21.555Z" transform="translate(1021.172 499.168)" fill="#fff"/>
        <path id="Icon_material-adobe-35" data-name="Icon material-adobe" d="M54.783,27.977a.533.533,0,0,1-.15.03h-3.39a.735.735,0,0,1-.69-.45l-3.69-8.61a.152.152,0,0,0-.195-.1.18.18,0,0,0-.1.1l-2.295,5.475a.187.187,0,0,0,.1.255.135.135,0,0,0,.075.015h2.52a.39.39,0,0,1,.36.24l1.11,2.46a.462.462,0,0,1-.24.6c-.09,0-.15.015-.21.015h-9.18a.429.429,0,0,1-.42-.42.638.638,0,0,1,.03-.165l5.85-13.92A.8.8,0,0,1,45,13.007h3.375a.784.784,0,0,1,.735.495l5.88,13.92a.4.4,0,0,1-.21.555Z" transform="translate(1089.215 508.288) rotate(90)" fill="#fff"/>
        <path id="Icon_material-adobe-36" data-name="Icon material-adobe" d="M54.783,27.977a.533.533,0,0,1-.15.03h-3.39a.735.735,0,0,1-.69-.45l-3.69-8.61a.152.152,0,0,0-.195-.1.18.18,0,0,0-.1.1l-2.295,5.475a.187.187,0,0,0,.1.255.135.135,0,0,0,.075.015h2.52a.39.39,0,0,1,.36.24l1.11,2.46a.462.462,0,0,1-.24.6c-.09,0-.15.015-.21.015h-9.18a.429.429,0,0,1-.42-.42.638.638,0,0,1,.03-.165l5.85-13.92A.8.8,0,0,1,45,13.007h3.375a.784.784,0,0,1,.735.495l5.88,13.92a.4.4,0,0,1-.21.555Z" transform="translate(987.171 533.668)" fill="#fff"/>
      </g>
      <g id="Group_2-10" data-name="Group 2" transform="translate(-940.883 -348.176)">
        <path id="Icon_material-adobe-37" data-name="Icon material-adobe" d="M54.783,27.977a.533.533,0,0,1-.15.03h-3.39a.735.735,0,0,1-.69-.45l-3.69-8.61a.152.152,0,0,0-.195-.1.18.18,0,0,0-.1.1l-2.295,5.475a.187.187,0,0,0,.1.255.135.135,0,0,0,.075.015h2.52a.39.39,0,0,1,.36.24l1.11,2.46a.462.462,0,0,1-.24.6c-.09,0-.15.015-.21.015h-9.18a.429.429,0,0,1-.42-.42.638.638,0,0,1,.03-.165l5.85-13.92A.8.8,0,0,1,45,13.007h3.375a.784.784,0,0,1,.735.495l5.88,13.92a.4.4,0,0,1-.21.555Z" transform="translate(1012.552 566.388) rotate(-90)" fill="#fff"/>
        <path id="Icon_material-adobe-38" data-name="Icon material-adobe" d="M54.783,27.977a.533.533,0,0,1-.15.03h-3.39a.735.735,0,0,1-.69-.45l-3.69-8.61a.152.152,0,0,0-.195-.1.18.18,0,0,0-.1.1l-2.295,5.475a.187.187,0,0,0,.1.255.135.135,0,0,0,.075.015h2.52a.39.39,0,0,1,.36.24l1.11,2.46a.462.462,0,0,1-.24.6c-.09,0-.15.015-.21.015h-9.18a.429.429,0,0,1-.42-.42.638.638,0,0,1,.03-.165l5.85-13.92A.8.8,0,0,1,45,13.007h3.375a.784.784,0,0,1,.735.495l5.88,13.92a.4.4,0,0,1-.21.555Z" transform="translate(1021.172 499.168)" fill="#fff"/>
        <path id="Icon_material-adobe-39" data-name="Icon material-adobe" d="M54.783,27.977a.533.533,0,0,1-.15.03h-3.39a.735.735,0,0,1-.69-.45l-3.69-8.61a.152.152,0,0,0-.195-.1.18.18,0,0,0-.1.1l-2.295,5.475a.187.187,0,0,0,.1.255.135.135,0,0,0,.075.015h2.52a.39.39,0,0,1,.36.24l1.11,2.46a.462.462,0,0,1-.24.6c-.09,0-.15.015-.21.015h-9.18a.429.429,0,0,1-.42-.42.638.638,0,0,1,.03-.165l5.85-13.92A.8.8,0,0,1,45,13.007h3.375a.784.784,0,0,1,.735.495l5.88,13.92a.4.4,0,0,1-.21.555Z" transform="translate(1089.215 508.288) rotate(90)" fill="#fff"/>
        <path id="Icon_material-adobe-40" data-name="Icon material-adobe" d="M54.783,27.977a.533.533,0,0,1-.15.03h-3.39a.735.735,0,0,1-.69-.45l-3.69-8.61a.152.152,0,0,0-.195-.1.18.18,0,0,0-.1.1l-2.295,5.475a.187.187,0,0,0,.1.255.135.135,0,0,0,.075.015h2.52a.39.39,0,0,1,.36.24l1.11,2.46a.462.462,0,0,1-.24.6c-.09,0-.15.015-.21.015h-9.18a.429.429,0,0,1-.42-.42.638.638,0,0,1,.03-.165l5.85-13.92A.8.8,0,0,1,45,13.007h3.375a.784.784,0,0,1,.735.495l5.88,13.92a.4.4,0,0,1-.21.555Z" transform="translate(987.171 533.668)" fill="#fff"/>
      </g>
      <g id="Group_2-11" data-name="Group 2" transform="translate(-867.883 -348.176)">
        <path id="Icon_material-adobe-41" data-name="Icon material-adobe" d="M54.783,27.977a.533.533,0,0,1-.15.03h-3.39a.735.735,0,0,1-.69-.45l-3.69-8.61a.152.152,0,0,0-.195-.1.18.18,0,0,0-.1.1l-2.295,5.475a.187.187,0,0,0,.1.255.135.135,0,0,0,.075.015h2.52a.39.39,0,0,1,.36.24l1.11,2.46a.462.462,0,0,1-.24.6c-.09,0-.15.015-.21.015h-9.18a.429.429,0,0,1-.42-.42.638.638,0,0,1,.03-.165l5.85-13.92A.8.8,0,0,1,45,13.007h3.375a.784.784,0,0,1,.735.495l5.88,13.92a.4.4,0,0,1-.21.555Z" transform="translate(1012.552 566.388) rotate(-90)" fill="#fff"/>
        <path id="Icon_material-adobe-42" data-name="Icon material-adobe" d="M54.783,27.977a.533.533,0,0,1-.15.03h-3.39a.735.735,0,0,1-.69-.45l-3.69-8.61a.152.152,0,0,0-.195-.1.18.18,0,0,0-.1.1l-2.295,5.475a.187.187,0,0,0,.1.255.135.135,0,0,0,.075.015h2.52a.39.39,0,0,1,.36.24l1.11,2.46a.462.462,0,0,1-.24.6c-.09,0-.15.015-.21.015h-9.18a.429.429,0,0,1-.42-.42.638.638,0,0,1,.03-.165l5.85-13.92A.8.8,0,0,1,45,13.007h3.375a.784.784,0,0,1,.735.495l5.88,13.92a.4.4,0,0,1-.21.555Z" transform="translate(1021.172 499.168)" fill="#fff"/>
        <path id="Icon_material-adobe-43" data-name="Icon material-adobe" d="M54.783,27.977a.533.533,0,0,1-.15.03h-3.39a.735.735,0,0,1-.69-.45l-3.69-8.61a.152.152,0,0,0-.195-.1.18.18,0,0,0-.1.1l-2.295,5.475a.187.187,0,0,0,.1.255.135.135,0,0,0,.075.015h2.52a.39.39,0,0,1,.36.24l1.11,2.46a.462.462,0,0,1-.24.6c-.09,0-.15.015-.21.015h-9.18a.429.429,0,0,1-.42-.42.638.638,0,0,1,.03-.165l5.85-13.92A.8.8,0,0,1,45,13.007h3.375a.784.784,0,0,1,.735.495l5.88,13.92a.4.4,0,0,1-.21.555Z" transform="translate(1089.215 508.288) rotate(90)" fill="#fff"/>
        <path id="Icon_material-adobe-44" data-name="Icon material-adobe" d="M54.783,27.977a.533.533,0,0,1-.15.03h-3.39a.735.735,0,0,1-.69-.45l-3.69-8.61a.152.152,0,0,0-.195-.1.18.18,0,0,0-.1.1l-2.295,5.475a.187.187,0,0,0,.1.255.135.135,0,0,0,.075.015h2.52a.39.39,0,0,1,.36.24l1.11,2.46a.462.462,0,0,1-.24.6c-.09,0-.15.015-.21.015h-9.18a.429.429,0,0,1-.42-.42.638.638,0,0,1,.03-.165l5.85-13.92A.8.8,0,0,1,45,13.007h3.375a.784.784,0,0,1,.735.495l5.88,13.92a.4.4,0,0,1-.21.555Z" transform="translate(987.171 533.668)" fill="#fff"/>
      </g>
      <g id="Group_2-12" data-name="Group 2" transform="translate(-794.883 -348.176)">
        <path id="Icon_material-adobe-45" data-name="Icon material-adobe" d="M54.783,27.977a.533.533,0,0,1-.15.03h-3.39a.735.735,0,0,1-.69-.45l-3.69-8.61a.152.152,0,0,0-.195-.1.18.18,0,0,0-.1.1l-2.295,5.475a.187.187,0,0,0,.1.255.135.135,0,0,0,.075.015h2.52a.39.39,0,0,1,.36.24l1.11,2.46a.462.462,0,0,1-.24.6c-.09,0-.15.015-.21.015h-9.18a.429.429,0,0,1-.42-.42.638.638,0,0,1,.03-.165l5.85-13.92A.8.8,0,0,1,45,13.007h3.375a.784.784,0,0,1,.735.495l5.88,13.92a.4.4,0,0,1-.21.555Z" transform="translate(1012.552 566.388) rotate(-90)" fill="#fff"/>
        <path id="Icon_material-adobe-46" data-name="Icon material-adobe" d="M54.783,27.977a.533.533,0,0,1-.15.03h-3.39a.735.735,0,0,1-.69-.45l-3.69-8.61a.152.152,0,0,0-.195-.1.18.18,0,0,0-.1.1l-2.295,5.475a.187.187,0,0,0,.1.255.135.135,0,0,0,.075.015h2.52a.39.39,0,0,1,.36.24l1.11,2.46a.462.462,0,0,1-.24.6c-.09,0-.15.015-.21.015h-9.18a.429.429,0,0,1-.42-.42.638.638,0,0,1,.03-.165l5.85-13.92A.8.8,0,0,1,45,13.007h3.375a.784.784,0,0,1,.735.495l5.88,13.92a.4.4,0,0,1-.21.555Z" transform="translate(1021.172 499.168)" fill="#fff"/>
        <path id="Icon_material-adobe-47" data-name="Icon material-adobe" d="M54.783,27.977a.533.533,0,0,1-.15.03h-3.39a.735.735,0,0,1-.69-.45l-3.69-8.61a.152.152,0,0,0-.195-.1.18.18,0,0,0-.1.1l-2.295,5.475a.187.187,0,0,0,.1.255.135.135,0,0,0,.075.015h2.52a.39.39,0,0,1,.36.24l1.11,2.46a.462.462,0,0,1-.24.6c-.09,0-.15.015-.21.015h-9.18a.429.429,0,0,1-.42-.42.638.638,0,0,1,.03-.165l5.85-13.92A.8.8,0,0,1,45,13.007h3.375a.784.784,0,0,1,.735.495l5.88,13.92a.4.4,0,0,1-.21.555Z" transform="translate(1089.215 508.288) rotate(90)" fill="#fff"/>
        <path id="Icon_material-adobe-48" data-name="Icon material-adobe" d="M54.783,27.977a.533.533,0,0,1-.15.03h-3.39a.735.735,0,0,1-.69-.45l-3.69-8.61a.152.152,0,0,0-.195-.1.18.18,0,0,0-.1.1l-2.295,5.475a.187.187,0,0,0,.1.255.135.135,0,0,0,.075.015h2.52a.39.39,0,0,1,.36.24l1.11,2.46a.462.462,0,0,1-.24.6c-.09,0-.15.015-.21.015h-9.18a.429.429,0,0,1-.42-.42.638.638,0,0,1,.03-.165l5.85-13.92A.8.8,0,0,1,45,13.007h3.375a.784.784,0,0,1,.735.495l5.88,13.92a.4.4,0,0,1-.21.555Z" transform="translate(987.171 533.668)" fill="#fff"/>
      </g>
    </g>
  </g>
</svg>
