<svg xmlns="http://www.w3.org/2000/svg" xmlns:xlink="http://www.w3.org/1999/xlink" width="996" height="420" viewBox="0 0 996 420">
  <defs>
    <filter id="Path_750115" x="790" y="205" width="70.721" height="70.721" filterUnits="userSpaceOnUse">
      <feOffset input="SourceAlpha"/>
      <feGaussianBlur stdDeviation="3" result="blur"/>
      <feFlood flood-opacity="0.161"/>
      <feComposite operator="in" in2="blur"/>
      <feComposite in="SourceGraphic"/>
    </filter>
    <clipPath id="clip-path">
      <path id="Rectangle_217577" data-name="Rectangle 217577" d="M0,0H996a0,0,0,0,1,0,0V404a16,16,0,0,1-16,16H16A16,16,0,0,1,0,404V0A0,0,0,0,1,0,0Z" transform="translate(-2254.003 -8986.285)" fill="#fff" stroke="#f4f4f4" stroke-width="1"/>
    </clipPath>
    <filter id="Path_750023" x="-217.571" y="-15.541" width="1077.086" height="1077.086" filterUnits="userSpaceOnUse">
      <feOffset input="SourceAlpha"/>
      <feGaussianBlur stdDeviation="10" result="blur-2"/>
      <feFlood flood-opacity="0.2"/>
      <feComposite operator="in" in2="blur-2"/>
      <feComposite in="SourceGraphic"/>
    </filter>
    <filter id="Path_750025" x="9.656" y="152.023" width="1098.946" height="1075.449" filterUnits="userSpaceOnUse">
      <feOffset input="SourceAlpha"/>
      <feGaussianBlur stdDeviation="10" result="blur-3"/>
      <feFlood flood-opacity="0.2"/>
      <feComposite operator="in" in2="blur-3"/>
      <feComposite in="SourceGraphic"/>
    </filter>
    <linearGradient id="linear-gradient" x1="1" y1="0.245" x2="0.5" y2="1" gradientUnits="objectBoundingBox">
      <stop offset="0" stop-color="#27c5c1"/>
      <stop offset="1" stop-color="#46a8f7"/>
    </linearGradient>
    <filter id="Ellipse_31758" x="862" y="250.504" width="36" height="36" filterUnits="userSpaceOnUse">
      <feOffset dy="3" input="SourceAlpha"/>
      <feGaussianBlur stdDeviation="3" result="blur-4"/>
      <feFlood flood-opacity="0.161"/>
      <feComposite operator="in" in2="blur-4"/>
      <feComposite in="SourceGraphic"/>
    </filter>
    <filter id="Path_750139" x="769" y="184" width="112.721" height="112.721" filterUnits="userSpaceOnUse">
      <feOffset input="SourceAlpha"/>
      <feGaussianBlur stdDeviation="10" result="blur-5"/>
      <feFlood flood-opacity="0.2"/>
      <feComposite operator="in" in2="blur-5"/>
    </filter>
    <clipPath id="clip-path-2">
      <g transform="matrix(1, 0, 0, 1, 0, 0)" filter="url(#Path_750115)">
        <path id="Path_750115-2" data-name="Path 750115" d="M273.918,985.895a26.329,26.329,0,1,0,24.645-17.016,26.352,26.352,0,0,0-24.645,17.016" fill="none"/>
      </g>
    </clipPath>
  </defs>
  <g id="Mask_Group_3241" data-name="Mask Group 3241" transform="translate(2254.003 8986.285)" clip-path="url(#clip-path)">
    <g transform="matrix(1, 0, 0, 1, -2254, -8986.29)" filter="url(#Path_750023)">
      <path id="Path_750023-2" data-name="Path 750023" d="M137.518,103.655C187.439,48.414,253.306,4.483,325.752.275s149.887,39.98,170.766,112.886c6.561,22.926,7.541,47.518,16.208,69.657,18.625,47.572,67.539,73.1,98.414,113.04,41.308,53.443,46.808,127.233,48.946,196,1.8,57.844,1.231,120.17-30.77,167.307-37.137,54.7-105.324,73.138-167.8,87.752-70.444,16.477-141.8,33.051-213.931,30.546S101.275,751.237,50.5,697.423C-26.173,616.155,6.009,517.4,10.566,417.9,15.869,301.949,61.315,187.991,137.518,103.655Z" transform="translate(-187.57 481.62) rotate(-45)" fill="#eb1000"/>
    </g>
    <path id="Path_750024" data-name="Path 750024" d="M1045.963,755.947c-.75-.612-1.188-.971-1.828-1.555-1.3-.839-3.111-2.155-4.747-3.349-.815-.6-1.6-1.158-2.209-1.665a12.578,12.578,0,0,1-1.3-1.232,24.306,24.306,0,0,1,2.251,1.158,29.653,29.653,0,0,1,2.659,1.475c.85.59,1.644,1.141,2.4,1.665l2.17,1.424c1.379.906,2.6,1.832,3.927,2.618,1.315.809,2.635,1.68,4.172,2.541,1.559.805,3.263,1.774,5.374,2.679a50.435,50.435,0,0,0,6.134,1.757l-1.618-.66c3.632,1.01,9.177,2.763,13.734,3.411a9.717,9.717,0,0,1-1.493-.47,23.859,23.859,0,0,0,3.332.839,43.434,43.434,0,0,0,4.349.655c1.549.222,3.179.246,4.764.365,1.589.03,3.144.1,4.563.049,1.129.033,1.926.113,2.73.125a75.742,75.742,0,0,0,16.239-2.488c2.533-.665,5.618-1.5,8.9-2.5s6.767-2.159,10.134-3.308c5.819-1.862,12.251-3.626,18.83-3.813a40.488,40.488,0,0,1,9.625.911,51.084,51.084,0,0,1,8.681,2.753,25.926,25.926,0,0,1,7.389,4.889,28.756,28.756,0,0,1,4.993,4.169,45.523,45.523,0,0,1,4.869,6.181,128.629,128.629,0,0,1,7.577,13.963,50.7,50.7,0,0,1,2.806,6.623c4.563,7.805,10.353,15.517,17.7,21.194,9.329,7.324,20.7,11.784,33.777,13.751a51.2,51.2,0,0,0,7.108.442l2.391.271c7.732.174,14.851-.831,21.527-1.7,1.148-.154,2.171-.274,3.084-.372.91-.12,1.711-.212,2.417-.278,1.417-.122,2.456-.177,3.246-.172a6.008,6.008,0,0,1,2.8.586c-4.838,1.343-9.657,2.712-15.231,3.742a75.324,75.324,0,0,1-19.589,1.134,142.567,142.567,0,0,1-15.924-1.823c-1.117-.234-2.249-.528-3.381-.826l-1.693-.463-1.649-.569c-1.091-.379-2.173-.726-3.218-1.058-1.025-.39-2.025-.735-2.994-1.006a102.5,102.5,0,0,1-11.131-6.929,77.519,77.519,0,0,1-6.381-5.261c-2-1.9-3.921-3.83-5.545-5.7-.476-.676.146.013-.691-1.154-4.625-5.235-8.345-11.728-11.816-18.488-3.506-6.727-6.906-13.872-12.115-19.692a38.413,38.413,0,0,0-9.781-7.864l-1.484-.8-1.554-.709c-1.031-.5-2.137-.858-3.227-1.268a32.5,32.5,0,0,0-6.907-1.483c-.446-.022-1.669-.216-3.121-.3a28.564,28.564,0,0,0-4.415.067c-.894.163-1.783.3-2.662.506-6.739.973-14.2,3.913-19.056,5.183a158.956,158.956,0,0,1-15.9,4.225,100.112,100.112,0,0,1-13.764,1.717,58.932,58.932,0,0,1-12.966-.673c-.808-.158-3.473-.383-5.192-.715-.794-.2-1.592-.378-2.382-.607-1.7-.379-2.893-.28-4.588-.694a92.7,92.7,0,0,1-16.549-5.886c-2.568-1.118-4.828-2.449-6.8-3.535a44.284,44.284,0,0,1-4.546-3.085c.837.4,3.995,2.06,2.8,1.082" transform="translate(-212.864 -8986.974) rotate(133)" fill="#2c2c2c"/>
    <g transform="matrix(1, 0, 0, 1, -2254, -8986.29)" filter="url(#Path_750025)">
      <path id="Path_750025-2" data-name="Path 750025" d="M140.25,105.715C191.165,49.378,258.342,4.573,332.224.281S485.09,41.057,506.383,115.41c6.691,23.384,7.691,48.463,16.529,71.042,19,48.517,68.882,74.549,100.368,115.284,42.129,54.505,47.739,129.76,49.923,199.9,1.831,58.995,1.256,122.557-31.382,170.632-37.876,55.788-107.416,74.591-171.134,89.495-71.843,16.8-144.616,33.7-218.18,31.15s-149.22-26.75-201-81.633c-78.2-82.88-45.376-183.6-40.73-285.077C16.187,307.948,62.535,191.726,140.25,105.715Z" transform="translate(673.11 182.02) rotate(53)" fill="#f68d2e"/>
    </g>
    <g transform="matrix(1, 0, 0, 1, -2254, -8986.29)" filter="url(#Ellipse_31758)">
      <circle id="Ellipse_31758-2" data-name="Ellipse 31758" cx="9" cy="9" r="9" transform="translate(871 256.5)" fill="url(#linear-gradient)"/>
    </g>
    <g transform="matrix(1, 0, 0, 1, -2254, -8986.29)" filter="url(#Path_750139)">
      <path id="Path_750139-2" data-name="Path 750139" d="M273.918,985.895a26.329,26.329,0,1,0,24.645-17.016,26.352,26.352,0,0,0-24.645,17.016" transform="translate(526.8 -754.88)" fill="#fff"/>
    </g>
    <g id="Group_446948" data-name="Group 446948" transform="translate(-1727.202 -9741.164)" clip-path="url(#clip-path-2)">
      <path id="Path_750026" data-name="Path 750026" d="M254.439,389.173c-.144-1.607-.087-3.229-.244-4.841l9.325,3.536a20.711,20.711,0,0,1-9.08,1.3" transform="translate(8.804 285.845)" fill="#e93223"/>
      <path id="Path_750027" data-name="Path 750027" d="M254.975,398.958c-.134-2.131-.2-4.268-.3-6.4a20.7,20.7,0,0,0,9.08-1.305l3.894,1.477a16.3,16.3,0,0,1-12.672,6.231" transform="translate(8.571 282.461)" fill="#4c50c6"/>
      <path id="Path_750028" data-name="Path 750028" d="M255.592,406.733c-.139-2.118-.243-4.236-.328-6.361a16.3,16.3,0,0,0,12.672-6.231l1.489.565c-1.682,3.6-3.72,7.228-7.013,9.585a14.24,14.24,0,0,1-6.819,2.442" transform="translate(8.281 281.048)" fill="#e93223"/>
      <path id="Path_750029" data-name="Path 750029" d="M256.287,413.887c-.14-2.2-.3-4.407-.381-6.614a14.241,14.241,0,0,0,6.819-2.442c3.294-2.357,5.331-5.987,7.013-9.585l.649.246c-2,4.819-3.226,10.169-6.756,14.176a12.852,12.852,0,0,1-7.345,4.219" transform="translate(7.967 280.508)" fill="#4c50c6"/>
      <path id="Path_750030" data-name="Path 750030" d="M257.085,420.9c-.141-2.256-.3-4.512-.433-6.772A12.853,12.853,0,0,0,264,409.9c3.53-4.006,4.76-9.356,6.756-14.175l.874.331c-2.908,5.884-3.733,12.579-6.86,18.372a12.965,12.965,0,0,1-7.681,6.464" transform="translate(7.602 280.272)" fill="#e93223"/>
      <path id="Path_750031" data-name="Path 750031" d="M258.074,428.207c-.213-2.33-.367-4.665-.574-7a12.962,12.962,0,0,0,7.681-6.464c3.127-5.793,3.952-12.488,6.86-18.372l2.671,1.013c-2.267,1.8-3.507,4.54-4.642,7.129-1.668,4.487-2.5,9.227-4.039,13.756-1.216,4.172-3.836,8.184-7.957,9.932" transform="translate(7.188 279.955)" fill="#4c50c6"/>
      <path id="Path_750032" data-name="Path 750032" d="M259.28,436.305c-.274-2.371-.426-4.754-.657-7.128,4.121-1.749,6.741-5.76,7.957-9.932,1.538-4.529,2.37-9.269,4.038-13.757,1.136-2.589,2.376-5.333,4.643-7.129l11.588,4.395c-4.782-.4-10.22.022-13.645,3.813-4.8,5.617-4.937,13.39-7.115,20.138-.99,3.894-3.229,7.609-6.81,9.6" transform="translate(6.639 278.986)" fill="#e93223"/>
      <path id="Path_750033" data-name="Path 750033" d="M260.7,447.566c-.415-2.37-.53-4.781-.795-7.171,3.581-1.992,5.819-5.707,6.81-9.6,2.177-6.748,2.315-14.52,7.115-20.138,3.425-3.79,8.863-4.21,13.645-3.813l45.006,17.068c-12.387-.006-24.243-4.118-36.129-7.071-4.737-1.136-9.581-2.222-14.479-1.992-4,.068-8.075,1.93-10.126,5.47-3.823,6.426-3.414,14.242-6.178,21.052a12.216,12.216,0,0,1-4.868,6.2" transform="translate(6.01 274.896)" fill="#4c50c6"/>
      <path id="Path_750034" data-name="Path 750034" d="M262.314,462.621c-.385-2.423-.65-4.864-.85-7.309a12.216,12.216,0,0,0,4.868-6.2c2.764-6.81,2.355-14.625,6.178-21.052,2.052-3.54,6.126-5.4,10.127-5.47,4.9-.23,9.741.856,14.479,1.992,11.886,2.953,23.742,7.065,36.129,7.071l16.371,6.209c-6.725,1.268-13.525,2.611-20.4,2.307-12.256-.485-23.855-4.869-35.68-7.661-4.442-.949-9.027-1.861-13.578-1.192a10.479,10.479,0,0,0-7.927,5.321c-3.027,5.437-2.991,11.826-4.637,17.7-.787,3.162-2.22,6.475-5.075,8.282" transform="translate(5.249 267.15)" fill="#e93223"/>
      <path id="Path_750035" data-name="Path 750035" d="M268.2,462.5c1.646-5.874,1.61-12.262,4.637-17.7a10.481,10.481,0,0,1,7.927-5.321c4.551-.668,9.136.243,13.579,1.193,11.824,2.792,23.424,7.175,35.679,7.661,6.88.3,13.679-1.039,20.4-2.307l16.176,6.135a75.748,75.748,0,0,0-12.5,1.183c-5.889,1.022-11.6,2.933-17.545,3.668-8.279,1.166-16.654-.368-24.657-2.479-8.745-2.153-17.273-5.408-26.29-6.3-4.112-.33-8.824.157-11.615,3.57-3.791,4.971-3.681,11.5-5.058,17.335-.675,3.455-1.95,7.028-4.842,9.243-.353-2.528-.742-5.058-.969-7.6,2.854-1.806,4.288-5.12,5.075-8.282" transform="translate(4.436 258.99)" fill="#4c50c6"/>
      <path id="Path_750036" data-name="Path 750036" d="M269.865,477.655c1.377-5.833,1.267-12.364,5.058-17.335,2.791-3.413,7.5-3.9,11.614-3.571,9.017.889,17.546,4.144,26.29,6.3,8,2.11,16.378,3.644,24.657,2.479,5.942-.735,11.656-2.646,17.545-3.668a75.724,75.724,0,0,1,12.5-1.183l25.1,9.519c-11.348-.17-22.737-2.489-34.064-.676-9.322,1.255-17.955,6.041-27.507,5.881-13.236-.082-25.543-5.594-38.288-8.422-3.8-.777-7.736-1.477-11.613-.857a9.5,9.5,0,0,0-6.985,4.8c-3.191,5.848-2.425,12.844-4.866,18.949a10.87,10.87,0,0,1-3.2,4.672c-.427-2.536-.753-5.093-1.09-7.647,2.891-2.215,4.167-5.789,4.842-9.243" transform="translate(3.509 250.475)" fill="#e93223"/>
      <path id="Path_750037" data-name="Path 750037" d="M270.353,498.7c2.441-6.1,1.675-13.1,4.866-18.949a9.5,9.5,0,0,1,6.985-4.8c3.877-.619,7.81.08,11.613.857,12.746,2.828,25.052,8.341,38.288,8.422,9.552.16,18.185-4.627,27.508-5.881,11.327-1.813,22.715.506,34.064.676l16.144,6.122c-5.261,3.107-11.574,3.112-17.482,2.739-10.912-.755-21.948-2.989-32.854-.965-9.137,1.481-17.232,7.173-26.68,7.109-15.2.113-28.988-7.51-43.82-9.638-3.352-.393-7.019-.523-10.018,1.28-2.283,1.327-3.6,3.8-4.415,6.224-1.363,4.486-1.491,9.239-2.857,13.72a10.817,10.817,0,0,1-3.394,5.424c-.408-2.55-.827-5.1-1.145-7.665a10.87,10.87,0,0,0,3.2-4.671" transform="translate(2.465 241.652)" fill="#4c50c6"/>
      <path id="Path_750038" data-name="Path 750038" d="M272.792,514.638c1.366-4.481,1.494-9.235,2.857-13.72.817-2.423,2.132-4.9,4.415-6.224,3-1.8,6.666-1.673,10.018-1.28,14.832,2.129,28.625,9.752,43.82,9.639,9.447.063,17.543-5.628,26.68-7.109,10.905-2.024,21.942.209,32.854.964,5.908.374,12.221.368,17.482-2.739l7.493,2.842c-1.769,2.515-3.644,5.1-6.334,6.705-3.8,2.361-8.421,2.7-12.792,2.569-13.008-.479-26.146-4.388-39.116-1.408-7.59,1.589-13.942,6.661-21.629,7.874a36.031,36.031,0,0,1-11.5-.2c-11.008-1.865-21.356-6.293-32.21-8.788a30.194,30.194,0,0,0-10.327-.818,8.818,8.818,0,0,0-6.5,4.085c-3.242,5.435-2.327,12.185-5,17.835a9.117,9.117,0,0,1-2.336,2.959c-.483-2.575-.873-5.167-1.269-7.758a10.816,10.816,0,0,0,3.394-5.424" transform="translate(1.37 232.623)" fill="#e93223"/>
      <path id="Path_750039" data-name="Path 750039" d="M274.217,528.537c2.676-5.65,1.76-12.4,5-17.835a8.819,8.819,0,0,1,6.5-4.085,30.172,30.172,0,0,1,10.327.818c10.854,2.495,21.2,6.924,32.209,8.788a36.047,36.047,0,0,0,11.5.2c7.688-1.213,14.04-6.285,21.63-7.874,12.971-2.98,26.108.929,39.116,1.408,4.371.131,8.987-.208,12.792-2.569,2.69-1.608,4.565-4.19,6.334-6.706l5.92,2.245c-4.323,4.267-5.435,11.278-11.077,14.325-6.111,3.227-13.331,2.031-19.881,1.286-11.873-1.516-24.49-4.419-36.068.145-5.384,2.005-9.917,5.882-15.5,7.406-5.227,1.519-10.787.909-16.027-.2-10.741-2.293-20.877-6.747-31.608-9.065-3.912-.687-8.216-1.392-11.961.384-3.6,1.823-4.809,6.075-5.518,9.748-.964,4.258-1.136,9.384-4.735,12.384-.435-2.614-.928-5.218-1.285-7.843a9.109,9.109,0,0,0,2.336-2.958" transform="translate(0.155 228.947)" fill="#4c50c6"/>
      <path id="Path_750040" data-name="Path 750040" d="M279.13,529.1c.709-3.673,1.922-7.926,5.518-9.748,3.745-1.776,8.049-1.071,11.961-.384,10.731,2.318,20.867,6.771,31.608,9.065,5.24,1.114,10.8,1.724,16.027.2,5.585-1.524,10.119-5.4,15.5-7.406,11.578-4.563,24.2-1.661,36.068-.145,6.551.746,13.77,1.941,19.881-1.286,5.643-3.047,6.755-10.057,11.077-14.324l16.615,6.3c-3.495-.726-7.139-1.491-10.69-.678a9.9,9.9,0,0,0-6.7,5.436c-2.2,4-3.309,8.846-6.98,11.855-3.6,2.936-8.485,3.1-12.914,2.893-9.011-.633-17.822-2.876-26.831-3.486-6.84-.483-14,.031-20.134,3.357-4.522,2.348-8.329,6.018-13.24,7.6-4.814,1.6-10.009,1.127-14.888.122-10.466-2.174-20.322-6.48-30.652-9.156a35.657,35.657,0,0,0-10.317-1.4,9.165,9.165,0,0,0-6.615,2.8c-4.519,5.351-2.35,13.788-7.678,18.644-.494-2.62-.937-5.249-1.355-7.882,3.6-3,3.771-8.126,4.735-12.384" transform="translate(-1.074 226.799)" fill="#e93223"/>
      <path id="Path_750041" data-name="Path 750041" d="M277.046,554.415c5.328-4.857,3.159-13.294,7.678-18.644a9.168,9.168,0,0,1,6.615-2.8,35.639,35.639,0,0,1,10.317,1.4c10.329,2.675,20.186,6.982,30.652,9.156,4.879,1.005,10.075,1.474,14.888-.122,4.911-1.577,8.719-5.248,13.24-7.595,6.133-3.327,13.295-3.841,20.134-3.357,9.009.61,17.82,2.852,26.831,3.486,4.43.2,9.312.043,12.915-2.893,3.672-3.008,4.776-7.853,6.98-11.855a9.893,9.893,0,0,1,6.7-5.435c3.551-.813,7.195-.048,10.69.678l37.923,14.382c-.626,1.637-1.241,3.273-1.861,4.906-12.734-2.542-24.33-8.866-37.012-11.6-4.063-.755-8.925-1.333-12.354,1.523-5.159,4.782-3.964,13.587-10.074,17.65-5.306,3.185-11.83,2-17.619,1.289-7.308-1.112-14.553-2.727-21.94-3.267-6.009-.432-12.266-.1-17.81,2.471-5.594,2.514-9.487,7.753-15.3,9.856-4.772,1.622-9.953,1.02-14.773-.034-9.251-2.049-18.035-5.7-27.077-8.45-4.889-1.447-9.946-2.942-15.1-2.576a8.392,8.392,0,0,0-7.22,4.9c-2.473,4.7-1.7,11.093-6.1,14.695-.488-2.578-.906-5.169-1.314-7.76" transform="translate(-2.37 221.753)" fill="#4c50c6"/>
      <path id="Path_750042" data-name="Path 750042" d="M280.924,577.762c-.442-2.611-.91-5.219-1.306-7.836,4.4-3.6,3.63-10,6.1-14.695a8.394,8.394,0,0,1,7.22-4.9c5.154-.366,10.211,1.13,15.1,2.576,9.042,2.753,17.826,6.4,27.077,8.45,4.82,1.055,10,1.657,14.773.035,5.817-2.1,9.71-7.341,15.3-9.856,5.544-2.571,11.8-2.9,17.81-2.471,7.387.54,14.632,2.155,21.941,3.267,5.789.715,12.313,1.9,17.618-1.289,6.11-4.062,4.916-12.868,10.075-17.65,3.429-2.856,8.291-2.278,12.354-1.523,12.682,2.732,24.278,9.056,37.012,11.6-.856,2.014-1.4,4.136-2.19,6.167-12.4-2.045-23.7-8.28-36.121-10.192-3.732-.545-8.229-.413-10.787,2.781-3.685,4.842-2.656,11.771-6.516,16.521-2.446,3.006-6.556,3.712-10.228,3.628-10.87-.35-21.349-3.906-32.2-4.54-6.479-.434-13.4.034-19.03,3.578-4.57,2.706-7.562,7.508-12.5,9.651-4.14,1.914-8.886,1.548-13.247.742-7.3-1.409-14.293-4.035-21.295-6.467-6.837-2.26-13.661-4.986-20.9-5.607-2.871-.175-6.062.134-8.237,2.224-4.389,4.293-2.906,11.925-7.827,15.811" transform="translate(-3.628 214.001)" fill="#e93223"/>
      <path id="Path_750043" data-name="Path 750043" d="M283.441,593.1c-.446-2.574-.863-5.153-1.268-7.732,4.921-3.886,3.438-11.518,7.827-15.811,2.175-2.089,5.366-2.4,8.238-2.224,7.241.62,14.065,3.347,20.9,5.607,7,2.432,13.992,5.058,21.3,6.467,4.36.806,9.107,1.172,13.246-.741,4.939-2.143,7.931-6.945,12.5-9.651,5.632-3.545,12.551-4.013,19.03-3.579,10.85.634,21.329,4.191,32.2,4.54,3.672.084,7.781-.622,10.227-3.628,3.861-4.75,2.831-11.679,6.516-16.521,2.559-3.194,7.055-3.326,10.787-2.781,12.424,1.912,23.721,8.148,36.121,10.192-.771,2.033-1.633,4.034-2.29,6.106-11.169-1.521-21.453-6.794-32.591-8.506-3.608-.523-8.076-.655-10.737,2.3-4.094,5.3-2,12.879-5.9,18.275-2.379,3.221-6.7,3.722-10.42,3.6-12.462-.746-24.48-5.3-37.048-5.047-4.816.056-9.753.945-13.912,3.484-4.2,2.479-6.732,6.837-10.546,9.762-3.907,3-9.188,3.068-13.832,2.259-14.3-2.546-27.258-9.789-41.5-12.529-3.5-.551-7.529-.914-10.551,1.306-4.728,3.7-3.476,11.2-8.3,14.857" transform="translate(-4.878 206.4)" fill="#4c50c6"/>
      <path id="Path_750044" data-name="Path 750044" d="M285.8,608.074c-.4-2.518-.806-5.039-1.149-7.566,4.82-3.658,3.568-11.156,8.3-14.857,3.022-2.22,7.051-1.857,10.551-1.306,14.242,2.74,27.2,9.983,41.5,12.529,4.644.808,9.925.736,13.832-2.259,3.814-2.925,6.343-7.283,10.546-9.762,4.159-2.539,9.1-3.427,13.912-3.483,12.568-.249,24.586,4.3,37.048,5.047,3.722.126,8.041-.375,10.42-3.6,3.906-5.4,1.807-12.979,5.9-18.275,2.662-2.953,7.129-2.821,10.738-2.3,11.138,1.711,21.422,6.984,32.59,8.506-.631,2.1-1.528,4.1-2.248,6.16-10.644-1.381-20.545-6.124-31.217-7.361-3.464-.346-7.785-.043-9.741,3.318-2.627,4.887-1.382,10.656-2.932,15.836a7.958,7.958,0,0,1-5.662,5.893c-3.9,1.031-7.983.494-11.909-.1-10.13-1.68-20.126-4.646-30.463-4.714-5.751,0-11.865.923-16.492,4.6-3.966,2.974-5.945,7.922-10.162,10.612-3.59,2.276-8.1,2.086-12.124,1.431-13.964-2.627-26.692-9.444-40.488-12.7-3.916-.778-8.34-1.585-12.008.476-4.994,3.147-3.922,10.571-8.735,13.863" transform="translate(-6.091 198.988)" fill="#e93223"/>
      <path id="Path_750045" data-name="Path 750045" d="M287.954,622.734c-.316-2.5-.746-4.99-1.051-7.5,4.814-3.292,3.742-10.716,8.735-13.863,3.668-2.061,8.093-1.254,12.008-.476,13.8,3.252,26.524,10.069,40.488,12.7,4.029.655,8.534.845,12.125-1.431,4.217-2.691,6.2-7.639,10.161-10.612,4.627-3.678,10.741-4.6,16.492-4.6,10.337.068,20.333,3.034,30.464,4.714,3.926.589,8.009,1.127,11.909.1a7.957,7.957,0,0,0,5.661-5.893c1.55-5.18.306-10.949,2.932-15.835,1.956-3.361,6.277-3.665,9.741-3.319,10.672,1.238,20.573,5.981,31.217,7.361-.783,2-1.532,4-2.286,6-9.658-1.1-18.735-5.033-28.391-6.128-2.909-.245-6.2-.273-8.563,1.7a9.314,9.314,0,0,0-2.552,6.189c-.566,4.882.514,10.045-1.559,14.661-1.335,2.965-4.691,4.092-7.708,4.2a50.543,50.543,0,0,1-11.6-1.232c-9.5-1.879-19-4.466-28.759-4.344-5.534.127-11.393,1.122-15.829,4.662-3.728,2.956-5.372,7.7-8.879,10.85-3.525,3.053-8.583,2.9-12.893,2.133C334.96,619.9,321.5,612.3,306.7,609.251c-4.149-.782-9.422-1.048-12.263,2.728-2.495,3.39-2.755,8.291-6.482,10.755" transform="translate(-7.19 191.823)" fill="#4c50c6"/>
      <path id="Path_750046" data-name="Path 750046" d="M289.886,637.027c-.353-2.454-.62-4.917-.926-7.377,3.726-2.465,3.987-7.366,6.481-10.755,2.841-3.776,8.113-3.511,12.263-2.728,14.807,3.046,28.262,10.646,43.12,13.512,4.31.764,9.368.92,12.893-2.133,3.506-3.155,5.15-7.894,8.879-10.85,4.437-3.54,10.3-4.535,15.829-4.662,9.758-.121,19.258,2.466,28.759,4.345a50.566,50.566,0,0,0,11.6,1.232c3.017-.106,6.374-1.233,7.709-4.2,2.073-4.615.993-9.778,1.559-14.661a9.316,9.316,0,0,1,2.552-6.189c2.366-1.971,5.655-1.943,8.563-1.7,9.656,1.1,18.732,5.027,28.391,6.128-.713,1.975-1.671,3.853-2.344,5.842-9.027-.821-17.566-4.293-26.585-5.121-2.807-.173-6.04-.162-8.185,1.942-2.451,2.695-2.282,6.637-2.029,10.024.356-3.559,3.963-5.559,7.268-5.427,9.191.01,17.891,3.719,27.034,4.3-.789,1.863-1.655,3.688-2.495,5.524-5.564-.2-10.963-1.727-16.43-2.668-3.726-.632-7.555-1.354-11.321-.608-1.561.4-3.3,1.22-3.9,2.827-.006,3.189.211,6.752-1.925,9.374-1.922,2.27-5.089,2.611-7.881,2.61-5.67-.137-11.189-1.574-16.711-2.724-10.345-2.235-21.261-4.557-31.727-1.692a16.682,16.682,0,0,0-10.057,7.028c-2.171,3.2-3.537,7.247-7.044,9.3-4.024,2.208-8.832,1.4-13.093.485-14.053-3.262-26.959-10.2-41.041-13.331-3.82-.66-8.294-1.348-11.588,1.217-3.628,2.919-3.6,8.55-7.618,11.134" transform="translate(-8.196 184.906)" fill="#e93223"/>
      <path id="Path_750047" data-name="Path 750047" d="M45.073,1322.269a42.089,42.089,0,0,1,2.873-9.678,49.1,49.1,0,0,0-2.032,10Z" transform="translate(111.065 -168.076)" fill="#e93223"/>
      <path id="Path_750048" data-name="Path 750048" d="M48.752,1300.01a56.291,56.291,0,0,1,7.083-13.147c-4.209,7.458-4.76,16.172-5.5,24.514l-3.612-1.369a49.06,49.06,0,0,1,2.032-10" transform="translate(110.26 -155.494)" fill="#4c50c6"/>
      <path id="Path_750049" data-name="Path 750049" d="M291.5,663.191c-.264-2.423-.525-4.848-.729-7.276,4.02-2.584,3.991-8.214,7.619-11.134,3.293-2.565,7.768-1.877,11.587-1.217,14.083,3.13,26.988,10.069,41.042,13.331,4.261.92,9.069,1.724,13.092-.485,3.508-2.051,4.873-6.1,7.045-9.3a16.679,16.679,0,0,1,10.057-7.028c10.465-2.865,21.382-.543,31.727,1.692,5.522,1.149,11.042,2.587,16.712,2.724,2.791,0,5.958-.34,7.88-2.61,2.136-2.622,1.92-6.185,1.926-9.374.6-1.607,2.339-2.425,3.9-2.826,3.767-.746,7.6-.024,11.321.608,5.467.941,10.866,2.469,16.43,2.668-.915,1.8-1.781,3.63-2.733,5.41-7.652-.246-15.015-2.846-22.667-3.066-2.024,0-4.23.118-5.943,1.3-.186,1.53.2,3.132.082,4.687,5.315-1.076,10.7.363,15.96,1.153a89.96,89.96,0,0,0,9.6,1.225c-.862,1.72-1.918,3.33-2.919,4.969-7.434-.092-14.65-2.582-22.1-2.43-.754-.063-.136-1.112-.443-1.6-.224,2.469-1.051,5.216-3.492,6.344-3.489,1.609-7.481,1.045-11.158.557-11.525-1.88-22.872-5.861-34.685-5.239-5.8.408-12.114,1.376-16.557,5.459-3.733,3.386-4.289,8.959-8.047,12.3-2.757,2.34-6.619,2.287-10.012,1.9-16.424-2.725-31.065-11.7-47.429-14.642-3.469-.5-7.641-.639-10.3,2.054-2.773,2.929-3.272,7.5-6.763,9.842" transform="translate(-9.082 166.019)" fill="#4c50c6"/>
      <path id="Path_750050" data-name="Path 750050" d="M53.789,1301.676c.743-8.342,1.294-17.056,5.5-24.514a63.409,63.409,0,0,1,8.572-10.137c-4,5.083-5.623,11.525-6.36,17.839-.769,6.3-1.629,12.6-2.14,18.926Z" transform="translate(106.803 -145.794)" fill="#e93223"/>
      <path id="Path_750051" data-name="Path 750051" d="M205.229,916.62a47.273,47.273,0,0,1,2.059-6.1c-.086,2.941,1.631,5.464,3.108,7.863,3.566,5.328,7.754,10.207,11.32,15.537.234.424.152-.618.323-.564,4.122-.068,8.469.538,12.381-1.093a4.027,4.027,0,0,0,2.585-3.31c.164,2.214.606,4.4.824,6.608.086,2.176-1.743,3.783-3.7,4.29-4.383,1.211-9.027.623-13.472.682-4.331-6.37-9.753-11.969-13.693-18.611a10.192,10.192,0,0,1-1.733-5.3" transform="translate(32.75 28.537)" fill="#5fa6ef"/>
      <path id="Path_750052" data-name="Path 750052" d="M204.3,904.677c.686-2.106,1.7-4.08,2.57-6.107-.442,2.6,1,5.054,2.241,7.228,3.4,5.462,7.4,10.522,11.008,15.838.068-.241.2-.721.275-.961,3.508-.012,7.148.332,10.549-.776a4.126,4.126,0,0,0,3-2.906c.116,1.194-.063,2.571-.028,3.834,2.534-3.621,7.06-4.981,11.232-5.586,11.606-1.576,23.282,1.1,34.908.1,2.59-.347,6.048-.954,6.951-3.836.5-2.035-.211-4.117-.125-6.182,2.6-.875,5.413-.672,8.116-.639,11.9.741,23.575,3.5,35.479,4.145-.105,1.993-.276,3.985-.4,5.981-11.745-.136-23.29-2.814-35.018-3.161a21.735,21.735,0,0,0-7.429.855c-.106,2.79,1.739,5.774-.063,8.379-2.106,2.541-5.722,2.632-8.75,2.972-8.4.492-16.825-.479-25.226.084-4.364.317-8.971.914-12.681,3.412a7.986,7.986,0,0,0-3.688,7.353c.36,5.056,3.192,9.44,4.654,14.2.623,2.016,1.118,4.4-.1,6.306-1.312,1.818-3.651,2.406-5.748,2.743-6.412.821-12.879.038-19.308-.089-.179-.7.187-1.513-.345-2.108-4.113-5.837-9.157-10.947-13.385-16.7a22.214,22.214,0,0,1-3.881-7.227,54.426,54.426,0,0,1,.5-7.194c.788,3.677,3.267,6.648,5.451,9.595,3.792,4.824,7.92,9.386,11.5,14.377.252.369-.091,1.213.518,1.249,5.519.11,11.112.8,16.592-.17,2.328-.383,5.132-1.611,5.386-4.294.3-3.41-1.661-6.472-2.6-9.636a5.1,5.1,0,0,1-.829,3.99c-1.568,1.818-4.113,2.1-6.347,2.406a84.993,84.993,0,0,1-12.035-.1c-3.958-5.907-8.916-11.06-13-16.878-1.6-2.309-3.237-4.77-3.638-7.614a51.9,51.9,0,0,1,1.626-6.8,10.2,10.2,0,0,0,1.733,5.3c3.94,6.642,9.362,12.241,13.693,18.612,4.445-.059,9.089.529,13.472-.682,1.96-.507,3.788-2.113,3.7-4.29-.218-2.208-.659-4.394-.824-6.608a4.025,4.025,0,0,1-2.585,3.31c-3.912,1.631-8.259,1.025-12.38,1.093-.172-.055-.09.988-.324.564-3.565-5.329-7.754-10.209-11.32-15.536-1.477-2.4-3.194-4.922-3.108-7.864" transform="translate(35.741 34.381)" fill="#6349e0"/>
      <path id="Path_750053" data-name="Path 750053" d="M214.212,893.326c.941-1.841,1.865-3.7,2.921-5.48-.63,2.566.836,4.981,1.943,7.181,2.946,5.116,6.656,9.747,9.659,14.83.387.687.317-.661.529-.888,3.644-.034,7.516.443,10.935-1.119,1.926-.783,2.139-2.985,2.638-4.727,3.661-1.9,7.961-2.177,12.038-2.309,8.342-.107,16.621,1.071,24.936,1.486,3.675.075,7.468.286,11.009-.893a4.483,4.483,0,0,0,3.278-4.01q.028-2.221.061-4.444c3.014-.722,6.165-.438,9.227-.247,11.772,1.094,23.31,3.963,35.1,4.9-.243,1.99-.431,3.986-.665,5.979-11.9-.65-23.578-3.4-35.479-4.145-2.7-.033-5.519-.236-8.116.639-.086,2.065.62,4.146.125,6.182-.9,2.882-4.361,3.489-6.951,3.836-11.626.995-23.3-1.681-34.908-.1-4.171.606-8.7,1.965-11.232,5.586-.035-1.264.144-2.64.028-3.834a4.126,4.126,0,0,1-3,2.906c-3.4,1.107-7.042.765-10.55.776-.071.24-.207.72-.275.961-3.611-5.316-7.608-10.377-11.008-15.838-1.245-2.173-2.683-4.624-2.241-7.228" transform="translate(28.396 39.625)" fill="#5fa6ef"/>
      <path id="Path_750054" data-name="Path 750054" d="M292.727,684.689c-.157-2.308-.35-4.61-.528-6.914,3.49-2.341,3.989-6.913,6.763-9.842,2.658-2.693,6.83-2.558,10.3-2.054,16.364,2.938,31.005,11.917,47.429,14.642,3.393.387,7.255.441,10.013-1.9,3.758-3.344,4.314-8.916,8.047-12.3,4.443-4.083,10.752-5.051,16.557-5.459,11.813-.622,23.16,3.359,34.684,5.24,3.678.488,7.669,1.052,11.158-.558,2.442-1.128,3.268-3.875,3.492-6.344.306.49-.312,1.539.443,1.6,7.454-.151,14.67,2.339,22.1,2.43-1.1,1.69-2.162,3.4-3.361,5.026-6.407-.407-12.686-2.073-19.1-2.376-.013,2.413-.587,5.21-2.847,6.522-2.613,1.5-5.773,1.284-8.669,1.059-8.576-1.052-16.852-3.717-25.4-4.93a48.439,48.439,0,0,0-22.961,1.491,14.088,14.088,0,0,0-8.057,5.847c-2.173,3.394-2.659,7.807-5.721,10.627-3.172,2.705-7.7,2.227-11.517,1.572-15.062-3.115-28.764-10.7-43.745-14.1-3.78-.676-8.161-1.451-11.581.823-3.549,2.457-3.718,7.67-7.5,9.9" transform="translate(-9.78 151.435)" fill="#e93223"/>
      <path id="Path_750055" data-name="Path 750055" d="M221.8,880.775c-1.107-2.2-2.573-4.615-1.943-7.181a60.58,60.58,0,0,1,3.283-5.386,6.3,6.3,0,0,0,.36,4.65c2.471,5.932,6.659,10.908,9.657,16.558.511.7.194-.869.709-.855a43.1,43.1,0,0,0,7.843-.089c1.772-.3,3.884-.766,4.754-2.541.755-1.635,1.321-3.364,2.225-4.937-3.542,2.9-8.5,1.865-12.721,1.848-.733-.3-.556.542-.736.922-2.48-5.271-6.075-9.949-8.293-15.349a7.144,7.144,0,0,1-.46-5.087c1.157-1.551,2.24-3.185,3.532-4.626-.71,1.792-.146,3.679.479,5.4,1.815,4.751,4.752,8.966,6.7,13.654.4-.8,1.391-.264,2.1-.3,4.094.185,8.679,1.022,12.354-1.308-.5.845-1.117,1.615-1.588,2.471,12.773-1.372,25.428,2.08,38.187,1.976,2.6-.167,5.511-.228,7.615-1.981,1.891-1.813,1.129-4.625,1.938-6.892,4.028-.56,8.122.019,12.132.521,10.744,1.508,21.331,4.023,32.113,5.281-.247,1.95-.592,3.886-.826,5.839-11.789-.941-23.327-3.812-35.1-4.905-3.063-.191-6.213-.474-9.228.248q-.036,2.222-.061,4.444a4.481,4.481,0,0,1-3.278,4.01c-3.541,1.18-7.333.968-11.009.894-8.315-.415-16.594-1.593-24.936-1.486-4.076.132-8.376.409-12.038,2.309-.5,1.742-.712,3.943-2.638,4.727-3.42,1.561-7.29,1.084-10.935,1.119-.212.227-.142,1.575-.529.888-3-5.083-6.712-9.715-9.659-14.83" transform="translate(25.667 53.878)" fill="#5d51d6"/>
      <path id="Path_750056" data-name="Path 750056" d="M200.089,942.836a47.887,47.887,0,0,1,1-7.071c.4,2.844,2.035,5.3,3.638,7.614,4.082,5.817,9.04,10.971,13,16.877a84.893,84.893,0,0,0,12.035.1c2.235-.307,4.779-.587,6.347-2.405a5.1,5.1,0,0,0,.83-3.991c.934,3.164,2.9,6.227,2.595,9.636-.254,2.683-3.058,3.912-5.386,4.294-5.48.969-11.073.28-16.592.17-.609-.036-.266-.879-.518-1.249-3.577-4.991-7.705-9.554-11.5-14.378-2.184-2.946-4.663-5.918-5.451-9.595" transform="translate(35.262 16.193)" fill="#5fa6ef"/>
      <path id="Path_750057" data-name="Path 750057" d="M226.5,877.283a6.307,6.307,0,0,1-.36-4.65c1.04-1.675,2.193-3.277,3.337-4.882a7.145,7.145,0,0,0,.46,5.087c2.219,5.4,5.814,10.078,8.294,15.35.18-.38,0-1.225.736-.922,4.219.017,9.179,1.048,12.721-1.848-.9,1.573-1.47,3.3-2.225,4.936-.871,1.775-2.982,2.238-4.754,2.541a43.1,43.1,0,0,1-7.843.089c-.515-.013-.2,1.554-.708.855-3-5.65-7.186-10.626-9.657-16.558" transform="translate(22.67 49.451)" fill="#5fa6ef"/>
      <path id="Path_750058" data-name="Path 750058" d="M66.839,1276.458c.738-6.315,2.361-12.756,6.361-17.839a76.372,76.372,0,0,1,10.357-8.786c-4.271,3.7-6.577,9.144-7.405,14.644-1.093,7.223-1.55,14.534-2.967,21.711-.572,3.912-1.669,7.865-1.579,11.816l-6.906-2.619c.51-6.33,1.371-12.625,2.14-18.926" transform="translate(101.468 -137.387)" fill="#4c50c6"/>
      <path id="Path_750059" data-name="Path 750059" d="M293.544,698.065c-.088-2.328-.173-4.656-.311-6.982,3.787-2.232,3.955-7.444,7.505-9.9,3.421-2.273,7.8-1.5,11.581-.823,14.982,3.408,28.683,10.989,43.745,14.1,3.814.655,8.345,1.134,11.517-1.571,3.061-2.819,3.547-7.233,5.72-10.627a14.089,14.089,0,0,1,8.057-5.847,48.435,48.435,0,0,1,22.961-1.491c8.546,1.212,16.822,3.877,25.4,4.929,2.9.225,6.056.442,8.67-1.059,2.26-1.312,2.833-4.109,2.847-6.522,6.411.3,12.689,1.969,19.1,2.376a58.023,58.023,0,0,1-3.406,4.712c-5.334-.414-10.588-1.444-15.884-2.177-.3,2.622.02,5.768-2.2,7.67-2.57,2.009-6.038,1.739-9.095,1.5-10.4-1.312-20.415-4.966-30.927-5.544a51.969,51.969,0,0,0-16.408,1.974c-3.05.911-6.236,2.017-8.392,4.489-3.36,3.646-2.988,9.311-6.437,12.867-2.854,2.69-7.135,2.335-10.7,1.762-15.387-3.013-29.345-10.8-44.617-14.224-4.16-.789-9.415-1.6-12.668,1.824-2.309,2.644-3.03,6.5-6.054,8.556" transform="translate(-10.286 145.04)" fill="#4c50c6"/>
      <path id="Path_750060" data-name="Path 750060" d="M199.262,952.189a68.58,68.58,0,0,1-.18-7.826,22.2,22.2,0,0,0,3.88,7.227c4.228,5.75,9.272,10.859,13.385,16.7.532.6.166,1.412.345,2.108,6.429.128,12.9.911,19.309.09,2.1-.337,4.436-.925,5.748-2.743,1.217-1.9.723-4.29.1-6.307-1.462-4.763-4.295-9.146-4.654-14.2a7.986,7.986,0,0,1,3.688-7.353c3.711-2.5,8.317-3.1,12.681-3.412,8.4-.563,16.824.408,25.226-.084,3.028-.34,6.643-.431,8.75-2.972,1.8-2.605-.042-5.589.063-8.379a21.727,21.727,0,0,1,7.429-.856c11.727.347,23.272,3.025,35.018,3.161-.114,1.976-.177,3.952-.254,5.925-11.445.613-22.763-2.109-34.2-2a19.943,19.943,0,0,0-6.712.991c.023,3.221,2.651,6.843.37,9.856-2.009,2.217-5.21,2.555-8.014,2.923-9.876,1-19.981-.4-29.7,2-3.959.95-8.276,3.393-8.924,7.8-.706,6.286,3.569,11.7,4.089,17.814a5.059,5.059,0,0,1-3.291,5.219c-3.089,1.205-6.452,1.292-9.724,1.33-5.546-.023-11.082-.468-16.622-.554-.289-1.075.175-2.338-.656-3.235-3.465-4.885-7.6-9.236-11.323-13.912-2.276-2.871-4.608-5.808-5.817-9.313" transform="translate(35.769 21.86)" fill="#46a8f7"/>
      <path id="Path_750061" data-name="Path 750061" d="M240.033,859.765c-.624-1.717-1.19-3.6-.479-5.4a52.491,52.491,0,0,1,3.571-4.526c-.749,2.041-.091,4.217.639,6.162,1.566,3.929,3.574,7.663,5.107,11.6a57.075,57.075,0,0,0,10.094.87c2.435-.032,5.171-.311,6.868-2.259,7.888.117,15.69,1.581,23.525,2.39,4.346.468,8.752.938,13.106.358,1.991-.346,4.338-1.08,5.067-3.191a50.2,50.2,0,0,1,1.426-5.124c5.328-.259,10.615.739,15.848,1.61,9.315,1.709,18.568,3.786,27.938,5.173-.484,1.9-.755,3.842-1.163,5.754-10.782-1.259-21.369-3.773-32.113-5.281-4.01-.5-8.1-1.08-12.133-.521-.808,2.267-.046,5.079-1.938,6.892-2.1,1.753-5.016,1.814-7.615,1.981-12.759.1-25.413-3.348-38.187-1.976.471-.856,1.088-1.626,1.588-2.471-3.676,2.33-8.26,1.493-12.355,1.308-.7.035-1.692-.5-2.1.3-1.948-4.688-4.886-8.9-6.7-13.654" transform="translate(16.125 58.209)" fill="#5fa6ef"/>
      <path id="Path_750062" data-name="Path 750062" d="M293.935,709.426c0-2.219-.027-4.441-.094-6.661,3.024-2.06,3.746-5.912,6.055-8.556,3.253-3.425,8.508-2.613,12.667-1.824,15.272,3.427,29.23,11.21,44.617,14.223,3.568.572,7.849.928,10.7-1.762,3.449-3.556,3.076-9.221,6.436-12.867,2.156-2.471,5.342-3.578,8.392-4.489a52,52,0,0,1,16.408-1.974c10.512.578,20.525,4.232,30.928,5.544,3.056.234,6.524.5,9.094-1.5,2.217-1.9,1.9-5.048,2.2-7.67,5.3.733,10.55,1.762,15.884,2.177a40.594,40.594,0,0,1-3.644,4.6c-4.238-.416-8.447-1.123-12.655-1.792-.3,1.57-.406,3.178-.767,4.737a87.824,87.824,0,0,0,9.718,1.483c-1.223,1.483-2.562,2.868-3.858,4.284a49.485,49.485,0,0,1-6.939-1.031c.27-.887.517-1.781.727-2.685-1.553,3.381-5.649,3.767-8.922,3.494-10.884-1-21.267-5.164-32.232-5.629-6-.356-11.884,1.189-17.642,2.645-2.656.752-5.408,1.66-7.409,3.655-2.481,2.5-3.217,6.118-4.007,9.43-.695,2.44-2.055,4.986-4.577,5.909-3.6,1.283-7.487.465-11.1-.316-14.119-3.436-27.2-10.15-41.364-13.44-3.981-.729-8.72-1.632-12.186,1.09-2.868,2.431-3.271,6.735-6.434,8.931" transform="translate(-10.583 140.341)" fill="#e93223"/>
      <path id="Path_750063" data-name="Path 750063" d="M247.182,851.787c-.73-1.944-1.388-4.12-.64-6.161,1.063-1.56,2.357-2.954,3.557-4.407-.966,2.912.425,5.909,1.394,8.63,1,2.806,2.626,5.644,2.87,8.56a86.8,86.8,0,0,0,12.3,1.281,12.181,12.181,0,0,0,5.773-1.066c1.363-1.048,2.563-2.307,3.937-3.343,9.382.8,18.672,3.106,28.135,3.181,2.582-.053,5.523-.164,7.505-2.041,1.318-1.936,1.737-4.338,2.926-6.364a61.172,61.172,0,0,1,8.8.838c11.356,1.84,22.492,4.813,33.859,6.609-.543,1.889-1.029,3.792-1.434,5.713-9.371-1.387-18.623-3.464-27.938-5.173-5.233-.87-10.52-1.869-15.848-1.61a50.338,50.338,0,0,0-1.426,5.125c-.729,2.11-3.076,2.844-5.067,3.19-4.354.58-8.76.11-13.106-.357-7.835-.81-15.638-2.273-23.525-2.39-1.7,1.948-4.433,2.227-6.868,2.259a57.131,57.131,0,0,1-10.094-.87c-1.534-3.939-3.541-7.675-5.107-11.6" transform="translate(12.708 62.426)" fill="#5d51d6"/>
      <path id="Path_750064" data-name="Path 750064" d="M82.755,1257.6c.828-5.5,3.134-10.947,7.405-14.644a88.246,88.246,0,0,1,10.7-7.19,19.847,19.847,0,0,0-7.484,11.623c-1.495,7.2-1.063,14.649-2.514,21.865-1.225,7.673-4.671,14.915-4.874,22.747.07.715-.165,1.5.2,2.155l-7.989-3.03c-.089-3.95,1.008-7.9,1.579-11.815,1.418-7.177,1.875-14.487,2.967-21.711" transform="translate(94.864 -130.506)" fill="#e93223"/>
      <path id="Path_750065" data-name="Path 750065" d="M200.2,967.147a65.8,65.8,0,0,1-.735-8.178c1.208,3.507,3.54,6.442,5.817,9.313,3.726,4.676,7.859,9.027,11.323,13.912.831.9.367,2.16.656,3.235,5.541.085,11.076.53,16.623.554,3.272-.037,6.635-.125,9.724-1.33a5.059,5.059,0,0,0,3.291-5.219c-.519-6.114-4.795-11.528-4.089-17.814.647-4.408,4.965-6.851,8.924-7.8,9.724-2.4,19.828-1,29.7-2.005,2.8-.368,6.005-.706,8.014-2.923,2.28-3.013-.348-6.635-.371-9.856a19.948,19.948,0,0,1,6.713-.991c11.44-.113,22.758,2.609,34.2,2-.087,2.013-.12,4.029-.171,6.044-10.707,1.1-21.391-1.2-32.1-.936a22.345,22.345,0,0,0-7.01,1.1c.583,2.4,1.284,4.774,2.026,7.125,5.443-1.68,11.235-1.138,16.837-1,6.7.166,13.5.974,20.145-.359-.032,1.95-.065,3.9-.113,5.85-4.363,1.522-9.039,1.346-13.593,1.371-6.975.088-14.123-.715-20.935,1.145-.877-2.158-1.434-4.431-2.258-6.609.084,1.508-.049,3.222-1.252,4.274-2.241,2.06-5.412,2.425-8.3,2.871-8.436,1.024-17.088.4-25.361,2.594-3.68.979-7.674,3.055-8.767,7.016-1.622,6.438,3.3,12.329,2.518,18.727-.691,3.524-4.687,4.564-7.751,4.918-8.6.9-17.237-.39-25.848-.323a18.867,18.867,0,0,1-.451-3.316c-5.194-8.227-13.191-14.512-17.411-23.389" transform="translate(35.568 15.08)" fill="#6349e0"/>
      <path id="Path_750066" data-name="Path 750066" d="M254.9,837.663c-.968-2.721-2.36-5.718-1.394-8.63,1.113-1.476,2.31-2.884,3.492-4.3-1.34,5.357,2.516,10.236,2.868,15.459-.017.4-.712,1.182.033,1.2,5.928.785,11.875,2.247,17.893,1.73,3.233-.137,5.288-2.922,7.837-4.512a20.041,20.041,0,0,1-8.3.462c-5.342-.609-10.621-1.677-15.908-2.586-.089-.561.547-1.4.646-2.1-.129-4.693-3.08-9.262-1.665-13.98,1.012-1.373,2.018-2.749,3.044-4.111-1.463,5.141,2.344,10.527-.357,15.483,5.75.885,11.412,2.263,17.167,3.129,3.543.5,7.218,1.027,10.74.113-1.008.85-2.306,1.346-3.23,2.271,7.646,1.153,15.279,2.8,23.039,2.921,2.608-.069,5.745-.155,7.544-2.346-1.189,2.026-1.608,4.428-2.925,6.364-1.982,1.876-4.923,1.988-7.505,2.041-9.464-.075-18.753-2.379-28.136-3.181-1.374,1.036-2.573,2.295-3.936,3.343a12.194,12.194,0,0,1-5.773,1.066,86.868,86.868,0,0,1-12.3-1.281c-.244-2.915-1.875-5.754-2.87-8.56" transform="translate(9.301 74.612)" fill="#5fa6ef"/>
      <path id="Path_750067" data-name="Path 750067" d="M293.707,731.913c.1-2.145.137-4.292.163-6.44,3.164-2.2,3.566-6.5,6.435-8.931,3.466-2.722,8.2-1.819,12.185-1.091,14.161,3.291,27.246,10,41.364,13.44,3.612.781,7.5,1.6,11.1.316,2.522-.923,3.882-3.468,4.577-5.909.177.492-.695,1.481-.2,1.751,3.233-2.8,7.726-2.989,11.7-3.992,3.149-.727,6.163-1.961,9.341-2.587a34.838,34.838,0,0,1,12.439.281c8.509,1.39,16.76,4.217,25.379,4.884,2.544.058,5.618.017,7.282-2.222a12.656,12.656,0,0,0,2.057.464,52.125,52.125,0,0,1-4.308,4.093c-.21-.028-.432-.049-.557.148-1.72,2.021-4.635,2.063-7.089,1.968-8.326-.63-16.3-3.408-24.509-4.772-4-.653-8.12-1.225-12.136-.4-3.152.571-5.943,2.272-9.036,3.053-3.809,1.129-7.928,1.022-11.584,2.653-.631,2.459-1.367,5.321-3.819,6.583-3.245,1.574-6.987.921-10.379.273-14.536-3.239-27.936-10.2-42.465-13.467-4.1-.716-9.207-1.645-12.461,1.682-2.245,2.45-2.669,6.229-5.469,8.222" transform="translate(-10.518 124.293)" fill="#4c50c6"/>
      <path id="Path_750068" data-name="Path 750068" d="M263.249,844.124c-.353-5.223-4.209-10.1-2.869-15.459,1.121-1.45,2.246-2.9,3.4-4.319-1.416,4.719,1.536,9.288,1.664,13.98-.1.692-.735,1.534-.646,2.1,5.287.909,10.566,1.976,15.908,2.586a20.044,20.044,0,0,0,8.3-.462c-2.549,1.589-4.6,4.375-7.838,4.512-6.018.517-11.964-.944-17.893-1.73-.745-.021-.05-.8-.033-1.2" transform="translate(5.917 70.677)" fill="#5d51d6"/>
      <path id="Path_750069" data-name="Path 750069" d="M292.921,744.586c.145-2.112.343-4.221.4-6.34,2.8-1.994,3.224-5.772,5.469-8.222,3.255-3.328,8.363-2.4,12.461-1.683,14.529,3.264,27.929,10.228,42.465,13.467,3.391.648,7.134,1.3,10.379-.272,2.451-1.263,3.188-4.124,3.819-6.584,3.656-1.631,7.775-1.524,11.584-2.653,3.094-.781,5.885-2.481,9.036-3.053,4.016-.823,8.138-.251,12.136.4,8.211,1.365,16.184,4.142,24.509,4.772,2.454.095,5.369.053,7.089-1.968.125-.2.348-.176.557-.147-1.728,1.611-3.082,3.562-4.824,5.157-2.914,1.469-6.29,1.067-9.4.638-8.716-1.343-17.143-4.219-25.937-5.116a19.129,19.129,0,0,0-8.913.918c-2.239.813-4.135,2.353-6.411,3.06-3.366,1.11-6.952,1.041-10.409,1.674-.533,1.258-.9,2.583-1.313,3.88,3.333-.225,6.906-.014,9.9-1.758,1.813-1.188,3.417-2.754,5.47-3.537a19.334,19.334,0,0,1,7.767-.664c9.18.984,17.956,4.141,27.1,5.31a15.97,15.97,0,0,0,7.833-.513c-1.312,1.1-2.732,2.058-3.993,3.208a16.064,16.064,0,0,1-6.82.735c-9.979-1.026-19.48-4.757-29.49-5.564-3.372-.267-7.243.014-9.432,2.974,4.24-.482,8.466.409,12.6,1.248,7.07,1.456,14.021,3.591,21.23,4.316a15.6,15.6,0,0,0,5.546-.335c-.269.6,1.436.537,2.057.75-1.412,1.413-2.853,2.8-4.265,4.209-1.707-.361-3.4-.8-5.113-1.148.407-.358.961-.547,1.405-.883a18.509,18.509,0,0,1-5.28.146c-10.476-1.12-20.455-5.132-31-5.788-2.061,1.193-4.514,1.246-6.828,1.189-.714.031.247-.693.006-.974a5.847,5.847,0,0,1-3.489,2.526c-3.195.753-6.5.143-9.653-.534-13.914-3.244-26.853-9.723-40.809-12.81-3.9-.7-8.552-1.56-11.888,1.145-2.657,2.4-2.747,6.542-5.558,8.821" transform="translate(-10.133 117.961)" fill="#e93223"/>
      <path id="Path_750070" data-name="Path 750070" d="M202.244,990.544A79.7,79.7,0,0,1,200.9,982.2c4.22,8.877,12.217,15.162,17.411,23.389a18.773,18.773,0,0,0,.451,3.316c8.61-.067,17.247,1.224,25.848.323,3.064-.354,7.06-1.395,7.751-4.918.782-6.4-4.14-12.289-2.518-18.727,1.093-3.961,5.086-6.037,8.767-7.015,8.274-2.19,16.926-1.57,25.362-2.594,2.889-.446,6.06-.811,8.3-2.871,1.2-1.052,1.336-2.767,1.252-4.274.824,2.177,1.381,4.45,2.258,6.609,6.812-1.861,13.96-1.058,20.935-1.146,4.553-.025,9.23.15,13.592-1.372-.06,1.927-.1,3.853-.173,5.777-3.078,1.727-6.713,1.819-10.139,2.072-7.241.44-14.646-.294-21.723,1.589-.681-1.569-1.1-3.238-1.818-4.8a5.554,5.554,0,0,1-4.016,6.362c-10,3.3-21.158,1.384-30.8,6.01a9.187,9.187,0,0,0-5.339,7.244c-.608,4.979,2.052,9.691,1.678,14.649a5.939,5.939,0,0,1-4.29,5.1,33.3,33.3,0,0,1-10.665,1.255c-7.729,0-15.442-.9-23.174-.623-.657-1.758-.05-4.191-1.583-5.707-5-7.361-12-13.292-16.024-21.311" transform="translate(34.865 0.022)" fill="#46a8f7"/>
      <path id="Path_750071" data-name="Path 750071" d="M291.626,756.86c.224-2.089.466-4.185.661-6.283,2.811-2.279,2.9-6.42,5.559-8.821,3.336-2.705,7.989-1.847,11.888-1.145,13.956,3.087,26.894,9.567,40.809,12.81,3.155.677,6.458,1.286,9.653.534a5.848,5.848,0,0,0,3.489-2.526c.242.281-.719,1.005-.006.974,2.314.058,4.767,0,6.828-1.189,10.544.656,20.523,4.668,31,5.788a18.514,18.514,0,0,0,5.281-.146c-.445.336-1,.525-1.406.883,1.714.343,3.405.787,5.113,1.148-1.434,1.418-2.741,2.961-4.218,4.329-2.968-.738-5.938-1.47-8.914-2.172,1.155-.573,2.411-.942,3.555-1.528a25.317,25.317,0,0,1-7.594-.18c-8.509-1.309-16.739-4.017-25.268-5.244-.78-.306-1.214.554-1.774.908-1.25,1.232-3.071,1.115-4.682,1.285a6.023,6.023,0,0,1-3.393,2.9c-4.012,1.083-8.172-.01-12.1-.934-12.33-3.173-24-8.5-36.393-11.445-3.862-.75-8.114-1.715-11.85.029-3.742,2.1-3.443,7.121-6.236,10.029" transform="translate(-9.5 111.969)" fill="#4c50c6"/>
      <path id="Path_750072" data-name="Path 750072" d="M272.564,827.7c2.7-4.956-1.106-10.342.357-15.483.964-1.42,1.909-2.857,2.889-4.268-.994,3.493.247,7.1-.253,10.635-.194,1.533-1,2.9-1.309,4.4,8.362,1.3,16.523,3.713,24.937,4.714a20.64,20.64,0,0,0,7.031-.3c-.4.264-.817.5-1.214.761,6.425,1,12.845,2.436,19.376,2.4a10.27,10.27,0,0,0,6.372-1.756c-1.083,1.6-2,3.3-2.927,4.988-1.8,2.192-4.936,2.278-7.543,2.346-7.761-.121-15.394-1.768-23.04-2.921.924-.925,2.222-1.421,3.231-2.271-3.522.913-7.2.385-10.74-.113-5.754-.866-11.417-2.245-17.167-3.129" transform="translate(-0.179 78.696)" fill="#5d51d6"/>
      <path id="Path_750073" data-name="Path 750073" d="M100.826,1236.809a19.846,19.846,0,0,1,7.484-11.623c2.966-1.992,6.182-3.572,9.274-5.355.525-.459,2.844-.725,1.775-1.688q2.392-2.073,4.9-4.008c.315.6.982,1.192,1.131,1.771-4.631,2.221-9.539,4.891-11.909,9.709-3.293,6.724-1.9,14.376-2.527,21.575-.327,7.865-3.093,15.342-6.149,22.5-2.41,5.43-3.93,12.038-1.221,17.653l-9.938-3.769c-.369-.653-.135-1.44-.2-2.155.2-7.832,3.65-15.074,4.874-22.747,1.451-7.215,1.019-14.661,2.514-21.865" transform="translate(87.42 -119.93)" fill="#4c50c6"/>
      <path id="Path_750074" data-name="Path 750074" d="M289.848,768.54c.3-2,.631-3.987.909-5.989,2.793-2.908,2.494-7.934,6.236-10.029,3.735-1.744,7.987-.779,11.849-.029,12.4,2.941,24.063,8.272,36.394,11.445,3.927.923,8.087,2.016,12.1.934a6.021,6.021,0,0,0,3.393-2.9c1.612-.17,3.432-.054,4.683-1.286.56-.353.993-1.214,1.774-.908,8.53,1.227,16.759,3.936,25.268,5.244a25.322,25.322,0,0,0,7.595.18c-1.144.586-2.4.955-3.556,1.528,2.977.7,5.947,1.433,8.914,2.172-1.285,1.511-2.644,2.962-3.98,4.43-4.387-1.128-8.791-2.186-13.172-3.331,1.825-.854,3.775-1.432,5.6-2.275-3.655.573-7.343-.075-10.937-.741-6.622-1.287-13.121-3.168-19.765-4.328-1.541.752-2.61,2.452-4.37,2.825-.4.132-.553.582-.776.9.5-.062.761-.7,1.264-.673,7.417,1.514,14.712,3.689,22.242,4.593a24.3,24.3,0,0,0,5.876-.028c-3.358,1.385-6.786,3.184-10.538,2.745-6.959-.493-13.695-2.466-20.492-3.913-.35.005-.009-.288.053-.45-2.044,1.663-4.815,1.688-7.311,1.462-15.23-2.147-29.1-9.629-44.18-12.458-3.478-.514-7.721-1.191-10.6,1.378-2.642,2.55-2.2,6.719-4.469,9.5" transform="translate(-8.631 106.279)" fill="#5d51d6"/>
      <path id="Path_750075" data-name="Path 750075" d="M277.168,814.19c.5-3.534-.741-7.143.253-10.636.914-1.525,1.853-3.036,2.725-4.591-1.007,2.735-.472,5.7-.912,8.529.544-.678.478-1.8.976-2.519a41.562,41.562,0,0,1,9.929,1.286c9.866,2.12,19.429,5.729,29.505,6.81a11.261,11.261,0,0,0,8.53-2.218c5.449.745,11.138,2.29,16.582.661-.48.428-1.008.78-1.468,1.221,11.783,2.079,23.27,5.5,34.987,7.887-.816,1.76-1.587,3.537-2.415,5.288-12.745-2.551-25.258-6.27-38.141-8.093.735-.884,1.65-1.595,2.432-2.44-5.939,2.355-12.433.259-18.494-.482-2.4,1.723-5.435,1.891-8.274,1.57-11.664-1.352-22.708-5.979-34.419-7.008-.826,1.285-1.021,3.063-1.641,4.531,9.587,1.179,18.792,4.4,28.364,5.69,2.9.374,6,.665,8.759-.513,5.19.844,10.394,1.952,15.678,1.9a11.862,11.862,0,0,0,5.762-1.293,36.53,36.53,0,0,0-2.731,3.567c13.771,1.468,27.063,5.656,40.7,7.936-.681,1.824-1.2,3.7-1.757,5.565-11.367-1.8-22.5-4.769-33.858-6.609a61.18,61.18,0,0,0-8.8-.838c.928-1.692,1.843-3.388,2.926-4.988a10.273,10.273,0,0,1-6.372,1.756c-6.531.038-12.952-1.4-19.376-2.4.4-.262.808-.5,1.213-.761a20.651,20.651,0,0,1-7.031.3c-8.413-1-16.574-3.409-24.936-4.713.313-1.5,1.115-2.866,1.309-4.4" transform="translate(-1.79 83.089)" fill="#5fa6ef"/>
      <path id="Path_750076" data-name="Path 750076" d="M205.373,1007.5a82.738,82.738,0,0,1-1.844-8.6c4.025,8.019,11.025,13.95,16.024,21.311,1.532,1.516.925,3.949,1.583,5.707,7.732-.282,15.445.62,23.173.623a33.321,33.321,0,0,0,10.664-1.255,5.94,5.94,0,0,0,4.29-5.1c.374-4.958-2.285-9.67-1.677-14.649a9.184,9.184,0,0,1,5.339-7.244c9.643-4.626,20.8-2.712,30.8-6.01a5.554,5.554,0,0,0,4.016-6.363c.715,1.56,1.137,3.229,1.817,4.8,7.077-1.883,14.482-1.149,21.723-1.589,3.426-.253,7.062-.344,10.139-2.072-.13,1.869-.159,3.743-.339,5.609a8.78,8.78,0,0,1-4.518,2.161c-8.019,1.6-16.336.651-24.309,2.519-.7-.719-.73-1.949-1.285-2.825a5.731,5.731,0,0,1-3.805,7.021c-8.1,3.15-17.187,2.5-25.23,5.907-3.008,1.207-5.9,3.411-6.849,6.646-1.544,5.018,1.067,10.181.027,15.234-.78,3.664-4.884,4.976-8.13,5.448-11.449,1.362-22.962-.967-34.428-.081-.578-1.663-.555-3.711-1.1-5.471-4.649-7.759-11.835-13.7-16.081-21.73" transform="translate(33.58 -8.334)" fill="#6349e0"/>
      <path id="Path_750077" data-name="Path 750077" d="M282.465,803.758c.439-2.827-.1-5.794.912-8.529.668-1.3,1.359-2.584,1.989-3.9a76.392,76.392,0,0,1-1.624,8.044c.814-.605.212-2.773,1.7-2.6,4.256-.425,8.472.718,12.591,1.635,9.057,2.185,17.87,5.368,27.058,7.006,4.037.755,8.76,1.053,11.9-2.159,5.218.68,10.651,2.223,15.926.933a1.442,1.442,0,0,0,.329.24c10.376,2.168,20.583,5.076,30.939,7.364-.9,1.7-1.765,3.411-2.681,5.1C369.789,814.5,358.3,811.078,346.519,809c.459-.44.987-.793,1.468-1.221-5.443,1.629-11.133.084-16.582-.661a11.26,11.26,0,0,1-8.53,2.218c-10.076-1.081-19.639-4.689-29.5-6.81a41.581,41.581,0,0,0-9.929-1.286c-.5.72-.432,1.842-.976,2.519" transform="translate(-5.02 86.823)" fill="#5d51d6"/>
      <path id="Path_750078" data-name="Path 750078" d="M288.242,776.444c.2-.827.339-1.672.514-2.51,2.269-2.781,1.826-6.95,4.469-9.5,2.883-2.569,7.126-1.892,10.6-1.378,15.084,2.829,28.951,10.311,44.18,12.457,2.5.227,5.266.2,7.311-1.461-.061.161-.4.454-.053.449,6.8,1.448,13.532,3.421,20.492,3.914,3.752.439,7.18-1.36,10.538-2.745a24.252,24.252,0,0,1-5.876.028c-7.531-.9-14.825-3.079-22.242-4.593-.5-.022-.764.612-1.264.673.222-.315.377-.764.775-.9,1.76-.372,2.83-2.072,4.371-2.825,6.645,1.16,13.143,3.04,19.765,4.328,3.594.666,7.283,1.315,10.937.742-1.826.844-3.776,1.421-5.6,2.276,4.381,1.144,8.785,2.2,13.172,3.33-1.172,1.538-2.535,2.916-3.682,4.469-5.983-1.283-11.874-2.987-17.817-4.44-1.417.372-2.7,1.15-4.09,1.625-2.122.963-4.51.761-6.771.66-5.376-.466-10.611-1.993-15.888-2.911-2.666,2.749-6.869,2.026-10.262,1.532-13.058-2.539-25.277-8.151-38.261-10.973-3.422-.607-7.083-1.314-10.458-.094-2.476.949-3.266,3.695-3.731,6.043,2.613-2.028,6.126-1.734,9.2-1.327,13.469,2.244,26.006,8.195,39.445,10.579,3.645.627,8.078.892,10.752-2.174a106.624,106.624,0,0,0,12.438,2.2c2.563.185,5.3.314,7.654-.893.756-.266,1.523-1,2.377-.581,7.249,1.85,14.479,3.76,21.749,5.513-1.129,1.572-2.156,3.214-3.281,4.788-8.874-2.075-17.668-4.51-26.552-6.558-6.012,2.143-12.551.245-18.655-.8a8.807,8.807,0,0,1-6.55,2.779c-4.173.008-8.236-1.1-12.261-2.086-8.527-2.276-16.878-5.208-25.5-7.157-3.769-.707-7.746-1.618-11.521-.471-.656.1-.612.98-1.06,1.255a29.693,29.693,0,0,0,.626-3.266" transform="translate(-7.539 100.884)" fill="#5d51d6"/>
      <path id="Path_750079" data-name="Path 750079" d="M284.964,798.584a76.417,76.417,0,0,0,1.624-8.044c.114-.267.232-.54.358-.822a29.653,29.653,0,0,1-.626,3.266c.448-.275.4-1.153,1.06-1.255,3.775-1.148,7.752-.236,11.521.471,8.617,1.949,16.969,4.88,25.5,7.156,4.025.989,8.088,2.095,12.261,2.086a8.811,8.811,0,0,0,6.55-2.779c6.1,1.044,12.643,2.943,18.655.8,8.884,2.048,17.678,4.484,26.552,6.558-1,1.661-1.978,3.338-3.006,4.981-10.355-2.288-20.563-5.2-30.939-7.363a1.444,1.444,0,0,1-.329-.24c-5.274,1.291-10.707-.252-15.926-.932-3.139,3.212-7.862,2.914-11.9,2.159-9.189-1.638-18-4.821-27.058-7.006-4.12-.917-8.335-2.059-12.591-1.635-1.492-.174-.889,1.994-1.7,2.6" transform="translate(-6.242 87.61)" fill="#5fa6ef"/>
      <path id="Path_750080" data-name="Path 750080" d="M291.055,779.774c.466-2.349,1.256-5.094,3.731-6.043,3.375-1.22,7.035-.513,10.458.093,12.983,2.821,25.2,8.434,38.26,10.973,3.394.493,7.6,1.216,10.262-1.533,5.277.918,10.512,2.445,15.888,2.911,2.261.1,4.649.3,6.771-.659,1.389-.475,2.673-1.253,4.09-1.625,5.944,1.453,11.835,3.156,17.818,4.439-1.281,1.54-2.438,3.173-3.659,4.76-7.27-1.753-14.5-3.663-21.75-5.513-.854-.422-1.62.315-2.377.581-2.354,1.208-5.091,1.079-7.654.893a106.476,106.476,0,0,1-12.438-2.2c-2.674,3.066-7.107,2.8-10.752,2.175-13.439-2.384-25.976-8.335-39.444-10.579-3.078-.407-6.591-.7-9.2,1.327" transform="translate(-9.221 95.755)" fill="#5fa6ef"/>
      <path id="Path_750081" data-name="Path 750081" d="M278.724,824.024c.621-1.468.816-3.245,1.641-4.531,11.712,1.03,22.755,5.656,34.419,7.009,2.839.321,5.874.153,8.274-1.57,6.06.741,12.555,2.838,18.494.482-.782.846-1.7,1.557-2.432,2.441,12.884,1.823,25.4,5.541,38.142,8.092-.674,1.791-1.36,3.572-2.01,5.367-13.631-2.281-26.924-6.469-40.695-7.936a36.507,36.507,0,0,1,2.731-3.567,11.857,11.857,0,0,1-5.762,1.293c-5.285.05-10.489-1.058-15.678-1.9-2.764,1.177-5.861.887-8.76.512-9.572-1.294-18.777-4.511-28.364-5.69" transform="translate(-3.191 73.05)" fill="#5d51d6"/>
      <path id="Path_750082" data-name="Path 750082" d="M209.547,1022.84c-.941-2.921-1.752-5.889-2.41-8.887,4.245,8.033,11.432,13.971,16.081,21.73.547,1.76.523,3.808,1.1,5.471,11.468-.886,22.981,1.444,34.428.081,3.247-.472,7.351-1.784,8.131-5.448,1.04-5.053-1.571-10.216-.027-15.234.945-3.235,3.84-5.439,6.849-6.646,8.043-3.4,17.131-2.757,25.23-5.907a5.732,5.732,0,0,0,3.805-7.022c.554.876.589,2.106,1.285,2.825,7.972-1.868,16.289-.917,24.309-2.519a8.779,8.779,0,0,0,4.518-2.162c-.1,1.9-.3,3.788-.537,5.672-1.411,1.978-3.919,2.635-6.176,3.09-6.4,1.231-13,.984-19.374,2.393-.2.031-.323-.187-.475-.288a6.025,6.025,0,0,1-.567,5.02,10.951,10.951,0,0,1-5.288,3.353c-6.346,2.106-13.14,2.716-19.3,5.421-2.81,1.332-5.509,3.341-6.65,6.35-1.821,4.424-.112,9.293-1.24,13.832a7.217,7.217,0,0,1-5.05,4.982c-4.086,1.347-8.434,1.384-12.689,1.379-9.823.024-19.71-1.6-29.484-.178-.924-2.582-.6-5.8-2.35-8.147-4.23-6.737-10.269-12.175-14.122-19.161" transform="translate(31.815 -14.789)" fill="#46a8f7"/>
      <path id="Path_750083" data-name="Path 750083" d="M119.288,1243.419c.623-7.2-.766-14.851,2.527-21.575,2.369-4.818,7.278-7.488,11.908-9.709-.149-.579-.817-1.17-1.131-1.771,1.8-1.337,3.57-2.713,5.449-3.94.876.863,1.238,3.6,2.858,2.477-4.134,2.23-7.812,5.856-8.746,10.616-1.24,6.079.111,12.256,0,18.382a37.282,37.282,0,0,1-2.891,15.152c-2.517,6.642-7.43,12.158-9.222,19.1-1.436,6.02,1.5,12.11,5.4,16.552l-13.523-5.128c-2.709-5.614-1.189-12.222,1.222-17.652,3.055-7.16,5.822-14.637,6.148-22.5" transform="translate(79.082 -116.16)" fill="#e93223"/>
      <path id="Path_750084" data-name="Path 750084" d="M140.7,1223.667c.565-.59,1.153-1.156,1.775-1.688,1.069.964-1.25,1.229-1.775,1.688" transform="translate(64.303 -123.766)" fill="#e93223"/>
      <path id="Path_750085" data-name="Path 750085" d="M214.454,1036.786c-.951-2.807-1.891-5.637-2.6-8.518,3.853,6.986,9.892,12.424,14.122,19.161,1.749,2.346,1.426,5.566,2.35,8.147,9.774-1.419,19.66.2,29.484.178,4.255.005,8.6-.031,12.689-1.379a7.216,7.216,0,0,0,5.05-4.982c1.127-4.539-.582-9.408,1.24-13.832,1.142-3.009,3.84-5.019,6.65-6.35,6.159-2.705,12.952-3.315,19.3-5.421a10.949,10.949,0,0,0,5.288-3.353,6.027,6.027,0,0,0,.567-5.021c.151.1.273.319.475.288,6.374-1.409,12.975-1.163,19.374-2.394,2.258-.455,4.766-1.112,6.177-3.09-.178,1.751-.41,3.5-.736,5.223-.653,2.5-3.371,3.39-5.592,3.967-5.55,1.289-11.282,1.451-16.865,2.545.834,2.271,1.914,4.842.728,7.225-1.277,2.464-4.053,3.557-6.466,4.584-4.915,1.844-10.131,2.886-14.831,5.273a13.6,13.6,0,0,0-6.535,6.412c-1.911,4.147-.84,8.956-2.576,13.156a8.9,8.9,0,0,1-5.477,4.354,40.763,40.763,0,0,1-11.608,1.365c-8.272.037-16.523-.8-24.8-.77a33.413,33.413,0,0,0-9.35,1.11c-.213.114-.336-.1-.431-.255-.758-3.261-.928-6.806-2.786-9.7-3.864-6.271-9.376-11.388-12.839-17.926" transform="translate(29.508 -20.217)" fill="#6349e0"/>
      <path id="Path_750086" data-name="Path 750086" d="M140.95,1215.9c.935-4.76,4.612-8.386,8.746-10.616-1.62,1.119-1.982-1.615-2.859-2.478,1.934-1.282,3.852-2.588,5.847-3.776.9,1.2,1.592,2.583,2.558,3.724,2.211-.7,4.257-1.879,6.462-2.574-2.971,1.616-5.948,3.676-7.436,6.83-2.059,3.889-1.49,8.482-1.009,12.677,1.032,7,2.32,14.272.316,21.229-1.776,7.128-6.774,12.7-11.06,18.439-2.358,3.253-4.683,6.986-4.589,11.148a17.026,17.026,0,0,0,2.9,8.659,64.277,64.277,0,0,0,11.651,12.837l-18.238-6.916c-3.9-4.442-6.835-10.532-5.4-16.552,1.792-6.94,6.706-12.456,9.222-19.1a37.281,37.281,0,0,0,2.891-15.152c.11-6.126-1.24-12.3,0-18.382" transform="translate(70.285 -112.547)" fill="#4c50c6"/>
      <path id="Path_750087" data-name="Path 750087" d="M220.252,1071.675c-1.235-3.106-2.293-6.284-3.312-9.467,3.463,6.538,8.975,11.656,12.839,17.926,1.859,2.892,2.028,6.438,2.786,9.7-3.127-6.672-8.76-11.736-12.313-18.157" transform="translate(27.022 -45.638)" fill="#5fa6ef"/>
      <path id="Path_750088" data-name="Path 750088" d="M161.736,1188.807c2.1-1.274,4.222-2.528,6.383-3.708,1.011,1.595,2.04,3.178,3.07,4.757,2.274-1.217,4.772-1.968,7.141-2.98-1.105-1.787-2.346-3.492-3.4-5.309,2.293-1.264,4.7-2.332,7.066-3.449,1.227,1.836,2.47,3.664,3.552,5.591.378.354-.305.534-.5.593-3.6,1.37-7.271,3.392-9.254,6.828-1.838,3.186-1.681,6.993-1.083,10.487,1.557,8.469,4.853,17.216,2.315,25.853-2.359,9.192-10.327,14.9-16.334,21.621-1.922,2.273-3.745,4.875-4.17,7.888-.7,5.106,2.372,9.713,5.429,13.495,5.926,6.985,13.051,12.794,19.777,18.967l-20.206-7.663a64.262,64.262,0,0,1-11.651-12.838,17.023,17.023,0,0,1-2.9-8.659c-.094-4.162,2.231-7.9,4.589-11.148,4.286-5.738,9.284-11.311,11.06-18.439,2-6.957.716-14.233-.316-21.23-.481-4.2-1.05-8.789,1.009-12.677,1.488-3.155,4.465-5.215,7.436-6.831-2.2.695-4.251,1.876-6.462,2.574-.966-1.14-1.658-2.519-2.558-3.723" transform="translate(61.234 -102.318)" fill="#e93223"/>
      <path id="Path_750089" data-name="Path 750089" d="M226.876,1090.025c-1.252-3.054-2.444-6.144-3.453-9.29,3.553,6.421,9.185,11.485,12.313,18.157.627,2.3,1.152,4.634,1.629,6.969-2.745-5.744-7.3-10.359-10.489-15.836" transform="translate(23.851 -54.698)" fill="#4c50c6"/>
      <path id="Path_750090" data-name="Path 750090" d="M188.352,1188.4c2.265-1.19,4.48-2.486,6.815-3.531,1.05,1.817,2.291,3.522,3.4,5.309-2.369,1.012-4.867,1.763-7.142,2.98-1.03-1.579-2.058-3.163-3.07-4.758" transform="translate(41.001 -105.619)" fill="#4c50c6"/>
      <path id="Path_750091" data-name="Path 750091" d="M233.7,1069.46c-1.274-2.929-2.454-5.907-3.52-8.919,3.191,5.477,7.744,10.093,10.489,15.836-.477-2.335-1-4.667-1.629-6.969.1.154.219.369.431.255a33.386,33.386,0,0,1,9.35-1.11c8.275-.033,16.526.807,24.8.77a40.785,40.785,0,0,0,11.608-1.365,8.9,8.9,0,0,0,5.477-4.354c1.736-4.2.666-9.009,2.577-13.156a13.6,13.6,0,0,1,6.535-6.412c4.7-2.387,9.916-3.429,14.832-5.273,2.412-1.027,5.189-2.12,6.466-4.584,1.186-2.383.106-4.954-.728-7.224,5.584-1.094,11.316-1.256,16.865-2.545,2.221-.576,4.94-1.464,5.592-3.967q-.631,3.488-1.4,6.943a7.247,7.247,0,0,1-3.891,2.723c-4.766,1.624-9.863,1.787-14.751,2.86.76,1.887,1.578,3.754,2.23,5.681,3.566-.866,7.272-1.184,10.745-2.425a7.615,7.615,0,0,0,4.329-2.974c-.459,1.9-1.057,3.762-1.618,5.631-2.43,3.638-7.414,3.894-11.261,4.894-.848-1.464-1.18-3.168-2.006-4.638a6.814,6.814,0,0,1-3.114,7.358c-3.6,2.387-7.81,3.574-11.689,5.415-3.982,1.707-7.956,4.257-9.84,8.319-2.112,4-1.439,9.023-4.234,12.717-2.226,2.723-5.806,3.719-9.14,4.233-10.766,1.375-21.607-.188-32.4-.169-4.483.044-9.231-.107-13.325,1.975.223,2.4,1.627,4.815,1.684,7.31-.594-1.434-.533-3.106-1.409-4.43-2.414-4.3-5.63-8.1-8.053-12.405" transform="translate(20.547 -25.214)" fill="#5fa6ef"/>
      <path id="Path_750092" data-name="Path 750092" d="M183.758,1198.43c-.6-3.495-.755-7.3,1.083-10.487,1.982-3.436,5.658-5.458,9.254-6.828.2-.059.88-.24.5-.594-1.082-1.927-2.325-3.755-3.552-5.591,2.447-1.139,4.916-2.232,7.381-3.33a42.209,42.209,0,0,1,3.932,6.219c.239.1.49-.037.733-.057-3.075,1.666-6.16,3.951-7.073,7.535-1.192,5.073.88,10.1,2.324,14.9,2.226,6.8,4.425,14.2,2.318,21.322-2.133,7.7-8.593,12.959-14.7,17.583-4.119,3.3-8.955,6.405-10.868,11.571-1.4,4.579,1.1,9.224,3.83,12.768,6.866,8.9,16.073,15.59,23.41,24.056a29.286,29.286,0,0,1,2.66,3.657c2.629-1.206,6.465-1.621,8.723-4.092a73.762,73.762,0,0,1-4.188,6.3l-18.756-7.113c-6.726-6.173-13.851-11.981-19.777-18.967-3.058-3.782-6.126-8.388-5.429-13.495.425-3.012,2.247-5.615,4.17-7.888,6.007-6.722,13.975-12.429,16.334-21.62,2.538-8.637-.758-17.384-2.315-25.853" transform="translate(52.19 -99.131)" fill="#4c50c6"/>
      <path id="Path_750093" data-name="Path 750093" d="M240.773,1096.325c-1.3-3.044-2.571-6.107-3.7-9.219,2.423,4.3,5.639,8.1,8.053,12.405.876,1.323.816,3,1.409,4.43-.058-2.5-1.461-4.913-1.684-7.31,4.094-2.082,8.841-1.931,13.325-1.975,10.8-.019,21.636,1.544,32.4.169,3.335-.513,6.914-1.51,9.141-4.233,2.794-3.694,2.121-8.714,4.233-12.717,1.884-4.062,5.858-6.612,9.84-8.319,3.879-1.841,8.09-3.028,11.689-5.415a6.814,6.814,0,0,0,3.113-7.358c.825,1.471,1.157,3.174,2.006,4.638,3.847-1,8.831-1.256,11.26-4.893-.61,1.974-1.41,3.88-2.142,5.809-1.734,2.331-4.984,3.3-7.537,3.826.746,3.006-.959,6-3.43,7.654-5.246,3.745-11.914,5.563-16.1,10.711-3.371,3.824-3.481,9.273-6.283,13.392-2.737,3.705-7.551,4.689-11.853,5.253-13.052,1.284-26.15-.988-39.209,0a18.024,18.024,0,0,0-6.808,1.782c-.356.344-1.258.63-1.04,1.284.46,1.757,1.3,3.476,1.269,5.325-.336,1.765.687,3.416.824,5.148-.67-.826-1-1.86-1.632-2.709.268,1.131.957,2.138,1.16,3.276-1.259.5-2.52,1.011-3.8,1.443a38.248,38.248,0,0,0-4.135-6.588c1.68-.782,3.475-1.356,5.143-2.122-.662-1.685-1.388-3.349-2.013-5.051,1.306,2.258,2.6,4.527,4.056,6.689a53.336,53.336,0,0,0-1.389-5.534c-1.975-3.315-4.177-6.492-6.168-9.792" transform="translate(17.178 -42.86)" fill="#5d51d6"/>
      <path id="Path_750094" data-name="Path 750094" d="M207.254,1120.889c2.58-1.035,5.1-2.215,7.706-3.194a38.264,38.264,0,0,1,4.136,6.588c1.28-.431,2.541-.947,3.8-1.443-.2-1.137-.893-2.144-1.16-3.275.631.849.961,1.883,1.632,2.708-.137-1.732-1.16-3.383-.824-5.148.03-1.848-.809-3.567-1.269-5.325-.218-.654.684-.939,1.04-1.284a18.013,18.013,0,0,1,6.808-1.782c13.059-.992,26.156,1.28,39.208,0,4.3-.564,9.116-1.548,11.853-5.253,2.8-4.119,2.912-9.568,6.283-13.392,4.186-5.149,10.853-6.966,16.1-10.711,2.471-1.652,4.175-4.648,3.43-7.653,2.552-.531,5.8-1.5,7.537-3.826-1.269,3.05-2.436,6.68-5.86,7.928.5,1.669,1.171,3.287,1.6,4.983a7.77,7.77,0,0,1-2.218,6.741c-3.969,4.009-9.459,6.153-13.253,10.377-3.905,3.826-4.7,9.617-8.244,13.675-3,3.3-7.582,4.35-11.829,4.906-13.7,1.559-27.5-.825-41.226.338-3.014.465-6.645.786-8.514,3.527.474,1.883,1.494,4.016.318,5.9-.483-1.049-.785-2.17-1.258-3.22-3.6,1.415-6.637,4.87-6.646,8.88-.072,3.553,1.251,6.926,2.5,10.193,2.576,6.527,5.794,13.1,5.874,20.264a20.742,20.742,0,0,1-6.766,15.409c-5.791,5.708-13.407,8.959-19.888,13.744-2.435,1.843-4.756,4.139-5.587,7.168-.678,2.934.352,5.988,1.862,8.5,6.237,10.108,16.477,16.891,23.291,26.544,3.055-.626,6.338-1.41,8.64-3.684-1.129,2.166-2.45,4.232-3.776,6.282-2.259,2.471-6.094,2.886-8.723,4.091a29.3,29.3,0,0,0-2.66-3.657c-7.337-8.466-16.544-15.159-23.41-24.056-2.728-3.545-5.229-8.189-3.83-12.768,1.913-5.165,6.749-8.274,10.868-11.571,6.1-4.624,12.562-9.879,14.7-17.583,2.107-7.125-.092-14.521-2.318-21.323-1.444-4.8-3.516-9.829-2.324-14.9.913-3.583,4-5.868,7.073-7.535-.244.02-.495.156-.734.058a42.207,42.207,0,0,0-3.932-6.219" transform="translate(43.362 -48.419)" fill="#5fa6ef"/>
      <path id="Path_750095" data-name="Path 750095" d="M247.818,1143.048q-1.833-4.284-3.5-8.637c1.991,3.3,4.193,6.477,6.168,9.792a53.379,53.379,0,0,1,1.389,5.535c-1.459-2.162-2.75-4.432-4.056-6.689" transform="translate(13.634 -80.946)" fill="#5fa6ef"/>
      <path id="Path_750096" data-name="Path 750096" d="M224.815,1144.286c.01-4.01,3.051-7.464,6.646-8.88.473,1.05.775,2.171,1.258,3.22,1.176-1.885.156-4.018-.318-5.9,1.87-2.741,5.5-3.062,8.515-3.528,13.723-1.163,27.521,1.221,41.226-.338,4.247-.556,8.832-1.609,11.829-4.906,3.542-4.058,4.34-9.849,8.244-13.675,3.794-4.224,9.284-6.368,13.253-10.377a7.769,7.769,0,0,0,2.218-6.741,84.571,84.571,0,0,1,2.745,9,9.377,9.377,0,0,1-1.618,5.969c-3.043,4.053-7.624,6.555-10.9,10.388-3.62,3.74-5.17,8.96-8.768,12.706-3.887,3.874-9.551,4.827-14.784,5.376-12.04,1.031-24.113-.375-36.167.128a37.078,37.078,0,0,0-8.512,1.2c-1.806.575-3.953,1.508-4.509,3.489.655,1.678.794,3.754-.506,5.171.641,2.633,1.067,5.343,1.789,7.953a4.751,4.751,0,0,0,1.316-5.172c.318-2,2.407-3.052,4.124-3.7,4.848-1.532,9.984-1.541,15.02-1.636,10.419-.106,20.863.651,31.257-.363,5.206-.585,10.693-1.669,14.807-5.127,3.393-2.9,5.313-7.039,8.046-10.49a99,99,0,0,1,7.019-7.742c2.278-2.428,4.415-5.4,4.33-8.88a52.373,52.373,0,0,1,1.064,9.122c-.742,5.617-5.222,9.476-8.4,13.8-3.161,4.011-5.765,8.65-10.107,11.548-4.594,3.093-10.206,3.949-15.6,4.578-9.434.833-18.905.443-28.362.552-5.286.147-10.651.153-15.787,1.54-2.023.632-4.611,1.622-5.177,3.884a4.716,4.716,0,0,1-2.1,5.969c.455,2.514.807,5.057,1.226,7.573a4.462,4.462,0,0,0,3.134-2.766c.514-1.572-.095-3.169-.45-4.7,1.362-1.929,3.683-2.8,5.88-3.374a53.146,53.146,0,0,1,9.735-1.3c11.185-.627,22.425-.025,33.582-1.241,7.291-.774,15.063-2.681,20.136-8.371a86.7,86.7,0,0,0,6.5-8.3c2.238-3.119,4.581-6.326,5.516-10.115a47.43,47.43,0,0,1-1.768,9.308c-1.28,3.74-3.583,7-5.872,10.177-2.879,3.946-6.469,7.561-11.021,9.515-5.52,2.6-11.681,3.356-17.693,3.932-10.8.946-21.679.541-32.459,1.724-3.41.495-6.969.994-9.929,2.881-.369.339-1.177.606-1,1.241.431,1.957,1.323,4.034.631,6.048a5.862,5.862,0,0,1-3.941,3.018c.155,2.469.407,4.936.541,7.407,2.5-.314,5.141-2.1,5.19-4.865.285.425.179,1.2.368,1.745,12.525-3.5,25.743-3.153,38.434-5.9a49.856,49.856,0,0,0,12.739-4.294,72.158,72.158,0,0,1-10.951,5.846c-12.816,4.55-26.6,4.666-39.71,7.93a5.516,5.516,0,0,1-.469,3.964c-1.195,1.772-3.386,2.54-5.4,2.907-.1-2.4-.054-4.815-.214-7.217-1.763,2.625-1.019,5.848.133,8.523.048,1.954-.162,3.913-.16,5.866,2.75-.525,6.269-1.579,6.82-4.787a56.061,56.061,0,0,1-.037,7.081c-.741,3.251-4.608,4.222-7.44,4.665-.349-1.472,1.034-3.537-.12-4.993-1.547-2.754-3.371-5.888-2.788-9.182.145-1.366,1.289-2.3,1.716-3.524-7.154,5.639-16,8.374-23.681,13.141-2.59,1.709-5.23,3.889-5.985,7.055-.66,3.172.783,6.337,2.445,8.964,5.083,7.722,12.429,13.583,17.859,21.024a3.536,3.536,0,0,1,.246.7c3.028-.637,6.364-1.341,8.53-3.744a55.176,55.176,0,0,1-3.436,6.452c-2.3,2.275-5.585,3.058-8.64,3.685-6.815-9.654-17.054-16.436-23.291-26.544-1.511-2.514-2.54-5.568-1.863-8.5.832-3.03,3.152-5.326,5.587-7.168,6.482-4.785,14.1-8.036,19.888-13.744a20.744,20.744,0,0,0,6.766-15.409c-.08-7.164-3.3-13.737-5.874-20.264-1.246-3.267-2.569-6.639-2.5-10.193" transform="translate(34.947 -60.774)" fill="#5d51d6"/>
      <path id="Path_750097" data-name="Path 750097" d="M216.94,1300.578c.755-3.166,3.4-5.346,5.985-7.056,7.678-4.767,16.527-7.5,23.681-13.141-.427,1.221-1.571,2.158-1.715,3.524-.583,3.293,1.24,6.428,2.788,9.182,1.153,1.457-.229,3.522.119,4.993,2.831-.443,6.7-1.414,7.44-4.665a51.661,51.661,0,0,1-.687,7.365c-1.413,2.957-5.072,3.742-8,4.17.02-.889.528-2.026.5-3.055-2.137-3.481-4.89-6.813-5.76-10.906a6.678,6.678,0,0,1,1.184-5.541c-2.426,2.292-5.911,2.7-8.766,4.285-3.743,1.737-8.067,3.927-9.314,8.2-.663,3.032.735,6.057,2.265,8.6,3.969,6.241,9.491,11.281,13.812,17.258.259.331-.516,1.1.088,1.01,2.979-.615,6.432-1.252,8.412-3.8a45.66,45.66,0,0,1-2.958,6.516c-2.166,2.4-5.5,3.108-8.53,3.745a3.5,3.5,0,0,0-.246-.7c-5.43-7.441-12.776-13.3-17.859-21.024-1.662-2.628-3.1-5.793-2.445-8.964" transform="translate(27.102 -152.325)" fill="#e93223"/>
      <path id="Path_750098" data-name="Path 750098" d="M267.642,1150.024c.557-1.981,2.7-2.914,4.51-3.489a37.021,37.021,0,0,1,8.512-1.2c12.054-.5,24.128.9,36.167-.128,5.233-.548,10.9-1.5,14.784-5.376,3.6-3.745,5.147-8.966,8.768-12.705,3.277-3.833,7.858-6.335,10.9-10.388a9.374,9.374,0,0,0,1.618-5.969,71.208,71.208,0,0,1,1.942,9.265c.085,3.477-2.053,6.452-4.33,8.879a98.826,98.826,0,0,0-7.019,7.742c-2.733,3.451-4.652,7.594-8.046,10.49-4.113,3.457-9.6,4.542-14.807,5.127-10.394,1.014-20.839.257-31.257.363-5.036.1-10.172.1-15.02,1.637-1.717.651-3.806,1.7-4.124,3.7a4.75,4.75,0,0,1-1.316,5.172c-.721-2.61-1.148-5.32-1.789-7.953,1.3-1.417,1.161-3.494.506-5.171" transform="translate(2.476 -69.386)" fill="#5fa6ef"/>
      <path id="Path_750099" data-name="Path 750099" d="M442.086,716.423c.79-3.312,1.525-6.926,4.006-9.43,2-1.994,4.753-2.9,7.41-3.655,5.757-1.456,11.645-3,17.641-2.645,10.965.465,21.347,4.628,32.232,5.629,3.272.273,7.368-.113,8.922-3.494-.209.9-.457,1.8-.726,2.685a49.5,49.5,0,0,0,6.939,1.031c-1.388,1.458-2.748,2.951-4.224,4.317-1.414-.309-2.858-.407-4.265-.708.092-.257.273-.773.36-1.029-1.528,2.584-4.824,2.738-7.519,2.7-12.138-.856-23.72-6.232-36.01-5.581-5.389.379-10.52,2.265-15.779,3.367-3.781.812-7.8,2.824-8.987,6.814" transform="translate(-83.075 131.169)" fill="#4c50c6"/>
      <path id="Path_750100" data-name="Path 750100" d="M441.746,721.73c1.185-3.989,5.206-6,8.987-6.814,5.259-1.1,10.39-2.988,15.779-3.367,12.289-.651,23.872,4.725,36.01,5.581,2.7.039,5.991-.115,7.519-2.7-.087.257-.267.772-.36,1.029,1.407.3,2.85.4,4.265.708a56.844,56.844,0,0,1-4.208,4.141,12.664,12.664,0,0,1-2.057-.465c-1.664,2.24-4.738,2.281-7.282,2.223-8.62-.667-16.871-3.494-25.379-4.884a34.837,34.837,0,0,0-12.438-.281c-3.178.626-6.192,1.86-9.341,2.587-3.971,1-8.465,1.2-11.7,3.993-.492-.271.38-1.26.2-1.752" transform="translate(-82.735 125.862)" fill="#e93223"/>
      <path id="Path_750101" data-name="Path 750101" d="M435.191,747.492c.41-1.3.779-2.622,1.313-3.879,3.456-.633,7.042-.564,10.409-1.675,2.276-.707,4.171-2.247,6.411-3.06a19.136,19.136,0,0,1,8.913-.918c8.793.9,17.22,3.772,25.937,5.116,3.11.429,6.487.831,9.4-.638a28.658,28.658,0,0,1-4.313,3.891,15.961,15.961,0,0,1-7.832.513c-9.146-1.169-17.922-4.325-27.1-5.31a19.339,19.339,0,0,0-7.766.664c-2.054.783-3.657,2.35-5.47,3.537-2.992,1.744-6.565,1.534-9.9,1.758" transform="translate(-79.704 112.983)" fill="#4c50c6"/>
      <path id="Path_750102" data-name="Path 750102" d="M233.8,1311.387c-1.53-2.545-2.928-5.57-2.265-8.6,1.247-4.276,5.572-6.467,9.314-8.2,2.855-1.586,6.339-1.993,8.766-4.285a6.678,6.678,0,0,0-1.185,5.541c.871,4.093,3.623,7.424,5.761,10.906.025,1.029-.483,2.166-.5,3.055,2.923-.428,6.581-1.213,8-4.17a49.452,49.452,0,0,1-1.126,6.319c-1.286,3.4-5.4,4.1-8.571,4.595a9.928,9.928,0,0,0,.564-2.243c-3-4.344-6.638-8.4-8.472-13.427a7.18,7.18,0,0,1,2.117-8.108c-3.563,1.438-7.65,3.72-8.206,7.942-.257,3.27,1.5,6.238,3.188,8.9,2.795,4.126,6.126,7.848,9.082,11.858.478.509-.668,1.4-.158,1.713,3.12-.649,7.1-1.242,8.636-4.442a50.217,50.217,0,0,1-2.624,7.124c-1.98,2.545-5.433,3.182-8.412,3.8-.6.094.17-.678-.089-1.009-4.32-5.977-9.842-11.016-13.812-17.258" transform="translate(19.967 -157.174)" fill="#4c50c6"/>
      <path id="Path_750103" data-name="Path 750103" d="M451.5,754.192c2.188-2.961,6.06-3.242,9.431-2.974,10.01.807,19.511,4.538,29.491,5.564a16.072,16.072,0,0,0,6.82-.735q-2.135,2.083-4.305,4.125c-.621-.213-2.326-.147-2.057-.75a15.6,15.6,0,0,1-5.546.335c-7.209-.726-14.16-2.86-21.23-4.316-4.138-.84-8.365-1.73-12.6-1.248" transform="translate(-87.678 106.475)" fill="#4c50c6"/>
      <path id="Path_750104" data-name="Path 750104" d="M275.574,1182.657c.566-2.262,3.154-3.253,5.176-3.884,5.137-1.387,10.5-1.393,15.788-1.54,9.457-.109,18.929.281,28.362-.552,5.392-.629,11-1.485,15.6-4.578,4.341-2.9,6.946-7.537,10.107-11.548,3.177-4.325,7.657-8.184,8.4-13.8a51.5,51.5,0,0,1-.278,9.269c-.935,3.79-3.278,7-5.516,10.115a86.493,86.493,0,0,1-6.5,8.3c-5.073,5.691-12.844,7.6-20.135,8.372-11.157,1.217-22.4.614-33.582,1.241a53.093,53.093,0,0,0-9.735,1.3c-2.2.578-4.518,1.445-5.88,3.374.355,1.536.964,3.131.45,4.7a4.461,4.461,0,0,1-3.134,2.766c-.419-2.515-.771-5.058-1.226-7.572a4.715,4.715,0,0,0,2.1-5.969" transform="translate(-0.621 -86.981)" fill="#5fa6ef"/>
      <path id="Path_750105" data-name="Path 750105" d="M380.061,960.157c-.742-2.351-1.444-4.73-2.026-7.125a22.351,22.351,0,0,1,7.01-1.1c10.711-.269,21.394,2.033,32.1.935-.049,1.98-.051,3.956-.1,5.934-6.642,1.333-13.441.525-20.145.359-5.6-.14-11.4-.682-16.837,1" transform="translate(-51.754 8.298)" fill="#5fa6ef"/>
      <path id="Path_750106" data-name="Path 750106" d="M244.3,1303.068c.556-4.222,4.643-6.5,8.206-7.942a7.179,7.179,0,0,0-2.117,8.108c1.834,5.024,5.473,9.083,8.472,13.427a9.926,9.926,0,0,1-.564,2.243c3.17-.5,7.286-1.192,8.571-4.595a68.505,68.505,0,0,1-1.821,6.786c-1.531,3.2-5.516,3.794-8.635,4.442-.51-.316.636-1.2.157-1.713-2.956-4.01-6.288-7.732-9.082-11.858-1.691-2.659-3.444-5.627-3.188-8.9" transform="translate(13.654 -159.536)" fill="#e93223"/>
      <path id="Path_750107" data-name="Path 750107" d="M281.086,1212.578c-.174-.635.634-.9,1-1.241,2.96-1.887,6.519-2.386,9.929-2.881,10.781-1.182,21.661-.778,32.459-1.724,6.012-.575,12.174-1.33,17.693-3.932,4.552-1.954,8.142-5.569,11.021-9.515,2.29-3.176,4.592-6.437,5.872-10.177a53.615,53.615,0,0,1-5.581,13.243,29.755,29.755,0,0,1-10.5,10.455c-4.19,2.43-8.971,3.544-13.7,4.385-12.3,2-24.827,1.524-37.171,3.113-3.392.542-6.931,1.124-9.846,3.04.282,1.526.581,3.076.956,4.586a30.756,30.756,0,0,1,7.974-2.224c13.161-2.1,26.672-1.6,39.673-4.794a36.271,36.271,0,0,0,13.391-6.268,46.35,46.35,0,0,1-9.215,7.091,49.856,49.856,0,0,1-12.739,4.294c-12.691,2.748-25.909,2.4-38.434,5.9-.189-.543-.083-1.32-.368-1.745-.049,2.763-2.694,4.552-5.19,4.865-.134-2.471-.386-4.939-.541-7.407a5.863,5.863,0,0,0,3.941-3.018c.692-2.014-.2-4.092-.631-6.048" transform="translate(-2.727 -104.759)" fill="#e93223"/>
      <path id="Path_750108" data-name="Path 750108" d="M287.526,1234.6c-.375-1.51-.673-3.06-.956-4.586,2.915-1.917,6.454-2.5,9.846-3.04,12.344-1.589,24.871-1.11,37.171-3.112,4.725-.841,9.506-1.956,13.7-4.385a29.754,29.754,0,0,0,10.5-10.455,46.254,46.254,0,0,1-9.221,12.293,36.27,36.27,0,0,1-13.391,6.268c-13,3.188-26.512,2.7-39.673,4.794a30.76,30.76,0,0,0-7.974,2.224" transform="translate(-7.028 -117.432)" fill="#5fa6ef"/>
      <path id="Path_750109" data-name="Path 750109" d="M277.947,1274.507c-1.152-2.676-1.9-5.9-.133-8.523.16,2.4.11,4.816.214,7.217,2.009-.368,4.2-1.135,5.4-2.907a5.515,5.515,0,0,0,.469-3.964c13.107-3.264,26.894-3.38,39.71-7.93a120.16,120.16,0,0,1-13.5,5.224c-8.475,2.385-17.222,3.552-25.788,5.516a10,10,0,0,0,.035,1.921c3.218-.531,6.335-1.644,9.547-2.2-3.086,1.155-6.332,1.838-9.417,2.988.015,1.243.164,2.488.125,3.736-.55,3.208-4.07,4.263-6.82,4.788,0-1.953.207-3.912.16-5.866" transform="translate(-2.232 -141.576)" fill="#e93223"/>
      <path id="Path_750110" data-name="Path 750110" d="M291.528,1276.059a10.037,10.037,0,0,1-.035-1.921c8.567-1.963,17.313-3.131,25.789-5.516-5.3,2.007-10.746,3.7-16.207,5.239-3.212.554-6.328,1.667-9.547,2.2" transform="translate(-9.408 -146.575)" fill="#4c50c6"/>
      <path id="Path_750111" data-name="Path 750111" d="M413.667,1045.295c-.652-1.927-1.47-3.8-2.23-5.681,4.889-1.074,9.986-1.236,14.751-2.861a7.249,7.249,0,0,0,3.891-2.722,54.236,54.236,0,0,1-1.338,5.865,7.613,7.613,0,0,1-4.329,2.973c-3.473,1.242-7.179,1.56-10.745,2.426" transform="translate(-68.088 -31.859)" fill="#4c50c6"/>
      <path id="Path_750112" data-name="Path 750112" d="M581.308,616.281c-.252-3.387-.422-7.329,2.029-10.024,2.145-2.1,5.376-2.115,8.184-1.942,9.019.828,17.558,4.3,26.585,5.121-.9,1.88-1.588,3.849-2.5,5.72-9.142-.583-17.843-4.292-27.034-4.3-3.305-.132-6.912,1.868-7.267,5.427" transform="translate(-151.088 178.305)" fill="#4c50c6"/>
      <path id="Path_750113" data-name="Path 750113" d="M582.378,646.979c.119-1.556-.268-3.157-.082-4.687,1.714-1.184,3.92-1.3,5.943-1.3,7.652.22,15.015,2.821,22.667,3.067-1.009,1.756-1.893,3.585-2.968,5.3a89.9,89.9,0,0,1-9.6-1.226c-5.258-.791-10.645-2.229-15.96-1.153" transform="translate(-151.613 160.338)" fill="#e93223"/>
      <path id="Path_750114" data-name="Path 750114" d="M580.177,696.374c.361-1.559.469-3.167.767-4.737,4.208.669,8.417,1.376,12.654,1.792a47.648,47.648,0,0,1-3.7,4.428,87.8,87.8,0,0,1-9.718-1.483" transform="translate(-150.602 135.572)" fill="#4c50c6"/>
    </g>
  </g>
</svg>
