<svg xmlns="http://www.w3.org/2000/svg" xmlns:xlink="http://www.w3.org/1999/xlink" width="112" height="350" viewBox="0 0 112 350">
  <defs>
    <clipPath id="clip-path">
      <rect id="Rectangle_217574" data-name="Rectangle 217574" width="112" height="350" transform="translate(1106 208)" fill="#fff"/>
    </clipPath>
    <filter id="Path_749785" x="-53.893" y="-79.545" width="514.447" height="531.787" filterUnits="userSpaceOnUse">
      <feOffset input="SourceAlpha"/>
      <feGaussianBlur stdDeviation="10" result="blur"/>
      <feFlood flood-opacity="0.2"/>
      <feComposite operator="in" in2="blur"/>
      <feComposite in="SourceGraphic"/>
    </filter>
    <filter id="Path_750116" x="-20.154" y="22.088" width="190.091" height="194.912" filterUnits="userSpaceOnUse">
      <feOffset input="SourceAlpha"/>
      <feGaussianBlur stdDeviation="10" result="blur-2"/>
      <feFlood flood-opacity="0.2"/>
      <feComposite operator="in" in2="blur-2"/>
    </filter>
    <clipPath id="clip-path-2">
      <path id="Path_749784" data-name="Path 749784" d="M124.673,220.754l10.1,59.356,56.455,20.927,46.352-38.427-10.1-59.356-56.456-20.927Z" transform="translate(0)" fill="none"/>
    </clipPath>
  </defs>
  <g id="Mask_Group_3238" data-name="Mask Group 3238" transform="translate(-1106 -208)" clip-path="url(#clip-path)">
    <g transform="matrix(1, 0, 0, 1, 1106, 208)" filter="url(#Path_749785)">
      <path id="Path_749785-2" data-name="Path 749785" d="M1089.044,355.929c7.63,36.553,20.1,96.32-16.338,145.641-23.332,31.578-61.743,53.545-100.528,58.991-42.366,5.949-82.27-27.148-110.171-55.674-20.643-21.106-37.752-45.433-52.154-71.148-13.312-23.769-27.994-48.661-27.755-76.6.366-42.663,19.35-86.53,50.1-116.045,42.466-40.765,109.155-54.487,163.421-31.26,69.106,29.579,84.816,104.849,93.426,146.1" transform="translate(-800.48 327.22) rotate(-30)" fill="#5ec1bf"/>
    </g>
    <g transform="matrix(1, 0, 0, 1, 1106, 208)" filter="url(#Path_750116)">
      <path id="Path_750116-2" data-name="Path 750116" d="M124.673,220.754l10.1,59.356,56.455,20.927,46.352-38.427-10.1-59.356-56.456-20.927Z" transform="translate(-141.81 -90.83) rotate(-9)" fill="#fff"/>
    </g>
    <g id="Group_446941" data-name="Group 446941" transform="translate(964.186 116.52) rotate(-9)" clip-path="url(#clip-path-2)">
      <rect id="Rectangle_217573" data-name="Rectangle 217573" width="237.826" height="247.848" transform="translate(37.915 226.18) rotate(-39.66)" fill="#e78f45"/>
      <path id="Path_749769" data-name="Path 749769" d="M251.891,396.852q-5.568-2.215-10.843-4.623c23.856-25.364,23.471-69.45,58.689-68.1-.037.946-.073,1.891-.106,2.849-35.223-1.353-31.826,46.574-47.74,69.869" transform="translate(-35.392 -43.117)" fill="#d73220"/>
      <path id="Path_749770" data-name="Path 749770" d="M213.914,380.808q-4.761-2.694-9.233-5.575c42.376-28.1,49.063-63.094,84.277-61.741q-.049,1.427-.105,2.848c-35.219-1.351-39.312,36.987-74.939,64.469" transform="translate(-24.332 -39.878)" fill="#d73220"/>
      <path id="Path_749771" data-name="Path 749771" d="M181.952,362.414q-3.962-3.119-7.63-6.371c57.858-27.485,70.475-54.535,105.7-53.189-.043.949-.087,1.894-.117,2.852-35.216-1.351-45.678,28.622-97.951,56.708" transform="translate(-15.099 -36.639)" fill="#d73220"/>
      <path id="Path_749772" data-name="Path 749772" d="M155.981,342.069q-3.176-3.452-6.028-7.014c70.311-24.1,87.709-44.19,122.933-42.839-.037.946-.081,1.9-.107,2.845-35.223-1.353-50.916,21.314-116.8,47.008" transform="translate(-7.688 -33.399)" fill="#d73220"/>
      <path id="Path_749773" data-name="Path 749773" d="M135.963,320.177q-2.368-3.713-4.445-7.5c79.772-18.552,100.826-32.455,136.046-31.1-.038.941-.072,1.895-.109,2.841-35.223-1.352-55.006,14.852-131.492,35.761" transform="translate(-2.082 -30.155)" fill="#d73220"/>
      <path id="Path_749774" data-name="Path 749774" d="M121.908,297.13c-1.065-2.6-2.006-5.2-2.852-7.83,86.237-11.441,109.779-19.738,145-18.389-.04.945-.072,1.894-.108,2.851C228.729,272.411,206,282.8,121.908,297.13" transform="translate(1.708 -26.896)" fill="#d73220"/>
      <path id="Path_749775" data-name="Path 749775" d="M113.762,273.3q-.785-4-1.266-8c89.745-3.366,114.633-6.454,149.845-5.108-.036.957-.071,1.895-.105,2.848-35.222-1.354-59.731,3.708-148.474,10.256" transform="translate(3.703 -23.583)" fill="#d73220"/>
      <path id="Path_749776" data-name="Path 749776" d="M111.393,245.714c0-2.682.105-5.349.305-8.023,90.321,5.095,115.378,7.01,150.593,8.362-.035.95-.074,1.9-.106,2.849-35.22-1.351-60.348-1.356-150.793-3.188" transform="translate(4.039 -16.837)" fill="#d73220"/>
      <path id="Path_749777" data-name="Path 749777" d="M114.339,215.931q.8-3.953,1.883-7.877c87.982,13.314,112.027,20.236,147.25,21.583q-.055,1.426-.113,2.852c-35.217-1.356-59.8-6.336-149.02-16.558" transform="translate(3.143 -7.824)" fill="#d73220"/>
      <path id="Path_749778" data-name="Path 749778" d="M123.155,186.915q1.576-3.821,3.443-7.585c82.756,20.72,104.619,32.825,139.833,34.178-.03.948-.07,1.893-.106,2.843-35.218-1.342-58.061-11.425-143.171-29.435" transform="translate(0.462 0.911)" fill="#d73220"/>
      <path id="Path_749779" data-name="Path 749779" d="M137.8,159.252q2.356-3.622,5.008-7.14c74.658,26.7,93.145,44.37,128.365,45.715-.042.953-.074,1.893-.113,2.848-35.215-1.351-55.142-16.822-133.259-41.422" transform="translate(-3.993 9.189)" fill="#d73220"/>
      <path id="Path_749780" data-name="Path 749780" d="M158.281,133.515q3.116-3.335,6.548-6.534c63.712,30.655,77.638,54.456,112.854,55.8-.035.949-.073,1.9-.106,2.844-35.221-1.344-51.033-22.7-119.3-52.112" transform="translate(-10.221 16.832)" fill="#d73220"/>
      <path id="Path_749781" data-name="Path 749781" d="M184.533,110.277q3.9-2.956,8.1-5.764c49.969,32,58.1,62.693,93.322,64.039-.04.946-.072,1.89-.106,2.844-35.224-1.345-45.718-29.28-101.313-61.119" transform="translate(-18.204 23.665)" fill="#d73220"/>
      <path id="Path_749782" data-name="Path 749782" d="M216.563,90.145q4.666-2.524,9.631-4.85c33.418,30.128,34.568,68.659,69.777,70.013q-.05,1.421-.1,2.842c-35.216-1.346-39.2-36.742-79.3-68.006" transform="translate(-27.945 29.509)" fill="#d73220"/>
      <path id="Path_749783" data-name="Path 749783" d="M254.324,73.684q5.433-2,11.174-3.779c14.083,24.437,7.026,71.97,42.241,73.321-.027.951-.069,1.892-.108,2.852-35.216-1.356-31.462-45.276-53.307-72.393" transform="translate(-39.429 34.189)" fill="#d73220"/>
    </g>
    <path id="Path_749786" data-name="Path 749786" d="M175.414,570.843c-3.778,1.233-6.892-3.129-8.69-5.882a22.526,22.526,0,0,1-2.795-4.907,26.541,26.541,0,0,1-1.277-5.933c-.237-2.612,3.544-4.733,5.117-2.107a24.192,24.192,0,0,0,3.1,4.06c1.161,1.247,2.118,2.716,3.187,4.049a24.132,24.132,0,0,1,2.924,4.906c.748,1.621.61,5.1-1.57,5.814" transform="matrix(0.978, -0.208, 0.208, 0.978, 918.529, 22.957)" fill="#27c5c1"/>
    <path id="Path_749787" data-name="Path 749787" d="M96.959,464.508c-4.679-.459-5.98-6.665-6.621-10.5a26.67,26.67,0,0,1-.7-6.645,31.363,31.363,0,0,1,1.437-7.036c.984-2.943,6.089-3.444,6.545.149a28.655,28.655,0,0,0,1.434,5.874c.667,1.9,1,3.95,1.53,5.9a28.571,28.571,0,0,1,.837,6.705c.039,2.112-1.764,5.819-4.465,5.554" transform="matrix(0.978, -0.208, 0.208, 0.978, 958.128, 62.682)" fill="#e63888"/>
    <path id="Path_749788" data-name="Path 749788" d="M138.676,499.545c2.068-4.022.009-9.482-1.71-13.393a69.113,69.113,0,0,0-7.047-12.005c-1.818-2.588-6.585-1.238-5.475,2.209,1.343,4.167,2.3,8.422,3.607,12.6a43.312,43.312,0,0,0,2.676,6.577,9.871,9.871,0,0,0,5.089,5.183,2.518,2.518,0,0,0,2.86-1.174" transform="matrix(0.978, -0.208, 0.208, 0.978, 940.952, 51.467)" fill="#ffcd2e"/>
    <path id="Path_749789" data-name="Path 749789" d="M119.487,516.874c-1.306,4.33,1.708,9.327,4.107,12.863a69.091,69.091,0,0,0,9.1,10.53c2.257,2.216,6.7.024,4.985-3.164-2.075-3.856-3.789-7.865-5.83-11.742a43.241,43.241,0,0,0-3.823-5.984,9.874,9.874,0,0,0-5.943-4.176,2.518,2.518,0,0,0-2.6,1.673" transform="matrix(0.978, -0.208, 0.208, 0.978, 939.361, 33.733)" fill="#009b3b"/>
  </g>
</svg>
