<?xml version="1.0" encoding="UTF-8"?>
<svg id="Layer_1" data-name="Layer 1" xmlns="http://www.w3.org/2000/svg" version="1.1" viewBox="0 0 287 123">
  <defs>
    <style>
      .cls-1 {
        fill: #f68d2e;
      }

      .cls-1, .cls-2, .cls-3 {
        stroke-width: 0px;
      }

      .cls-2 {
        fill: #eb1000;
        fill-rule: evenodd;
      }

      .cls-3 {
        fill: #46a8f7;
      }
    </style>
  </defs>
  <path id="Path_163326" data-name="Path 163326" class="cls-2" d="M0,0c.4,0,0,121.7,0,121.7,14.5,5.1,26.3-51.4,80.7-76.5,58.1-26.9,97.5-.3,156.5-20.1C247.2,21.8,287,0,287,0h0C124.7,0,0,0,0,0Z"/>
  <path id="Ellipse_10393" data-name="Ellipse 10393" class="cls-3" d="M128.7,102c-31.5-.5-31.5-47.5,0-48,31.5.5,31.5,47.5,0,48Z"/>
  <path id="Ellipse_10394" data-name="Ellipse 10394" class="cls-1" d="M84.2,97c-13.7,0-13.7-20.9,0-21,13.7,0,13.7,20.9,0,21Z"/>
</svg>