<svg xmlns="http://www.w3.org/2000/svg" xmlns:xlink="http://www.w3.org/1999/xlink" width="260" height="112" viewBox="0 0 260 112">
  <defs>
    <clipPath id="clip-path">
      <path id="Rectangle_182967" data-name="Rectangle 182967" d="M16,0H260a0,0,0,0,1,0,0V112a0,0,0,0,1,0,0H0a0,0,0,0,1,0,0V16A16,16,0,0,1,16,0Z" fill="#fafafa"/>
    </clipPath>
    <clipPath id="clip-path-2">
      <rect id="Rectangle_175437" data-name="Rectangle 175437" width="761" height="172" transform="translate(-0.294)" fill="#fff" stroke="#707070" stroke-width="1"/>
    </clipPath>
    <filter id="Path_163326" x="-689.486" y="-511.512" width="1088.754" height="860.066" filterUnits="userSpaceOnUse">
      <feOffset input="SourceAlpha"/>
      <feGaussianBlur stdDeviation="10" result="blur"/>
      <feFlood flood-color="#202020" flood-opacity="0.161"/>
      <feComposite operator="in" in2="blur"/>
      <feComposite in="SourceGraphic"/>
    </filter>
    <filter id="Ellipse_10394" x="86" y="17" width="79" height="79" filterUnits="userSpaceOnUse">
      <feOffset input="SourceAlpha"/>
      <feGaussianBlur stdDeviation="10" result="blur-2"/>
      <feFlood flood-color="#202020" flood-opacity="0.161"/>
      <feComposite operator="in" in2="blur-2"/>
      <feComposite in="SourceGraphic"/>
    </filter>
    <filter id="Ellipse_10393" x="12.5" y="-7.5" width="104" height="104" filterUnits="userSpaceOnUse">
      <feOffset input="SourceAlpha"/>
      <feGaussianBlur stdDeviation="10" result="blur-3"/>
      <feFlood flood-color="#202020" flood-opacity="0.161"/>
      <feComposite operator="in" in2="blur-3"/>
      <feComposite in="SourceGraphic"/>
    </filter>
  </defs>
  <g id="Hero" clip-path="url(#clip-path)">
    <g id="Courses-MarqueeLeft" transform="translate(-500.706)" clip-path="url(#clip-path-2)">
      <g transform="matrix(1, 0, 0, 1, 500.71, 0)" filter="url(#Path_163326)">
        <path id="Path_163326-2" data-name="Path 163326" d="M0,491.027C4.083,396.509,29.811,325.5,81.765,283.834c43.776-35.105,85.379-24.443,126.19-65.424,61.191-61.446,18.553-145.834,146.932-189.572S659.659-20.444,791.855,95.254s158.576,318.409,23.769,387.618C778.682,501.838,745.747,492,698.719,486.5c-105.887-12.4-237.384,39.846-274.593,35.339Q223.372,497.53,5.438,496.465" transform="translate(190.69 318.55) rotate(-160)" fill="#eb1000" fill-rule="evenodd"/>
      </g>
      <g transform="matrix(1, 0, 0, 1, 500.71, 0)" filter="url(#Ellipse_10394)">
        <circle id="Ellipse_10394-2" data-name="Ellipse 10394" cx="9.5" cy="9.5" r="9.5" transform="translate(116 47)" fill="#f68d2e"/>
      </g>
      <g transform="matrix(1, 0, 0, 1, 500.71, 0)" filter="url(#Ellipse_10393)">
        <circle id="Ellipse_10393-2" data-name="Ellipse 10393" cx="21.5" cy="21.5" r="21.5" transform="translate(43 23)" fill="#ffcd2e" stroke="rgba(0,0,0,0)" stroke-width="1"/>
      </g>
    </g>
  </g>
</svg>
